 0
SECTION
 2
ENTITIES
  0
3DFACE
 8
sk
10
0.290290879001995
20
0.262798463610935
30
0.828583712118864
11
0.275508084621807
21
0.250624497393894
31
0.819165391653776
12
0.257826387730022
22
0.25772608063631
32
0.858586144369841
13
0.257826387730022
23
0.25772608063631
33
0.858586144369841
70
0
  0
3DFACE
 8
sk
10
0.275508084621807
20
0.250624497393894
30
0.819165391653776
11
0.266232512226482
21
0.246276525143909
31
0.832932187002897
12
0.257826387730022
22
0.25772608063631
32
0.858586144369841
13
0.257826387730022
23
0.25772608063631
33
0.858586144369841
70
0
  0
3DFACE
 8
sk
10
0.237391067734142
20
0.256276759580898
30
0.915543132895231
11
0.196085837021251
21
0.276856829098987
31
1.05685098049045
12
0.198549640121837
22
0.286277333069968
32
1.03525588390231
13
0.198549640121837
23
0.286277333069968
33
1.03525588390231
70
0
  0
3DFACE
 8
sk
10
0.257826387730022
20
0.25772608063631
30
0.858586144369841
11
0.237391067734142
21
0.256276759580898
31
0.915543132895231
12
0.198549640121837
22
0.286277333069968
32
1.03525588390231
13
0.198549640121837
23
0.286277333069968
33
1.03525588390231
70
0
  0
3DFACE
 8
sk
10
0.239130460110088
20
0.24366769092493
30
0.949167630881071
11
0.216666194191356
21
0.263668156770992
31
1.07467673351169
12
0.196085837021251
22
0.276856829098987
32
1.05685098049045
13
0.196085837021251
23
0.276856829098987
33
1.05685098049045
70
0
  0
3DFACE
 8
sk
10
0.237391067734142
20
0.256276759580898
30
0.915543132895231
11
0.239130460110088
21
0.24366769092493
31
0.949167630881071
12
0.196085837021251
22
0.276856829098987
32
1.05685098049045
13
0.196085837021251
23
0.276856829098987
33
1.05685098049045
70
0
  0
3DFACE
 8
sk
10
0.272029566326519
20
0.226855681137371
30
0.831629165762663
11
0.239130460110088
21
0.24366769092493
31
0.949167630881071
12
0.237391067734142
22
0.256276759580898
32
0.915543132895231
13
0.237391067734142
23
0.256276759580898
33
0.915543132895231
70
0
  0
3DFACE
 8
sk
10
0.297537505474468
20
0.244102539018917
30
0.870760401266813
11
0.278696552791973
21
0.266566754977035
31
0.992647438162565
12
0.272754207172771
22
0.246421304945278
32
0.955687872427702
13
0.272754207172771
23
0.246421304945278
33
0.955687872427702
70
0
  0
3DFACE
 8
sk
10
0.298262170544048
20
0.219609321121502
30
0.835830362814665
11
0.297537505474468
21
0.244102539018917
31
0.870760401266813
12
0.272754207172771
22
0.246421304945278
32
0.955687872427702
13
0.272754207172771
23
0.246421304945278
33
0.955687872427702
70
0
  0
3DFACE
 8
sk
10
0.28246463674583
20
0.277436558429527
30
0.947138200491667
11
0.269275943222423
21
0.295263040421533
31
1.06337112514377
12
0.278696552791973
22
0.266566754977035
32
0.992647438162565
13
0.278696552791973
23
0.266566754977035
33
0.992647438162565
70
0
  0
3DFACE
 8
sk
10
0.297537505474468
20
0.244102539018917
30
0.870760401266813
11
0.28246463674583
21
0.277436558429527
31
0.947138200491667
12
0.278696552791973
22
0.266566754977035
32
0.992647438162565
13
0.278696552791973
23
0.266566754977035
33
0.992647438162565
70
0
  0
3DFACE
 8
sk
10
0.290290879001995
20
0.262798463610935
30
0.828583712118864
11
0.28246463674583
21
0.277436558429527
31
0.947138200491667
12
0.297537505474468
22
0.244102539018917
32
0.870760401266813
13
0.297537505474468
23
0.244102539018917
33
0.870760401266813
70
0
  0
3DFACE
 8
sk
10
0.278696552791973
20
0.266566754977035
30
0.992647438162565
11
0.269275943222423
21
0.295263040421533
31
1.06337112514377
12
0.261739508858104
22
0.282943938622999
32
1.076995681113
13
0.261739508858104
23
0.282943938622999
33
1.076995681113
70
0
  0
3DFACE
 8
sk
10
0.28246463674583
20
0.277436558429527
30
0.947138200491667
11
0.251014606323619
21
0.319901219038295
31
1.05337115413547
12
0.269275943222423
22
0.295263040421533
32
1.06337112514377
13
0.269275943222423
23
0.295263040421533
33
1.06337112514377
70
0
  0
3DFACE
 8
sk
10
0.290290879001995
20
0.262798463610935
30
0.828583712118864
11
0.251014606323619
21
0.319901219038295
31
1.05337115413547
12
0.28246463674583
22
0.277436558429527
32
0.947138200491667
13
0.28246463674583
23
0.277436558429527
33
0.947138200491667
70
0
  0
3DFACE
 8
sk
10
0.23275328153648
20
0.328307349590587
30
1.03438723537326
11
0.225506909408947
21
0.318451894954967
31
1.01279213878512
12
0.219129997291942
22
0.327437653402614
32
1.04554546901584
13
0.219129997291942
23
0.327437653402614
33
1.04554546901584
70
0
  0
3DFACE
 8
sk
10
0.290290879001995
20
0.262798463610935
30
0.828583712118864
11
0.225506909408947
21
0.318451894954967
31
1.01279213878512
12
0.23275328153648
22
0.328307349590587
32
1.03438723537326
13
0.23275328153648
23
0.328307349590587
33
1.03438723537326
70
0
  0
3DFACE
 8
sk
10
0.290290879001995
20
0.262798463610935
30
0.828583712118864
11
0.257826387730022
21
0.25772608063631
31
0.858586144369841
12
0.225506909408947
22
0.318451894954967
32
1.01279213878512
13
0.225506909408947
23
0.318451894954967
33
1.01279213878512
70
0
  0
3DFACE
 8
sk
10
0.257826387730022
20
0.25772608063631
30
0.858586144369841
11
0.198549640121837
21
0.286277333069968
31
1.03525588390231
12
0.225506909408947
22
0.318451894954967
32
1.01279213878512
13
0.225506909408947
23
0.318451894954967
33
1.01279213878512
70
0
  0
3DFACE
 8
sk
10
0.278696552791973
20
0.266566754977035
30
0.992647438162565
11
0.261739508858104
21
0.282943938622999
31
1.076995681113
12
0.272754207172771
22
0.246421304945278
32
0.955687872427702
13
0.272754207172771
23
0.246421304945278
33
0.955687872427702
70
0
  0
3DFACE
 8
sk
10
0.225506909408947
20
0.318451894954967
30
1.01279213878512
11
0.198549640121837
21
0.286277333069968
31
1.03525588390231
12
0.219129997291942
22
0.327437653402614
32
1.04554546901584
13
0.219129997291942
23
0.327437653402614
33
1.04554546901584
70
0
  0
3DFACE
 8
sk
10
0.290290879001995
20
0.262798463610935
30
0.828583712118864
11
0.23275328153648
21
0.328307349590587
31
1.03438723537326
12
0.251014606323619
22
0.319901219038295
32
1.05337115413547
13
0.251014606323619
23
0.319901219038295
33
1.05337115413547
70
0
  0
3DFACE
 8
sk
10
0.272754207172771
20
0.246421304945278
30
0.955687872427702
11
0.239130460110088
21
0.24366769092493
31
0.949167630881071
12
0.272029566326519
22
0.226855681137371
32
0.831629165762663
13
0.272029566326519
23
0.226855681137371
33
0.831629165762663
70
0
  0
3DFACE
 8
sk
10
0.301305589428325
20
0.228305005220699
30
0.833366559714079
11
0.297537505474468
21
0.244102539018917
31
0.870760401266813
12
0.298262170544048
22
0.219609321121502
32
0.835830362814665
13
0.298262170544048
23
0.219609321121502
33
0.835830362814665
70
0
  0
3DFACE
 8
sk
10
0.272029566326519
20
0.226855681137371
30
0.831629165762663
11
0.237391067734142
21
0.256276759580898
31
0.915543132895231
12
0.257826387730022
22
0.25772608063631
32
0.858586144369841
13
0.257826387730022
23
0.25772608063631
33
0.858586144369841
70
0
  0
3DFACE
 8
sk
10
0.297827313366314
20
0.248450511268902
30
0.826701559561491
11
0.297537505474468
21
0.244102539018917
31
0.870760401266813
12
0.301305589428325
22
0.228305005220699
32
0.833366559714079
13
0.301305589428325
23
0.228305005220699
33
0.833366559714079
70
0
  0
3DFACE
 8
sk
10
0.297827313366314
20
0.248450511268902
30
0.826701559561491
11
0.290290879001995
21
0.262798463610935
31
0.828583712118864
12
0.297537505474468
22
0.244102539018917
32
0.870760401266813
13
0.297537505474468
23
0.244102539018917
33
0.870760401266813
70
0
  0
3DFACE
 8
sk
10
0.272029566326519
20
0.226855681137371
30
0.831629165762663
11
0.257826387730022
21
0.25772608063631
31
0.858586144369841
12
0.266232512226482
22
0.246276525143909
32
0.832932187002897
13
0.266232512226482
23
0.246276525143909
33
0.832932187002897
70
0
  0
3DFACE
 8
sk
10
0.298262170544048
20
0.219609321121502
30
0.835830362814665
11
0.272754207172771
21
0.246421304945278
31
0.955687872427702
12
0.290001071110149
22
0.21656563578062
32
0.836556771963835
13
0.290001071110149
23
0.21656563578062
33
0.836556771963835
70
0
  0
3DFACE
 8
sk
10
0.290001071110149
20
0.21656563578062
30
0.836556771963835
11
0.272754207172771
21
0.246421304945278
31
0.955687872427702
12
0.272029566326519
22
0.226855681137371
32
0.831629165762663
13
0.272029566326519
23
0.226855681137371
33
0.831629165762663
70
0
  0
3DFACE
 8
sk
10
0.272609448566814
20
0.23439211550169
30
0.823511347311735
11
0.272029566326519
21
0.226855681137371
31
0.831629165762663
12
0.266232512226482
22
0.246276525143909
32
0.832932187002897
13
0.266232512226482
23
0.246276525143909
33
0.832932187002897
70
0
  0
3DFACE
 8
sk
10
0.275508084621807
20
0.250624497393894
30
0.819165391653776
11
0.272609448566814
21
0.23439211550169
31
0.823511347311735
12
0.266232512226482
22
0.246276525143909
32
0.832932187002897
13
0.266232512226482
23
0.246276525143909
33
0.832932187002897
70
0
  0
3DFACE
 8
sk
10
0.290290879001995
20
0.262798463610935
30
0.828583712118864
11
0.288406715908428
21
0.252508415226269
31
0.819165391653776
12
0.275508084621807
22
0.250624497393894
32
0.819165391653776
13
0.275508084621807
23
0.250624497393894
33
0.819165391653776
70
0
  0
3DFACE
 8
sk
10
0.288406715908428
20
0.252508415226269
30
0.819165391653776
11
0.290290879001995
21
0.262798463610935
31
0.828583712118864
12
0.297827313366314
22
0.248450511268902
32
0.826701559561491
13
0.297827313366314
23
0.248450511268902
33
0.826701559561491
70
0
  0
3DFACE
 8
sk
10
0.288406715908428
20
0.252508415226269
30
0.819165391653776
11
0.297827313366314
21
0.248450511268902
31
0.826701559561491
12
0.297102648296733
22
0.236855918602276
32
0.823945720022917
13
0.297102648296733
23
0.236855918602276
33
0.823945720022917
70
0
  0
3DFACE
 8
sk
10
0.297102648296733
20
0.236855918602276
30
0.823945720022917
11
0.297827313366314
21
0.248450511268902
31
0.826701559561491
12
0.301305589428325
22
0.228305005220699
32
0.833366559714079
13
0.301305589428325
23
0.228305005220699
33
0.833366559714079
70
0
  0
3DFACE
 8
sk
10
0.297102648296733
20
0.236855918602276
30
0.823945720022917
11
0.298262170544048
21
0.219609321121502
31
0.835830362814665
12
0.295073702373882
22
0.222507714943218
32
0.828149339407682
13
0.295073702373882
23
0.222507714943218
33
0.828149339407682
70
0
  0
3DFACE
 8
sk
10
0.297102648296733
20
0.236855918602276
30
0.823945720022917
11
0.301305589428325
21
0.228305005220699
31
0.833366559714079
12
0.298262170544048
22
0.219609321121502
32
0.835830362814665
13
0.298262170544048
23
0.219609321121502
33
0.835830362814665
70
0
  0
3DFACE
 8
sk
10
0.295073702373882
20
0.222507714943218
30
0.828149339407682
11
0.290001071110149
21
0.21656563578062
31
0.836556771963835
12
0.288696790256878
22
0.220043911842632
32
0.828583712118864
13
0.288696790256878
23
0.220043911842632
33
0.828583712118864
70
0
  0
3DFACE
 8
sk
10
0.298262170544048
20
0.219609321121502
30
0.835830362814665
11
0.290001071110149
21
0.21656563578062
31
0.836556771963835
12
0.295073702373882
22
0.222507714943218
32
0.828149339407682
13
0.295073702373882
23
0.222507714943218
33
0.828149339407682
70
0
  0
3DFACE
 8
sk
10
0.288696790256878
20
0.220043911842632
30
0.828583712118864
11
0.272029566326519
21
0.226855681137371
31
0.831629165762663
12
0.274928202381511
22
0.228160228447246
32
0.825540777701139
13
0.274928202381511
23
0.228160228447246
33
0.825540777701139
70
0
  0
3DFACE
 8
sk
10
0.290001071110149
20
0.21656563578062
30
0.836556771963835
11
0.272029566326519
21
0.226855681137371
31
0.831629165762663
12
0.288696790256878
22
0.220043911842632
32
0.828583712118864
13
0.288696790256878
23
0.220043911842632
33
0.828583712118864
70
0
  0
3DFACE
 8
sk
10
0.272609448566814
20
0.23439211550169
30
0.823511347311735
11
0.274928202381511
21
0.228160228447246
31
0.825540777701139
12
0.272029566326519
22
0.226855681137371
32
0.831629165762663
13
0.272029566326519
23
0.226855681137371
33
0.831629165762663
70
0
  0
3DFACE
 8
sk
10
0.288406715908428
20
0.252508415226269
30
0.819165391653776
11
0.297102648296733
21
0.236855918602276
31
0.823945720022917
12
0.290725736179729
22
0.229754329304027
32
0.822353084677458
13
0.290725736179729
23
0.229754329304027
33
0.822353084677458
70
0
  0
3DFACE
 8
sk
10
0.297102648296733
20
0.236855918602276
30
0.823945720022917
11
0.295073702373882
21
0.222507714943218
31
0.828149339407682
12
0.290725736179729
22
0.229754329304027
32
0.822353084677458
13
0.290725736179729
23
0.229754329304027
33
0.822353084677458
70
0
  0
3DFACE
 8
sk
10
0.290725736179729
20
0.229754329304027
30
0.822353084677458
11
0.295073702373882
21
0.222507714943218
31
0.828149339407682
12
0.288696790256878
22
0.220043911842632
32
0.828583712118864
13
0.288696790256878
23
0.220043911842632
33
0.828583712118864
70
0
  0
3DFACE
 8
sk
10
0.275508084621807
20
0.250624497393894
30
0.819165391653776
11
0.290725736179729
21
0.229754329304027
31
0.822353084677458
12
0.272609448566814
22
0.23439211550169
32
0.823511347311735
13
0.272609448566814
23
0.23439211550169
33
0.823511347311735
70
0
  0
3DFACE
 8
sk
10
0.288406715908428
20
0.252508415226269
30
0.819165391653776
11
0.290725736179729
21
0.229754329304027
31
0.822353084677458
12
0.275508084621807
22
0.250624497393894
32
0.819165391653776
13
0.275508084621807
23
0.250624497393894
33
0.819165391653776
70
0
  0
3DFACE
 8
sk
10
0.290725736179729
20
0.229754329304027
30
0.822353084677458
11
0.288696790256878
21
0.220043911842632
31
0.828583712118864
12
0.274928202381511
22
0.228160228447246
32
0.825540777701139
13
0.274928202381511
23
0.228160228447246
33
0.825540777701139
70
0
  0
3DFACE
 8
sk
10
0.272609448566814
20
0.23439211550169
30
0.823511347311735
11
0.290725736179729
21
0.229754329304027
31
0.822353084677458
12
0.274928202381511
22
0.228160228447246
32
0.825540777701139
13
0.274928202381511
23
0.228160228447246
33
0.825540777701139
70
0
  0
3DFACE
 8
sk
10
0.272754207172771
20
0.246421304945278
30
0.955687872427702
11
0.228260532513042
21
0.264247784666347
31
1.07612703258395
12
0.216666194191356
22
0.263668156770992
32
1.07467673351169
13
0.216666194191356
23
0.263668156770992
33
1.07467673351169
70
0
  0
3DFACE
 8
sk
10
0.272754207172771
20
0.246421304945278
30
0.955687872427702
11
0.216666194191356
21
0.263668156770992
31
1.07467673351169
12
0.239130460110088
22
0.24366769092493
32
0.949167630881071
13
0.239130460110088
23
0.24366769092493
33
0.949167630881071
70
0
  0
3DFACE
 8
sk
10
0.251014606323619
20
0.319901219038295
30
1.05337115413547
11
0.23275328153648
21
0.328307349590587
31
1.03438723537326
12
0.230144695606609
22
0.325698515371608
32
1.06119945537448
13
0.230144695606609
23
0.325698515371608
33
1.06119945537448
70
0
  0
3DFACE
 8
sk
10
0.230144695606609
20
0.325698515371608
30
1.06119945537448
11
0.219129997291942
21
0.327437653402614
31
1.04554546901584
12
0.220289253082653
22
0.316277908829975
32
1.07380798808932
13
0.220289253082653
23
0.316277908829975
33
1.07380798808932
70
0
  0
3DFACE
 8
sk
10
0.23275328153648
20
0.328307349590587
30
1.03438723537326
11
0.219129997291942
21
0.327437653402614
31
1.04554546901584
12
0.230144695606609
22
0.325698515371608
32
1.06119945537448
13
0.230144695606609
23
0.325698515371608
33
1.06119945537448
70
0
  0
3DFACE
 8
sk
10
0.198549640121837
20
0.286277333069968
30
1.03525588390231
11
0.198839714470287
21
0.290045531085183
31
1.06540065242648
12
0.219129997291942
22
0.327437653402614
32
1.04554546901584
13
0.219129997291942
23
0.327437653402614
33
1.04554546901584
70
0
  0
3DFACE
 8
sk
10
0.198549640121837
20
0.286277333069968
30
1.03525588390231
11
0.196085837021251
21
0.276856829098987
31
1.05685098049045
12
0.198839714470287
22
0.290045531085183
32
1.06540065242648
13
0.198839714470287
23
0.290045531085183
33
1.06540065242648
70
0
  0
3DFACE
 8
sk
10
0.228260532513042
20
0.264247784666347
30
1.07612703258395
11
0.217970487156292
21
0.268450851456451
31
1.08540311366916
12
0.216666194191356
22
0.263668156770992
32
1.07467673351169
13
0.216666194191356
23
0.263668156770992
33
1.07467673351169
70
0
  0
3DFACE
 8
sk
10
0.272754207172771
20
0.246421304945278
30
0.955687872427702
11
0.247826150265117
21
0.278596017847585
31
1.08743002483249
12
0.228260532513042
22
0.264247784666347
32
1.07612703258395
13
0.228260532513042
23
0.264247784666347
33
1.07612703258395
70
0
  0
3DFACE
 8
sk
10
0.261739508858104
20
0.282943938622999
30
1.076995681113
11
0.254058291664501
21
0.283668575684356
31
1.08714050762057
12
0.247826150265117
22
0.278596017847585
32
1.08743002483249
13
0.247826150265117
23
0.278596017847585
33
1.08743002483249
70
0
  0
3DFACE
 8
sk
10
0.272754207172771
20
0.246421304945278
30
0.955687872427702
11
0.261739508858104
21
0.282943938622999
31
1.076995681113
12
0.247826150265117
22
0.278596017847585
32
1.08743002483249
13
0.247826150265117
23
0.278596017847585
33
1.08743002483249
70
0
  0
3DFACE
 8
sk
10
0.269275943222423
20
0.295263040421533
30
1.06337112514377
11
0.254058291664501
21
0.283668575684356
31
1.08714050762057
12
0.261739508858104
22
0.282943938622999
32
1.076995681113
13
0.261739508858104
23
0.282943938622999
33
1.076995681113
70
0
  0
3DFACE
 8
sk
10
0.251014606323619
20
0.319901219038295
30
1.05337115413547
11
0.254058291664501
21
0.283668575684356
31
1.08714050762057
12
0.269275943222423
22
0.295263040421533
32
1.06337112514377
13
0.269275943222423
23
0.295263040421533
33
1.06337112514377
70
0
  0
3DFACE
 8
sk
10
0.254058291664501
20
0.283668575684356
30
1.08714050762057
11
0.251014606323619
21
0.319901219038295
31
1.05337115413547
12
0.228695377579113
22
0.317872267059612
32
1.07467673351169
13
0.228695377579113
23
0.317872267059612
33
1.07467673351169
70
0
  0
3DFACE
 8
sk
10
0.251014606323619
20
0.319901219038295
30
1.05337115413547
11
0.230144695606609
21
0.325698515371608
31
1.06119945537448
12
0.228695377579113
22
0.317872267059612
32
1.07467673351169
13
0.228695377579113
23
0.317872267059612
33
1.07467673351169
70
0
  0
3DFACE
 8
sk
10
0.230144695606609
20
0.325698515371608
30
1.06119945537448
11
0.220289253082653
21
0.316277908829975
31
1.07380798808932
12
0.228695377579113
22
0.317872267059612
32
1.07467673351169
13
0.228695377579113
23
0.317872267059612
33
1.07467673351169
70
0
  0
3DFACE
 8
sk
10
0.219129997291942
20
0.327437653402614
30
1.04554546901584
11
0.198839714470287
21
0.290045531085183
31
1.06540065242648
12
0.220289253082653
22
0.316277908829975
32
1.07380798808932
13
0.220289253082653
23
0.316277908829975
33
1.07380798808932
70
0
  0
3DFACE
 8
sk
10
0.196085837021251
20
0.276856829098987
30
1.05685098049045
11
0.20434693645515
21
0.279755451528358
31
1.08062026607394
12
0.198839714470287
22
0.290045531085183
32
1.06540065242648
13
0.198839714470287
23
0.290045531085183
33
1.06540065242648
70
0
  0
3DFACE
 8
sk
10
0.216666194191356
20
0.263668156770992
30
1.07467673351169
11
0.217970487156292
21
0.268450851456451
31
1.08540311366916
12
0.20434693645515
22
0.279755451528358
32
1.08062026607394
13
0.20434693645515
23
0.279755451528358
33
1.08062026607394
70
0
  0
3DFACE
 8
sk
10
0.196085837021251
20
0.276856829098987
30
1.05685098049045
11
0.216666194191356
21
0.263668156770992
31
1.07467673351169
12
0.20434693645515
22
0.279755451528358
32
1.08062026607394
13
0.20434693645515
23
0.279755451528358
33
1.08062026607394
70
0
  0
3DFACE
 8
sk
10
0.218984960117717
20
0.278016287760067
30
1.0922128724277
11
0.217970487156292
21
0.268450851456451
31
1.08540311366916
12
0.228260532513042
22
0.264247784666347
32
1.07612703258395
13
0.228260532513042
23
0.264247784666347
33
1.07612703258395
70
0
  0
3DFACE
 8
sk
10
0.241449226036449
20
0.284828034723925
30
1.09395278560519
11
0.218984960117717
21
0.278016287760067
31
1.0922128724277
12
0.247826150265117
22
0.278596017847585
32
1.08743002483249
13
0.247826150265117
23
0.278596017847585
33
1.08743002483249
70
0
  0
3DFACE
 8
sk
10
0.247826150265117
20
0.278596017847585
30
1.08743002483249
11
0.218984960117717
21
0.278016287760067
31
1.0922128724277
12
0.228260532513042
22
0.264247784666347
32
1.07612703258395
13
0.228260532513042
23
0.264247784666347
33
1.07612703258395
70
0
  0
3DFACE
 8
sk
10
0.241449226036449
20
0.284828034723925
30
1.09395278560519
11
0.247826150265117
21
0.278596017847585
31
1.08743002483249
12
0.254058291664501
22
0.283668575684356
32
1.08714050762057
13
0.254058291664501
23
0.283668575684356
33
1.08714050762057
70
0
  0
3DFACE
 8
sk
10
0.225361884346386
20
0.305553113786506
30
1.08627176219821
11
0.241449226036449
21
0.284828034723925
31
1.09395278560519
12
0.254058291664501
22
0.283668575684356
32
1.08714050762057
13
0.254058291664501
23
0.283668575684356
33
1.08714050762057
70
0
  0
3DFACE
 8
sk
10
0.228695377579113
20
0.317872267059612
30
1.07467673351169
11
0.225361884346386
21
0.305553113786506
31
1.08627176219821
12
0.254058291664501
22
0.283668575684356
32
1.08714050762057
13
0.254058291664501
23
0.283668575684356
33
1.08714050762057
70
0
  0
3DFACE
 8
sk
10
0.228695377579113
20
0.317872267059612
30
1.07467673351169
11
0.220289253082653
21
0.316277908829975
31
1.07380798808932
12
0.225361884346386
22
0.305553113786506
32
1.08627176219821
13
0.225361884346386
23
0.305553113786506
33
1.08627176219821
70
0
  0
3DFACE
 8
sk
10
0.198839714470287
20
0.290045531085183
30
1.06540065242648
11
0.212897843780895
21
0.286567198113727
31
1.08916993800998
12
0.225361884346386
22
0.305553113786506
32
1.08627176219821
13
0.225361884346386
23
0.305553113786506
33
1.08627176219821
70
0
  0
3DFACE
 8
sk
10
0.198839714470287
20
0.290045531085183
30
1.06540065242648
11
0.225361884346386
21
0.305553113786506
31
1.08627176219821
12
0.220289253082653
22
0.316277908829975
32
1.07380798808932
13
0.220289253082653
23
0.316277908829975
33
1.07380798808932
70
0
  0
3DFACE
 8
sk
10
0.198839714470287
20
0.290045531085183
30
1.06540065242648
11
0.20434693645515
21
0.279755451528358
31
1.08062026607394
12
0.212897843780895
22
0.286567198113727
32
1.08916993800998
13
0.212897843780895
23
0.286567198113727
33
1.08916993800998
70
0
  0
3DFACE
 8
sk
10
0.217970487156292
20
0.268450851456451
30
1.08540311366916
11
0.218984960117717
21
0.278016287760067
31
1.0922128724277
12
0.212897843780895
22
0.286567198113727
32
1.08916993800998
13
0.212897843780895
23
0.286567198113727
33
1.08916993800998
70
0
  0
3DFACE
 8
sk
10
0.212897843780895
20
0.286567198113727
30
1.08916993800998
11
0.20434693645515
21
0.279755451528358
31
1.08062026607394
12
0.217970487156292
22
0.268450851456451
32
1.08540311366916
13
0.217970487156292
23
0.268450851456451
33
1.08540311366916
70
0
  0
3DFACE
 8
sk
10
0.227391084614177
20
0.291494838568198
30
1.09438706142306
11
0.218984960117717
21
0.278016287760067
31
1.0922128724277
12
0.241449226036449
22
0.284828034723925
32
1.09395278560519
13
0.241449226036449
23
0.284828034723925
33
1.09395278560519
70
0
  0
3DFACE
 8
sk
10
0.225361884346386
20
0.305553113786506
30
1.08627176219821
11
0.227391084614177
21
0.291494838568198
31
1.09438706142306
12
0.241449226036449
22
0.284828034723925
32
1.09395278560519
13
0.241449226036449
23
0.284828034723925
33
1.09395278560519
70
0
  0
3DFACE
 8
sk
10
0.225361884346386
20
0.305553113786506
30
1.08627176219821
11
0.212897843780895
21
0.286567198113727
31
1.08916993800998
12
0.227391084614177
22
0.291494838568198
32
1.09438706142306
13
0.227391084614177
23
0.291494838568198
33
1.09438706142306
70
0
  0
3DFACE
 8
sk
10
0.227391084614177
20
0.291494838568198
30
1.09438706142306
11
0.212897843780895
21
0.286567198113727
31
1.08916993800998
12
0.218984960117717
22
0.278016287760067
32
1.0922128724277
13
0.218984960117717
23
0.278016287760067
33
1.0922128724277
70
0
 0
ENDSEC
 0
EOF
