 0
SECTION
 2
ENTITIES
  0
3DFACE
 8
sk
10
0.241669948997875
20
0.263570875887203
30
1.23446300746799
11
0.234278551807781
21
0.266034650222587
31
1.24707154018283
12
0.226452297439952
22
0.265309988180923
32
1.24576851894259
13
0.226452297439952
23
0.265309988180923
33
1.24576851894259
70
0
  0
3DFACE
 8
sk
10
0.226452297439952
20
0.265309988180923
30
1.24576851894259
11
0.212828758850475
21
0.266469448355961
31
1.24388384715915
12
0.214712934055706
22
0.262411365751552
32
1.23301270839572
13
0.214712934055706
23
0.262411365751552
33
1.23301270839572
70
0
  0
3DFACE
 8
sk
10
0.241669948997875
20
0.263570875887203
30
1.23446300746799
11
0.226452297439952
21
0.265309988180923
31
1.24576851894259
12
0.214712934055706
22
0.262411365751552
32
1.23301270839572
13
0.214712934055706
23
0.262411365751552
33
1.23301270839572
70
0
  0
3DFACE
 8
sk
10
0.214712934055706
20
0.262411365751552
30
1.23301270839572
11
0.212828758850475
21
0.266469448355961
31
1.24388384715915
12
0.200074910393138
22
0.275889951948452
32
1.24084091274142
13
0.200074910393138
23
0.275889951948452
33
1.24084091274142
70
0
  0
3DFACE
 8
sk
10
0.200074910393138
20
0.275889951948452
30
1.24084091274142
11
0.186016514625927
21
0.28516549898498
31
1.23779545909762
12
0.187755652656932
22
0.292556972629952
32
1.22721635677218
13
0.187755652656932
23
0.292556972629952
33
1.22721635677218
70
0
  0
3DFACE
 8
sk
10
0.187755652656932
20
0.292556972629952
30
1.22721635677218
11
0.186016514625927
21
0.28516549898498
31
1.23779545909762
12
0.178914937439342
22
0.299513653818893
32
1.23678205196261
13
0.178914937439342
23
0.299513653818893
33
1.23678205196261
70
0
  0
3DFACE
 8
sk
10
0.199350245323558
20
0.332847597531604
30
1.22649246684909
11
0.178914937439342
21
0.299513653818893
31
1.23678205196261
12
0.18384253152885
22
0.315890810970592
32
1.23707156917453
13
0.18384253152885
23
0.315890810970592
33
1.23707156917453
70
0
  0
3DFACE
 8
sk
10
0.199350245323558
20
0.332847597531604
30
1.22649246684909
11
0.187755652656932
21
0.292556972629952
31
1.22721635677218
12
0.178914937439342
22
0.299513653818893
32
1.23678205196261
13
0.178914937439342
23
0.299513653818893
33
1.23678205196261
70
0
  0
3DFACE
 8
sk
10
0.199350245323558
20
0.332847597531604
30
1.22649246684909
11
0.18384253152885
21
0.315890810970592
31
1.23707156917453
12
0.191958848133464
22
0.328209811333942
32
1.23837710964084
13
0.191958848133464
23
0.328209811333942
33
1.23837710964084
70
0
  0
3DFACE
 8
sk
10
0.204857479420086
20
0.337630417875576
30
1.24084091274142
11
0.199350245323558
21
0.332847597531604
31
1.22649246684909
12
0.191958848133464
22
0.328209811333942
32
1.23837710964084
13
0.191958848133464
23
0.328209811333942
33
1.23837710964084
70
0
  0
3DFACE
 8
sk
10
0.246597555199047
20
0.337920231823253
30
1.17547658855319
11
0.217031699982067
21
0.341833359007168
31
1.24287044002414
12
0.229060883369823
22
0.341688576177883
32
1.24373908855319
13
0.229060883369823
23
0.341688576177883
33
1.24373908855319
70
0
  0
3DFACE
 8
sk
10
0.246597555199047
20
0.337920231823253
30
1.17547658855319
11
0.229060883369823
21
0.341688576177883
31
1.24373908855319
12
0.240075593796154
22
0.338934707812595
32
1.24417346126437
13
0.240075593796154
23
0.338934707812595
33
1.24417346126437
70
0
  0
3DFACE
 8
sk
10
0.260076056614299
20
0.325456197313595
30
1.23142007305026
11
0.240075593796154
21
0.338934707812595
31
1.24417346126437
12
0.248626755466838
22
0.33212293548994
32
1.24431821987033
13
0.248626755466838
23
0.33212293548994
33
1.24431821987033
70
0
  0
3DFACE
 8
sk
10
0.260076056614299
20
0.325456197313595
30
1.23142007305026
11
0.246597555199047
21
0.337920231823253
31
1.17547658855319
12
0.240075593796154
22
0.338934707812595
32
1.24417346126437
13
0.240075593796154
23
0.338934707812595
33
1.24417346126437
70
0
  0
3DFACE
 8
sk
10
0.260076056614299
20
0.325456197313595
30
1.23142007305026
11
0.248626755466838
21
0.33212293548994
31
1.24431821987033
12
0.255873127594371
22
0.32110822506361
32
1.24576851894259
13
0.255873127594371
23
0.32110822506361
33
1.24576851894259
70
0
  0
3DFACE
 8
sk
10
0.267757528152843
20
0.307194969419765
30
1.23272309429049
11
0.255873127594371
21
0.32110822506361
31
1.24576851894259
12
0.260221093788524
22
0.311542890195179
32
1.24750591289401
13
0.260221093788524
23
0.311542890195179
33
1.24750591289401
70
0
  0
3DFACE
 8
sk
10
0.260076056614299
20
0.325456197313595
30
1.23142007305026
11
0.255873127594371
21
0.32110822506361
31
1.24576851894259
12
0.267757528152843
22
0.307194969419765
32
1.23272309429049
13
0.267757528152843
23
0.307194969419765
33
1.23272309429049
70
0
  0
3DFACE
 8
sk
10
0.267757528152843
20
0.307194969419765
30
1.23272309429049
11
0.260221093788524
21
0.311542890195179
31
1.24750591289401
12
0.264134214916606
22
0.30110788487606
32
1.24852193614841
13
0.264134214916606
23
0.30110788487606
33
1.24852193614841
70
0
  0
3DFACE
 8
sk
10
0.267757528152843
20
0.307194969419765
30
1.23272309429049
11
0.264134214916606
21
0.30110788487606
31
1.24852193614841
12
0.262395076885601
22
0.294730935667085
32
1.24895621196628
13
0.262395076885601
23
0.294730935667085
33
1.24895621196628
70
0
  0
3DFACE
 8
sk
10
0.256018152656932
20
0.271976803569126
30
1.23417349025607
11
0.262395076885601
21
0.294730935667085
31
1.24895621196628
12
0.256452755489727
22
0.28516549898498
32
1.24910106746554
13
0.256452755489727
23
0.28516549898498
33
1.24910106746554
70
0
  0
3DFACE
 8
sk
10
0.267757528152843
20
0.307194969419765
30
1.23272309429049
11
0.262395076885601
21
0.294730935667085
31
1.24895621196628
12
0.256018152656932
22
0.271976803569126
32
1.23417349025607
13
0.256018152656932
23
0.271976803569126
33
1.23417349025607
70
0
  0
3DFACE
 8
sk
10
0.256018152656932
20
0.271976803569126
30
1.23417349025607
11
0.256452755489727
21
0.28516549898498
31
1.24910106746554
12
0.251090558567424
22
0.278208820066976
32
1.24910106746554
13
0.251090558567424
23
0.278208820066976
33
1.24910106746554
70
0
  0
3DFACE
 8
sk
10
0.241669948997875
20
0.263570875887203
30
1.23446300746799
11
0.251090558567424
21
0.278208820066976
31
1.24910106746554
12
0.247322208156963
22
0.27067243642025
32
1.24852193614841
13
0.247322208156963
23
0.27067243642025
33
1.24852193614841
70
0
  0
3DFACE
 8
sk
10
0.256018152656932
20
0.271976803569126
30
1.23417349025607
11
0.251090558567424
21
0.278208820066976
31
1.24910106746554
12
0.241669948997875
22
0.263570875887203
32
1.23446300746799
13
0.241669948997875
23
0.263570875887203
33
1.23446300746799
70
0
  0
3DFACE
 8
sk
10
0.247322208156963
20
0.27067243642025
30
1.24852193614841
11
0.24109032110252
21
0.268643408743667
31
1.24808756343722
12
0.241669948997875
22
0.263570875887203
32
1.23446300746799
13
0.241669948997875
23
0.263570875887203
33
1.23446300746799
70
0
  0
3DFACE
 8
sk
10
0.241669948997875
20
0.263570875887203
30
1.23446300746799
11
0.24109032110252
21
0.268643408743667
31
1.24808756343722
12
0.234278551807781
22
0.266034650222587
32
1.24707154018283
13
0.234278551807781
23
0.266034650222587
33
1.24707154018283
70
0
  0
3DFACE
 8
sk
10
0.197466082229992
20
0.289658357628438
30
1.04083626033664
11
0.198190735187908
21
0.275889951948452
31
1.04416871196628
12
0.188480317726513
22
0.290817804130542
32
1.19634527599216
13
0.188480317726513
23
0.290817804130542
33
1.19634527599216
70
0
  0
3DFACE
 8
sk
10
0.198190735187908
20
0.275889951948452
30
1.04416871196628
11
0.214712934055706
21
0.262411365751552
31
1.23301270839572
12
0.188480317726513
22
0.290817804130542
32
1.19634527599216
13
0.188480317726513
23
0.290817804130542
33
1.19634527599216
70
0
  0
3DFACE
 8
sk
10
0.198190735187908
20
0.275889951948452
30
1.04416871196628
11
0.206886679687877
21
0.265454920892048
31
1.0482276696384
12
0.214712934055706
22
0.262411365751552
32
1.23301270839572
13
0.214712934055706
23
0.262411365751552
33
1.23301270839572
70
0
  0
3DFACE
 8
sk
10
0.266163172951122
20
0.283861132593083
30
1.07808282405734
11
0.260366130962749
21
0.283716200260448
31
1.14402627956271
12
0.246887363090892
22
0.263281061939525
32
1.10866438762546
13
0.246887363090892
23
0.263281061939525
33
1.10866438762546
70
0
  0
3DFACE
 8
sk
10
0.270221319141765
20
0.294006273625421
30
1.05069147273898
11
0.260366130962749
21
0.283716200260448
31
1.14402627956271
12
0.266163172951122
22
0.283861132593083
32
1.07808282405734
13
0.266163172951122
23
0.283861132593083
33
1.07808282405734
70
0
  0
3DFACE
 8
sk
10
0.270221319141765
20
0.294006273625421
30
1.05069147273898
11
0.246597555199047
21
0.337920231823253
31
1.17547658855319
12
0.260366130962749
22
0.283716200260448
32
1.14402627956271
13
0.260366130962749
23
0.283716200260448
33
1.14402627956271
70
0
  0
3DFACE
 8
sk
10
0.246597555199047
20
0.337920231823253
30
1.17547658855319
11
0.23311904167213
21
0.328065031532573
31
1.03663254405856
12
0.227176962509533
22
0.344442187170315
32
1.17533182994723
13
0.227176962509533
23
0.344442187170315
33
1.17533182994723
70
0
  0
3DFACE
 8
sk
10
0.23311904167213
20
0.328065031532573
30
1.03663254405856
11
0.220365193214794
21
0.325746011261272
31
1.03518476421237
12
0.227176962509533
22
0.344442187170315
32
1.17533182994723
13
0.227176962509533
23
0.344442187170315
33
1.17533182994723
70
0
  0
3DFACE
 8
sk
10
0.220365193214794
20
0.325746011261272
30
1.03518476421237
11
0.197466082229992
21
0.289658357628438
31
1.04083626033664
12
0.188480317726513
22
0.290817804130542
32
1.19634527599216
13
0.188480317726513
23
0.290817804130542
33
1.19634527599216
70
0
  0
3DFACE
 8
sk
10
0.266163172951122
20
0.283861132593083
30
1.07808282405734
11
0.246887363090892
21
0.263281061939525
31
1.10866438762546
12
0.230220393505474
22
0.259512717584896
32
1.07648766948581
13
0.230220393505474
23
0.259512717584896
33
1.07648766948581
70
0
  0
3DFACE
 8
sk
10
0.230220393505474
20
0.259512717584896
30
1.07648766948581
11
0.214712934055706
21
0.262411365751552
31
1.23301270839572
12
0.206886679687877
22
0.265454920892048
32
1.0482276696384
13
0.206886679687877
23
0.265454920892048
33
1.0482276696384
70
0
  0
3DFACE
 8
sk
10
0.214712934055706
20
0.262411365751552
30
1.23301270839572
11
0.200074910393138
21
0.275889951948452
31
1.24084091274142
12
0.188480317726513
22
0.290817804130542
32
1.19634527599216
13
0.188480317726513
23
0.290817804130542
33
1.19634527599216
70
0
  0
3DFACE
 8
sk
10
0.241669948997875
20
0.263570875887203
30
1.23446300746799
11
0.214712934055706
21
0.262411365751552
31
1.23301270839572
12
0.230220393505474
22
0.259512717584896
32
1.07648766948581
13
0.230220393505474
23
0.259512717584896
33
1.07648766948581
70
0
  0
3DFACE
 8
sk
10
0.246887363090892
20
0.263281061939525
30
1.10866438762546
11
0.241669948997875
21
0.263570875887203
31
1.23446300746799
12
0.230220393505474
22
0.259512717584896
32
1.07648766948581
13
0.230220393505474
23
0.259512717584896
33
1.07648766948581
70
0
  0
3DFACE
 8
sk
10
0.256018152656932
20
0.271976803569126
30
1.23417349025607
11
0.241669948997875
21
0.263570875887203
31
1.23446300746799
12
0.246887363090892
22
0.263281061939525
32
1.10866438762546
13
0.246887363090892
23
0.263281061939525
33
1.10866438762546
70
0
  0
3DFACE
 8
sk
10
0.260366130962749
20
0.283716200260448
30
1.14402627956271
11
0.267757528152843
21
0.307194969419765
31
1.23272309429049
12
0.256018152656932
22
0.271976803569126
32
1.23417349025607
13
0.256018152656932
23
0.271976803569126
33
1.23417349025607
70
0
  0
3DFACE
 8
sk
10
0.246597555199047
20
0.337920231823253
30
1.17547658855319
11
0.260076056614299
21
0.325456197313595
31
1.23142007305026
12
0.267757528152843
22
0.307194969419765
32
1.23272309429049
13
0.267757528152843
23
0.307194969419765
33
1.23272309429049
70
0
  0
3DFACE
 8
sk
10
0.260366130962749
20
0.283716200260448
30
1.14402627956271
11
0.246597555199047
21
0.337920231823253
31
1.17547658855319
12
0.267757528152843
22
0.307194969419765
32
1.23272309429049
13
0.267757528152843
23
0.307194969419765
33
1.23272309429049
70
0
  0
3DFACE
 8
sk
10
0.227176962509533
20
0.344442187170315
30
1.17533182994723
11
0.204857479420086
21
0.337630417875576
31
1.24084091274142
12
0.217031699982067
22
0.341833359007168
32
1.24287044002414
13
0.217031699982067
23
0.341833359007168
33
1.24287044002414
70
0
  0
3DFACE
 8
sk
10
0.227176962509533
20
0.344442187170315
30
1.17533182994723
11
0.199350245323558
21
0.332847597531604
31
1.22649246684909
12
0.204857479420086
22
0.337630417875576
32
1.24084091274142
13
0.204857479420086
23
0.337630417875576
33
1.24084091274142
70
0
  0
3DFACE
 8
sk
10
0.227176962509533
20
0.344442187170315
30
1.17533182994723
11
0.220365193214794
21
0.325746011261272
31
1.03518476421237
12
0.199350245323558
22
0.332847597531604
32
1.22649246684909
13
0.199350245323558
23
0.332847597531604
33
1.22649246684909
70
0
  0
3DFACE
 8
sk
10
0.220365193214794
20
0.325746011261272
30
1.03518476421237
11
0.188480317726513
21
0.290817804130542
31
1.19634527599216
12
0.199350245323558
22
0.332847597531604
32
1.22649246684909
13
0.199350245323558
23
0.332847597531604
33
1.22649246684909
70
0
  0
3DFACE
 8
sk
10
0.188480317726513
20
0.290817804130542
30
1.19634527599216
11
0.200074910393138
21
0.275889951948452
31
1.24084091274142
12
0.187755652656932
22
0.292556972629952
32
1.22721635677218
13
0.187755652656932
23
0.292556972629952
33
1.22721635677218
70
0
  0
3DFACE
 8
sk
10
0.246597555199047
20
0.337920231823253
30
1.17547658855319
11
0.227176962509533
21
0.344442187170315
31
1.17533182994723
12
0.217031699982067
22
0.341833359007168
32
1.24287044002414
13
0.217031699982067
23
0.341833359007168
33
1.24287044002414
70
0
  0
3DFACE
 8
sk
10
0.246887363090892
20
0.263281061939525
30
1.10866438762546
11
0.260366130962749
21
0.283716200260448
31
1.14402627956271
12
0.256018152656932
22
0.271976803569126
32
1.23417349025607
13
0.256018152656932
23
0.271976803569126
33
1.23417349025607
70
0
  0
3DFACE
 8
sk
10
0.188480317726513
20
0.290817804130542
30
1.19634527599216
11
0.187755652656932
21
0.292556972629952
31
1.22721635677218
12
0.199350245323558
22
0.332847597531604
32
1.22649246684909
13
0.199350245323558
23
0.332847597531604
33
1.22649246684909
70
0
  0
3DFACE
 8
sk
10
0.251959994354625
20
0.318209831241894
30
1.04184976436496
11
0.23311904167213
21
0.328065031532573
31
1.03663254405856
12
0.246597555199047
22
0.337920231823253
32
1.17547658855319
13
0.246597555199047
23
0.337920231823253
33
1.17547658855319
70
0
  0
3DFACE
 8
sk
10
0.251959994354625
20
0.318209831241894
30
1.04184976436496
11
0.246597555199047
21
0.337920231823253
31
1.17547658855319
12
0.270221319141765
22
0.294006273625421
32
1.05069147273898
13
0.270221319141765
23
0.294006273625421
33
1.05069147273898
70
0
  0
3DFACE
 8
sk
10
0.270221319141765
20
0.294006273625421
30
1.05069147273898
11
0.266163172951122
21
0.283861132593083
31
1.07808282405734
12
0.268482193222423
22
0.282121969203281
32
1.05344479305148
13
0.268482193222423
23
0.282121969203281
33
1.05344479305148
70
0
  0
3DFACE
 8
sk
10
0.268482193222423
20
0.282121969203281
30
1.05344479305148
11
0.266163172951122
21
0.283861132593083
31
1.07808282405734
12
0.230220393505474
22
0.259512717584896
32
1.07648766948581
13
0.230220393505474
23
0.259512717584896
33
1.07648766948581
70
0
  0
3DFACE
 8
sk
10
0.23311904167213
20
0.328065031532573
30
1.03663254405856
11
0.24152491182365
21
0.314876310757923
31
1.03040191661716
12
0.220365193214794
22
0.325746011261272
32
1.03518476421237
13
0.220365193214794
23
0.325746011261272
33
1.03518476421237
70
0
  0
3DFACE
 8
sk
10
0.23311904167213
20
0.328065031532573
30
1.03663254405856
11
0.251959994354625
21
0.318209831241894
31
1.04184976436496
12
0.24152491182365
22
0.314876310757923
32
1.03040191661716
13
0.24152491182365
23
0.314876310757923
33
1.03040191661716
70
0
  0
3DFACE
 8
sk
10
0.24152491182365
20
0.314876310757923
30
1.03040191661716
11
0.270221319141765
21
0.294006273625421
31
1.05069147273898
12
0.26340956195869
22
0.291397526080537
32
1.03953071987033
13
0.26340956195869
23
0.291397526080537
33
1.03953071987033
70
0
  0
3DFACE
 8
sk
10
0.251959994354625
20
0.318209831241894
30
1.04184976436496
11
0.270221319141765
21
0.294006273625421
31
1.05069147273898
12
0.24152491182365
22
0.314876310757923
32
1.03040191661716
13
0.24152491182365
23
0.314876310757923
33
1.03040191661716
70
0
  0
3DFACE
 8
sk
10
0.26340956195869
20
0.291397526080537
30
1.03953071987033
11
0.268482193222423
21
0.282121969203281
31
1.05344479305148
12
0.262105268993755
22
0.282121969203281
32
1.04156015025973
13
0.262105268993755
23
0.282121969203281
33
1.04156015025973
70
0
  0
3DFACE
 8
sk
10
0.26340956195869
20
0.291397526080537
30
1.03953071987033
11
0.270221319141765
21
0.294006273625421
31
1.05069147273898
12
0.268482193222423
22
0.282121969203281
32
1.05344479305148
13
0.268482193222423
23
0.282121969203281
33
1.05344479305148
70
0
  0
3DFACE
 8
sk
10
0.262105268993755
20
0.282121969203281
30
1.04156015025973
11
0.230220393505474
21
0.259512717584896
31
1.07648766948581
12
0.2221043312458
22
0.265744786314296
32
1.03953071987033
13
0.2221043312458
23
0.265744786314296
33
1.03953071987033
70
0
  0
3DFACE
 8
sk
10
0.268482193222423
20
0.282121969203281
30
1.05344479305148
11
0.230220393505474
21
0.259512717584896
31
1.07648766948581
12
0.262105268993755
22
0.282121969203281
32
1.04156015025973
13
0.262105268993755
23
0.282121969203281
33
1.04156015025973
70
0
  0
3DFACE
 8
sk
10
0.230220393505474
20
0.259512717584896
30
1.07648766948581
11
0.206886679687877
21
0.265454920892048
31
1.0482276696384
12
0.2221043312458
22
0.265744786314296
32
1.03953071987033
13
0.2221043312458
23
0.265744786314296
33
1.03953071987033
70
0
  0
3DFACE
 8
sk
10
0.2221043312458
20
0.265744786314296
30
1.03953071987033
11
0.198190735187908
21
0.275889951948452
31
1.04416871196628
12
0.207031462517162
22
0.277339250294494
32
1.0344583550632
13
0.207031462517162
23
0.277339250294494
33
1.0344583550632
70
0
  0
3DFACE
 8
sk
10
0.198190735187908
20
0.275889951948452
30
1.04416871196628
11
0.2221043312458
21
0.265744786314296
31
1.03953071987033
12
0.206886679687877
22
0.265454920892048
32
1.0482276696384
13
0.206886679687877
23
0.265454920892048
33
1.0482276696384
70
0
  0
3DFACE
 8
sk
10
0.206596617451091
20
0.287919189081716
30
1.03170493785739
11
0.207031462517162
21
0.277339250294494
31
1.0344583550632
12
0.197466082229992
22
0.289658357628438
32
1.04083626033664
13
0.197466082229992
23
0.289658357628438
33
1.04083626033664
70
0
  0
3DFACE
 8
sk
10
0.207031462517162
20
0.277339250294494
30
1.0344583550632
11
0.198190735187908
21
0.275889951948452
31
1.04416871196628
12
0.197466082229992
22
0.289658357628438
32
1.04083626033664
13
0.197466082229992
23
0.289658357628438
33
1.04083626033664
70
0
  0
3DFACE
 8
sk
10
0.220365193214794
20
0.325746011261272
30
1.03518476421237
11
0.206596617451091
21
0.287919189081716
31
1.03170493785739
12
0.197466082229992
22
0.289658357628438
32
1.04083626033664
13
0.197466082229992
23
0.289658357628438
33
1.04083626033664
70
0
  0
3DFACE
 8
sk
10
0.220365193214794
20
0.325746011261272
30
1.03518476421237
11
0.24152491182365
21
0.314876310757923
31
1.03040191661716
12
0.227466782513042
22
0.297484626142311
32
1.02460314266086
13
0.227466782513042
23
0.297484626142311
33
1.02460314266086
70
0
  0
3DFACE
 8
sk
10
0.24152491182365
20
0.314876310757923
30
1.03040191661716
11
0.239495965900798
21
0.28009294076972
31
1.03083628932834
12
0.227466782513042
22
0.297484626142311
32
1.02460314266086
13
0.227466782513042
23
0.297484626142311
33
1.02460314266086
70
0
  0
3DFACE
 8
sk
10
0.24152491182365
20
0.314876310757923
30
1.03040191661716
11
0.26340956195869
21
0.291397526080537
31
1.03953071987033
12
0.239495965900798
22
0.28009294076972
32
1.03083628932834
13
0.239495965900798
23
0.28009294076972
33
1.03083628932834
70
0
  0
3DFACE
 8
sk
10
0.26340956195869
20
0.291397526080537
30
1.03953071987033
11
0.262105268993755
21
0.282121969203281
31
1.04156015025973
12
0.239495965900798
22
0.28009294076972
32
1.03083628932834
13
0.239495965900798
23
0.28009294076972
33
1.03083628932834
70
0
  0
3DFACE
 8
sk
10
0.262105268993755
20
0.282121969203281
30
1.04156015025973
11
0.2221043312458
21
0.265744786314296
31
1.03953071987033
12
0.239495965900798
22
0.28009294076972
32
1.03083628932834
13
0.239495965900798
23
0.28009294076972
33
1.03083628932834
70
0
  0
3DFACE
 8
sk
10
0.227466782513042
20
0.297484626142311
30
1.02460314266086
11
0.239495965900798
21
0.28009294076972
31
1.03083628932834
12
0.2221043312458
22
0.265744786314296
32
1.03953071987033
13
0.2221043312458
23
0.265744786314296
33
1.03953071987033
70
0
  0
3DFACE
 8
sk
10
0.227466782513042
20
0.297484626142311
30
1.02460314266086
11
0.2221043312458
21
0.265744786314296
31
1.03953071987033
12
0.207031462517162
22
0.277339250294494
32
1.0344583550632
13
0.207031462517162
23
0.277339250294494
33
1.0344583550632
70
0
  0
3DFACE
 8
sk
10
0.227466782513042
20
0.297484626142311
30
1.02460314266086
11
0.207031462517162
21
0.277339250294494
31
1.0344583550632
12
0.206596617451091
22
0.287919189081716
32
1.03170493785739
13
0.206596617451091
23
0.287919189081716
33
1.03170493785739
70
0
  0
3DFACE
 8
sk
10
0.220365193214794
20
0.325746011261272
30
1.03518476421237
11
0.227466782513042
21
0.297484626142311
31
1.02460314266086
12
0.206596617451091
22
0.287919189081716
32
1.03170493785739
13
0.206596617451091
23
0.287919189081716
33
1.03170493785739
70
0
 0
ENDSEC
 0
EOF
