 0
SECTION
 2
ENTITIES
  0
3DFACE
 8
sk
10
0.281642448559185
20
0.263773821954059
30
0.828723432272673
11
0.27236687616386
21
0.260440325693416
31
0.835969986075163
12
0.274975437870403
22
0.257831745819378
32
0.842347988241911
13
0.274975437870403
23
0.257831745819378
33
0.842347988241911
70
0
  0
3DFACE
 8
sk
10
0.27236687616386
20
0.260440325693416
30
0.835969986075163
11
0.267873860683818
21
0.24768647723608
31
0.839302534598112
12
0.274975437870403
22
0.257831745819378
32
0.842347988241911
13
0.274975437870403
23
0.257831745819378
33
0.842347988241911
70
0
  0
3DFACE
 8
sk
10
0.294831129970928
20
0.229280369619655
30
0.851621550101042
11
0.289758498707195
21
0.219859760050106
31
0.848578615683317
12
0.298309406032939
22
0.223193259338665
32
0.847999484366178
13
0.298309406032939
23
0.223193259338665
33
0.847999484366178
70
0
  0
3DFACE
 8
sk
10
0.297874573078533
20
0.252324263433742
30
0.839157775992155
11
0.294831129970928
21
0.229280369619655
31
0.851621550101042
12
0.298309406032939
22
0.223193259338665
32
0.847999484366178
13
0.298309406032939
23
0.223193259338665
33
0.847999484366178
70
0
  0
3DFACE
 8
sk
10
0.297874573078533
20
0.252324263433742
30
0.839157775992155
11
0.290338138714214
21
0.262614311818409
31
0.828578673666716
12
0.288164143505474
22
0.259570883850384
32
0.842203229635954
13
0.288164143505474
23
0.259570883850384
33
0.842203229635954
70
0
  0
3DFACE
 8
sk
10
0.288164143505474
20
0.259570883850384
30
0.842203229635954
11
0.281642448559185
21
0.263773821954059
31
0.828723432272673
12
0.274975437870403
22
0.257831745819378
32
0.842347988241911
13
0.274975437870403
23
0.257831745819378
33
0.842347988241911
70
0
  0
3DFACE
 8
sk
10
0.290338138714214
20
0.262614311818409
30
0.828578673666716
11
0.281642448559185
21
0.263773821954059
31
0.828723432272673
12
0.288164143505474
22
0.259570883850384
32
0.842203229635954
13
0.288164143505474
23
0.259570883850384
33
0.842203229635954
70
0
  0
3DFACE
 8
sk
10
0.274975437870403
20
0.257831745819378
30
0.842347988241911
11
0.267873860683818
21
0.24768647723608
31
0.839302534598112
12
0.283671394482036
22
0.245367711309719
32
0.851042418783903
13
0.283671394482036
23
0.245367711309719
33
0.851042418783903
70
0
  0
3DFACE
 8
sk
10
0.267873860683818
20
0.24768647723608
30
0.839302534598112
11
0.271497161808391
21
0.230439879755306
31
0.844230140799284
12
0.283671394482036
22
0.245367711309719
32
0.851042418783903
13
0.283671394482036
23
0.245367711309719
33
0.851042418783903
70
0
  0
3DFACE
 8
sk
10
0.283671394482036
20
0.245367711309719
30
0.851042418783903
11
0.271497161808391
21
0.230439879755306
31
0.844230140799284
12
0.289758498707195
22
0.219859760050106
32
0.848578615683317
13
0.289758498707195
23
0.219859760050106
33
0.848578615683317
70
0
  0
3DFACE
 8
sk
10
0.283671394482036
20
0.245367711309719
30
0.851042418783903
11
0.289758498707195
21
0.219859760050106
31
0.848578615683317
12
0.294831129970928
22
0.229280369619655
32
0.851621550101042
13
0.294831129970928
23
0.229280369619655
33
0.851621550101042
70
0
  0
3DFACE
 8
sk
10
0.297874573078533
20
0.252324263433742
30
0.839157775992155
11
0.283671394482036
21
0.245367711309719
31
0.851042418783903
12
0.294831129970928
22
0.229280369619655
32
0.851621550101042
13
0.294831129970928
23
0.229280369619655
33
0.851621550101042
70
0
  0
3DFACE
 8
sk
10
0.288164143505474
20
0.259570883850384
30
0.842203229635954
11
0.283671394482036
21
0.245367711309719
31
0.851042418783903
12
0.297874573078533
22
0.252324263433742
32
0.839157775992155
13
0.297874573078533
23
0.252324263433742
33
0.839157775992155
70
0
  0
3DFACE
 8
sk
10
0.288164143505474
20
0.259570883850384
30
0.842203229635954
11
0.274975437870403
21
0.257831745819378
31
0.842347988241911
12
0.283671394482036
22
0.245367711309719
32
0.851042418783903
13
0.283671394482036
23
0.245367711309719
33
0.851042418783903
70
0
  0
3DFACE
 8
sk
10
0.303382037296672
20
0.198844818214702
30
0.754230304831266
11
0.294831129970928
21
0.197395494131374
31
0.752345633047819
12
0.295410769977947
22
0.195511573271084
32
0.747707592505217
13
0.295410769977947
23
0.195511573271084
33
0.747707592505217
70
0
  0
3DFACE
 8
sk
10
0.292657158985515
20
0.238266128067302
30
0.750460912817717
11
0.289323641529461
21
0.236526990036297
31
0.748721048086882
12
0.289178616466899
22
0.236526990036297
32
0.746112437933683
13
0.289178616466899
23
0.236526990036297
33
0.746112437933683
70
0
  0
3DFACE
 8
sk
10
0.263381111660381
20
0.221019270185756
30
0.709445005530119
11
0.262076564350505
21
0.220294611172008
31
0.711040111654997
12
0.261351899280925
22
0.22377288723402
32
0.711040111654997
13
0.261351899280925
23
0.22377288723402
33
0.711040111654997
70
0
  0
3DFACE
 8
sk
10
0.262511409416576
20
0.227396194414425
30
0.710026656073332
11
0.263381111660381
21
0.221019270185756
31
0.709445005530119
12
0.261351899280925
22
0.22377288723402
32
0.711040111654997
13
0.261351899280925
23
0.22377288723402
33
0.711040111654997
70
0
  0
3DFACE
 8
sk
10
0.262511409416576
20
0.227396194414425
30
0.710026656073332
11
0.267729077854534
21
0.231599135546016
31
0.721764021033049
12
0.266569567718883
22
0.233773118643093
32
0.71669165622592
13
0.266569567718883
23
0.233773118643093
33
0.71669165622592
70
0
  0
3DFACE
 8
sk
10
0.262511409416576
20
0.227396194414425
30
0.710026656073332
11
0.261351899280925
21
0.22377288723402
31
0.711040111654997
12
0.267729077854534
22
0.231599135546016
32
0.721764021033049
13
0.267729077854534
23
0.231599135546016
33
0.721764021033049
70
0
  0
3DFACE
 8
sk
10
0.269758035889049
20
0.236526990036297
30
0.720460999792814
11
0.269033370819469
21
0.234207969764995
31
0.715388634985685
12
0.266569567718883
22
0.233773118643093
32
0.71669165622592
13
0.266569567718883
23
0.233773118643093
33
0.71669165622592
70
0
  0
3DFACE
 8
sk
10
0.279178379001995
20
0.244787829069423
30
0.730171405142546
11
0.269033370819469
21
0.234207969764995
31
0.715388634985685
12
0.269758035889049
22
0.236526990036297
32
0.720460999792814
13
0.269758035889049
23
0.236526990036297
33
0.720460999792814
70
0
  0
3DFACE
 8
sk
10
0.264250547447582
20
0.199424700454998
30
0.69234319087863
11
0.269178407993694
21
0.196960897354412
31
0.69234319087863
12
0.268018897858043
22
0.195946170048046
32
0.693648731344938
13
0.268018897858043
23
0.195946170048046
33
0.693648731344938
70
0
  0
3DFACE
 8
sk
10
0.300338351955791
20
0.217540994123745
30
0.753069522970915
11
0.295700577869793
21
0.208845049623775
31
0.732056076925993
12
0.293526582661052
22
0.212178548912334
32
0.743648634833097
13
0.293526582661052
23
0.212178548912334
33
0.743648634833097
70
0
  0
3DFACE
 8
sk
10
0.303237012234111
20
0.196526052288341
30
0.762056038397551
11
0.293091991939922
21
0.195656356100368
31
0.753938171499968
12
0.294831129970928
22
0.197395494131374
32
0.752345633047819
13
0.294831129970928
23
0.197395494131374
33
0.752345633047819
70
0
  0
3DFACE
 8
sk
10
0.303671869411846
20
0.199279663280773
30
0.761476907080412
11
0.294831129970928
21
0.197395494131374
31
0.752345633047819
12
0.303382037296672
22
0.198844818214702
32
0.754230304831266
13
0.303382037296672
23
0.198844818214702
33
0.754230304831266
70
0
  0
3DFACE
 8
sk
10
0.275410295048137
20
0.170583510307598
30
0.704083075064421
11
0.273381349125286
21
0.170728293136883
31
0.706546878165007
12
0.274685629978557
22
0.172612456230449
32
0.70611255390048
13
0.274685629978557
23
0.172612456230449
33
0.70611255390048
70
0
  0
3DFACE
 8
sk
10
0.275410295048137
20
0.16391651173048
30
0.707707660025358
11
0.273671157017131
21
0.165945724109936
31
0.707270768088102
12
0.275410295048137
22
0.165221059040355
32
0.705822988241911
13
0.275410295048137
23
0.165221059040355
33
0.705822988241911
70
0
  0
3DFACE
 8
sk
10
0.283526369419475
20
0.16536584186964
30
0.715099069327116
11
0.282367089405437
21
0.16536584186964
31
0.72321436855197
12
0.278019123211284
22
0.163047075943279
32
0.711474484366178
13
0.278019123211284
23
0.163047075943279
33
0.711474484366178
70
0
  0
3DFACE
 8
sk
10
0.278743788280864
20
0.177250242428112
30
0.712198374289274
11
0.274685629978557
21
0.172612456230449
31
0.70611255390048
12
0.276134960117717
22
0.176380552295971
32
0.712780024832487
13
0.276134960117717
23
0.176380552295971
33
0.712780024832487
70
0
  0
3DFACE
 8
sk
10
0.278019123211284
20
0.163047075943279
30
0.711474484366178
11
0.276569817295452
21
0.165076021866131
31
0.717270739096403
12
0.275410295048137
22
0.16391651173048
32
0.707707660025358
13
0.275410295048137
23
0.16391651173048
33
0.707707660025358
70
0
  0
3DFACE
 8
sk
10
0.275410295048137
20
0.16391651173048
30
0.707707660025358
11
0.276569817295452
21
0.165076021866131
31
0.717270739096403
12
0.27425079702415
22
0.171452946094799
32
0.716257283514738
13
0.27425079702415
23
0.171452946094799
33
0.716257283514738
70
0
  0
3DFACE
 8
sk
10
0.273671157017131
20
0.165945724109936
30
0.707270768088102
11
0.275410295048137
21
0.16391651173048
31
0.707707660025358
12
0.27425079702415
22
0.171452946094799
32
0.716257283514738
13
0.27425079702415
23
0.171452946094799
33
0.716257283514738
70
0
  0
3DFACE
 8
sk
10
0.237148495331188
20
0.172177611164379
30
0.753359088629484
11
0.235554394474407
21
0.170293435959148
31
0.755967650336027
12
0.237003712501903
22
0.178844355396557
32
0.756983673590422
13
0.237003712501903
23
0.178844355396557
33
0.756983673590422
70
0
  0
3DFACE
 8
sk
10
0.235554394474407
20
0.170293435959148
30
0.755967650336027
11
0.235264574470897
21
0.176380552295971
31
0.76060569087863
12
0.237003712501903
22
0.178844355396557
32
0.756983673590422
13
0.237003712501903
23
0.178844355396557
33
0.756983673590422
70
0
  0
3DFACE
 8
sk
10
0.282946729412456
20
0.193337590174007
30
0.702053596228361
11
0.27135213674583
21
0.189569245819378
31
0.694372669714689
12
0.269758035889049
22
0.189134655098247
32
0.695388644522428
13
0.269758035889049
23
0.189134655098247
33
0.695388644522428
70
0
  0
3DFACE
 8
sk
10
0.285555557575603
20
0.201453652433681
30
0.719881868475676
11
0.282946729412456
21
0.193337590174007
31
0.702053596228361
12
0.269758035889049
22
0.189134655098247
32
0.695388644522428
13
0.269758035889049
23
0.189134655098247
33
0.695388644522428
70
0
  0
3DFACE
 8
sk
10
0.295700577869793
20
0.208845049623775
30
0.732056076925993
11
0.282946729412456
21
0.193337590174007
31
0.702053596228361
12
0.285555557575603
22
0.201453652433681
32
0.719881868475676
13
0.285555557575603
23
0.201453652433681
33
0.719881868475676
70
0
  0
3DFACE
 8
sk
10
0.295700577869793
20
0.208845049623775
30
0.732056076925993
11
0.285555557575603
21
0.201453652433681
31
0.719881868475676
12
0.293526582661052
22
0.212178548912334
32
0.743648634833097
13
0.293526582661052
23
0.212178548912334
33
0.743648634833097
70
0
  0
3DFACE
 8
sk
10
0.300338351955791
20
0.217540994123745
30
0.753069522970915
11
0.293526582661052
21
0.212178548912334
31
0.743648634833097
12
0.293381799831768
22
0.214642345957088
32
0.747997109717131
13
0.293381799831768
23
0.214642345957088
33
0.747997109717131
70
0
  0
3DFACE
 8
sk
10
0.292657158985515
20
0.238266128067302
30
0.750460912817717
11
0.290338138714214
21
0.232758645681667
31
0.742635179251432
12
0.289323641529461
22
0.236526990036297
32
0.748721048086882
13
0.289323641529461
23
0.236526990036297
33
0.748721048086882
70
0
  0
3DFACE
 8
sk
10
0.293816414776226
20
0.232323794559765
30
0.742635179251432
11
0.290338138714214
21
0.232758645681667
31
0.742635179251432
12
0.292657158985515
22
0.238266128067302
32
0.750460912817717
13
0.292657158985515
23
0.238266128067302
33
0.750460912817717
70
0
  0
3DFACE
 8
sk
10
0.293816414776226
20
0.232323794559765
30
0.742635179251432
11
0.292946966877361
21
0.228410673431682
31
0.731184860724211
12
0.290338138714214
22
0.232758645681667
32
0.742635179251432
13
0.290338138714214
23
0.232758645681667
33
0.742635179251432
70
0
  0
3DFACE
 8
sk
10
0.295990385761638
20
0.188844586805629
30
0.721619213980436
11
0.304686342373272
21
0.202323348621654
31
0.738576270025968
12
0.303382037296672
22
0.198844818214702
32
0.754230304831266
13
0.303382037296672
23
0.198844818214702
33
0.754230304831266
70
0
  0
3DFACE
 8
sk
10
0.276424768009563
20
0.234353000883388
30
0.717125980490446
11
0.277874098148723
21
0.228990555671978
31
0.716836414831877
12
0.273671157017131
22
0.226236684278774
32
0.714083046072721
13
0.273671157017131
23
0.226236684278774
33
0.714083046072721
70
0
  0
3DFACE
 8
sk
10
0.285700340404888
20
0.242469063143062
30
0.729881839483976
11
0.291932493915935
21
0.248121325330066
31
0.754809436148405
12
0.291207828846355
22
0.241454587153721
32
0.746402003592253
13
0.291207828846355
23
0.241454587153721
33
0.746402003592253
70
0
  0
3DFACE
 8
sk
10
0.287294695606609
20
0.235802324966717
30
0.729737080878019
11
0.285700340404888
21
0.242469063143062
31
0.729881839483976
12
0.291207828846355
22
0.241454587153721
32
0.746402003592253
13
0.291207828846355
23
0.241454587153721
33
0.746402003592253
70
0
  0
3DFACE
 8
sk
10
0.292657158985515
20
0.238266128067302
30
0.750460912817717
11
0.291932493915935
21
0.248121325330066
31
0.754809436148405
12
0.297439715900798
22
0.237396431879329
32
0.759013103979826
13
0.297439715900798
23
0.237396431879329
33
0.759013103979826
70
0
  0
3DFACE
 8
sk
10
0.303382037296672
20
0.198844818214702
30
0.754230304831266
11
0.295410769977947
21
0.195511573271084
31
0.747707592505217
12
0.295990385761638
22
0.188844586805629
32
0.721619213980436
13
0.295990385761638
23
0.188844586805629
33
0.721619213980436
70
0
  0
3DFACE
 8
sk
10
0.295990385761638
20
0.188844586805629
30
0.721619213980436
11
0.295410769977947
21
0.195511573271084
31
0.747707592505217
12
0.290338138714214
22
0.188699803976345
32
0.727128470724821
13
0.290338138714214
23
0.188699803976345
33
0.727128470724821
70
0
  0
3DFACE
 8
sk
10
0.295990385761638
20
0.188844586805629
30
0.721619213980436
11
0.290338138714214
21
0.188699803976345
31
0.727128470724821
12
0.278163906040569
22
0.179134417633343
32
0.700895382040739
13
0.278163906040569
23
0.179134417633343
33
0.700895382040739
70
0
  0
3DFACE
 8
sk
10
0.274685629978557
20
0.172612456230449
30
0.70611255390048
11
0.273381349125286
21
0.170728293136883
31
0.706546878165007
12
0.27425079702415
22
0.171452946094799
32
0.716257283514738
13
0.27425079702415
23
0.171452946094799
33
0.716257283514738
70
0
  0
3DFACE
 8
sk
10
0.274685629978557
20
0.172612456230449
30
0.70611255390048
11
0.27425079702415
21
0.171452946094799
31
0.716257283514738
12
0.276134960117717
22
0.176380552295971
32
0.712780024832487
13
0.276134960117717
23
0.176380552295971
33
0.712780024832487
70
0
  0
3DFACE
 8
sk
10
0.282077039280315
20
0.176815397362041
30
0.712198374289274
11
0.299323878994365
21
0.189714282993603
31
0.746257244986296
12
0.298744263210674
22
0.177105217365551
32
0.733069532507658
13
0.298744263210674
23
0.177105217365551
33
0.733069532507658
70
0
  0
3DFACE
 8
sk
10
0.270772520962139
20
0.179569008354473
30
0.692198432272673
11
0.26946821588554
21
0.179279200462627
31
0.697705121344328
12
0.267729077854534
22
0.183192321590709
32
0.693503972738981
13
0.267729077854534
23
0.183192321590709
33
0.693503972738981
70
0
  0
3DFACE
 8
sk
10
0.267584052791973
20
0.201888497499752
30
0.690168953436613
11
0.268018897858043
21
0.198409973148632
31
0.690458519095182
12
0.264250547447582
22
0.199424700454998
32
0.69234319087863
13
0.264250547447582
23
0.199424700454998
33
0.69234319087863
70
0
  0
3DFACE
 8
sk
10
0.30048340124168
20
0.22304822216444
30
0.756257215994597
11
0.300338351955791
21
0.217540994123745
31
0.753069522970915
12
0.293381799831768
22
0.214642345957088
32
0.747997109717131
13
0.293381799831768
23
0.214642345957088
33
0.747997109717131
70
0
  0
3DFACE
 8
sk
10
0.28990328153648
20
0.217395963005352
30
0.747852351111174
11
0.293381799831768
21
0.214642345957088
31
0.747997109717131
12
0.291642661800762
22
0.211019038776684
32
0.747997109717131
13
0.291642661800762
23
0.211019038776684
33
0.747997109717131
70
0
  0
3DFACE
 8
sk
10
0.307729761257549
20
0.216671297935772
30
0.759881800955534
11
0.295700577869793
21
0.208845049623775
31
0.732056076925993
12
0.300338351955791
22
0.217540994123745
32
0.753069522970915
13
0.300338351955791
23
0.217540994123745
33
0.753069522970915
70
0
  0
3DFACE
 8
sk
10
0.307729761257549
20
0.216671297935772
30
0.759881800955534
11
0.299613711109539
21
0.203048007635402
31
0.722198345297575
12
0.295700577869793
22
0.208845049623775
32
0.732056076925993
13
0.295700577869793
23
0.208845049623775
33
0.732056076925993
70
0
  0
3DFACE
 8
sk
10
0.299613711109539
20
0.203048007635402
30
0.722198345297575
11
0.282946729412456
21
0.193337590174007
31
0.702053596228361
12
0.295700577869793
22
0.208845049623775
32
0.732056076925993
13
0.295700577869793
23
0.208845049623775
33
0.732056076925993
70
0
  0
3DFACE
 8
sk
10
0.295845602932354
20
0.216381483988094
30
0.744230333822966
11
0.293091991939922
21
0.214932159904766
31
0.743359069174528
12
0.290772971668621
22
0.212323580030727
32
0.732490449637175
13
0.290772971668621
23
0.212323580030727
33
0.732490449637175
70
0
  0
3DFACE
 8
sk
10
0.292946966877361
20
0.228410673431682
30
0.731184860724211
11
0.287004887714763
21
0.231164538769054
31
0.742345613592863
12
0.290338138714214
22
0.232758645681667
32
0.742635179251432
13
0.290338138714214
23
0.232758645681667
33
0.742635179251432
70
0
  0
3DFACE
 8
sk
10
0.289323641529461
20
0.236526990036297
30
0.748721048086882
11
0.287004887714763
21
0.231164538769054
31
0.742345613592863
12
0.284830892506023
22
0.233048459629345
32
0.746983654135466
13
0.284830892506023
23
0.233048459629345
33
0.746983654135466
70
0
  0
3DFACE
 8
sk
10
0.290338138714214
20
0.232758645681667
30
0.742635179251432
11
0.287004887714763
21
0.231164538769054
31
0.742345613592863
12
0.289323641529461
22
0.236526990036297
32
0.748721048086882
13
0.289323641529461
23
0.236526990036297
33
0.748721048086882
70
0
  0
3DFACE
 8
sk
10
0.265555094757457
20
0.207540762714672
30
0.695096559637785
11
0.264975212517162
21
0.204207263426113
31
0.691764059561491
12
0.263525894489666
22
0.204207263426113
32
0.692777515143156
13
0.263525894489666
23
0.204207263426113
33
0.692777515143156
70
0
  0
3DFACE
 8
sk
10
0.277874098148723
20
0.217830808071422
30
0.708286791342497
11
0.264975212517162
21
0.204207263426113
31
0.691764059561491
12
0.265555094757457
22
0.207540762714672
32
0.695096559637785
13
0.265555094757457
23
0.207540762714672
33
0.695096559637785
70
0
  0
3DFACE
 8
sk
10
0.276424768009563
20
0.234353000883388
30
0.717125980490446
11
0.264975212517162
21
0.22797607665472
31
0.70915543987155
12
0.269033370819469
22
0.234207969764995
32
0.715388634985685
13
0.269033370819469
23
0.234207969764995
33
0.715388634985685
70
0
  0
3DFACE
 8
sk
10
0.276424768009563
20
0.234353000883388
30
0.717125980490446
11
0.273671157017131
21
0.226236684278774
31
0.714083046072721
12
0.264975212517162
22
0.22797607665472
32
0.70915543987155
13
0.264975212517162
23
0.22797607665472
33
0.70915543987155
70
0
  0
3DFACE
 8
sk
10
0.266714350548168
20
0.219569946102428
30
0.709589812582731
11
0.273671157017131
21
0.226236684278774
31
0.714083046072721
12
0.279468453350444
22
0.228410673431682
32
0.723938258475065
13
0.279468453350444
23
0.228410673431682
33
0.723938258475065
70
0
  0
3DFACE
 8
sk
10
0.279468453350444
20
0.228410673431682
30
0.723938258475065
11
0.273671157017131
21
0.226236684278774
31
0.714083046072721
12
0.277874098148723
22
0.228990555671978
32
0.716836414831877
13
0.277874098148723
23
0.228990555671978
33
0.716836414831877
70
0
  0
3DFACE
 8
sk
10
0.277874098148723
20
0.228990555671978
30
0.716836414831877
11
0.287294695606609
21
0.235802324966717
31
0.729737080878019
12
0.279468453350444
22
0.228410673431682
32
0.723938258475065
13
0.279468453350444
23
0.228410673431682
33
0.723938258475065
70
0
  0
3DFACE
 8
sk
10
0.277874098148723
20
0.228990555671978
30
0.716836414831877
11
0.285700340404888
21
0.242469063143062
31
0.729881839483976
12
0.287294695606609
22
0.235802324966717
32
0.729737080878019
13
0.287294695606609
23
0.235802324966717
33
0.729737080878019
70
0
  0
3DFACE
 8
sk
10
0.277874098148723
20
0.228990555671978
30
0.716836414831877
11
0.276424768009563
21
0.234353000883388
31
0.717125980490446
12
0.285700340404888
22
0.242469063143062
32
0.729881839483976
13
0.285700340404888
23
0.242469063143062
33
0.729881839483976
70
0
  0
3DFACE
 8
sk
10
0.279178379001995
20
0.244787829069423
30
0.730171405142546
11
0.276424768009563
21
0.234353000883388
31
0.717125980490446
12
0.269033370819469
22
0.234207969764995
32
0.715388634985685
13
0.269033370819469
23
0.234207969764995
33
0.715388634985685
70
0
  0
3DFACE
 8
sk
10
0.285700340404888
20
0.242469063143062
30
0.729881839483976
11
0.276424768009563
21
0.234353000883388
31
0.717125980490446
12
0.279178379001995
22
0.244787829069423
32
0.730171405142546
13
0.279178379001995
23
0.244787829069423
33
0.730171405142546
70
0
  0
3DFACE
 8
sk
10
0.290483163776775
20
0.252759111527729
30
0.761621714133024
11
0.285700340404888
21
0.242469063143062
31
0.729881839483976
12
0.279178379001995
22
0.244787829069423
32
0.730171405142546
13
0.279178379001995
23
0.244787829069423
33
0.730171405142546
70
0
  0
3DFACE
 8
sk
10
0.289178616466899
20
0.236526990036297
30
0.746112437933683
11
0.291207828846355
21
0.241454587153721
31
0.746402003592253
12
0.292657158985515
22
0.238266128067302
32
0.750460912817717
13
0.292657158985515
23
0.238266128067302
33
0.750460912817717
70
0
  0
3DFACE
 8
sk
10
0.289178616466899
20
0.236526990036297
30
0.746112437933683
11
0.279468453350444
21
0.228410673431682
31
0.723938258475065
12
0.287294695606609
22
0.235802324966717
32
0.729737080878019
13
0.287294695606609
23
0.235802324966717
33
0.729737080878019
70
0
  0
3DFACE
 8
sk
10
0.287294695606609
20
0.235802324966717
30
0.729737080878019
11
0.291207828846355
21
0.241454587153721
31
0.746402003592253
12
0.289178616466899
22
0.236526990036297
32
0.746112437933683
13
0.289178616466899
23
0.236526990036297
33
0.746112437933683
70
0
  0
3DFACE
 8
sk
10
0.290483163776775
20
0.252759111527729
30
0.761621714133024
11
0.277874098148723
21
0.245512491111088
31
0.736836356848478
12
0.275265512218853
22
0.253338739423084
32
0.767707534521818
13
0.275265512218853
23
0.253338739423084
33
0.767707534521818
70
0
  0
3DFACE
 8
sk
10
0.303382037296672
20
0.198844818214702
30
0.754230304831266
11
0.309179091396709
21
0.206236469749737
31
0.763648625296354
12
0.303671869411846
22
0.199279663280773
32
0.761476907080412
13
0.303671869411846
23
0.199279663280773
33
0.761476907080412
70
0
  0
3DFACE
 8
sk
10
0.303382037296672
20
0.198844818214702
30
0.754230304831266
11
0.308019835605999
21
0.208700272850323
31
0.755533326071501
12
0.309179091396709
22
0.206236469749737
32
0.763648625296354
13
0.309179091396709
23
0.206236469749737
33
0.763648625296354
70
0
  0
3DFACE
 8
sk
10
0.294831129970928
20
0.197395494131374
30
0.752345633047819
11
0.303671869411846
21
0.199279663280773
31
0.761476907080412
12
0.303237012234111
22
0.196526052288341
32
0.762056038397551
13
0.303237012234111
23
0.196526052288341
33
0.762056038397551
70
0
  0
3DFACE
 8
sk
10
0.298744263210674
20
0.225946870331096
30
0.742924744910002
11
0.301497874203106
21
0.233483304695415
31
0.759736993902922
12
0.30048340124168
22
0.22304822216444
32
0.756257215994597
13
0.30048340124168
23
0.22304822216444
33
0.756257215994597
70
0
  0
3DFACE
 8
sk
10
0.30048340124168
20
0.22304822216444
30
0.756257215994597
11
0.307729761257549
21
0.216671297935772
31
0.759881800955534
12
0.300338351955791
22
0.217540994123745
32
0.753069522970915
13
0.300338351955791
23
0.217540994123745
33
0.753069522970915
70
0
  0
3DFACE
 8
sk
10
0.298744263210674
20
0.225946870331096
30
0.742924744910002
11
0.30048340124168
21
0.22304822216444
31
0.756257215994597
12
0.295845602932354
22
0.216381483988094
32
0.744230333822966
13
0.295845602932354
23
0.216381483988094
33
0.744230333822966
70
0
  0
3DFACE
 8
sk
10
0.292946966877361
20
0.212758176807689
30
0.721329696768522
11
0.297294933071514
21
0.222758408216762
31
0.731619233435392
12
0.296715050831218
22
0.217106149057674
32
0.732200883978605
13
0.296715050831218
23
0.217106149057674
33
0.732200883978605
70
0
  0
3DFACE
 8
sk
10
0.297294933071514
20
0.222758408216762
30
0.731619233435392
11
0.295845602932354
21
0.216381483988094
31
0.744230333822966
12
0.296715050831218
22
0.217106149057674
32
0.732200883978605
13
0.296715050831218
23
0.217106149057674
33
0.732200883978605
70
0
  0
3DFACE
 8
sk
10
0.297294933071514
20
0.222758408216762
30
0.731619233435392
11
0.298744263210674
21
0.225946870331096
31
0.742924744910002
12
0.295845602932354
22
0.216381483988094
32
0.744230333822966
13
0.295845602932354
23
0.216381483988094
33
0.744230333822966
70
0
  0
3DFACE
 8
sk
10
0.296715050831218
20
0.217106149057674
30
0.732200883978605
11
0.295845602932354
21
0.216381483988094
31
0.744230333822966
12
0.290772971668621
22
0.212323580030727
32
0.732490449637175
13
0.290772971668621
23
0.212323580030727
33
0.732490449637175
70
0
  0
3DFACE
 8
sk
10
0.288309168568035
20
0.207685539488125
30
0.717270739096403
11
0.292946966877361
21
0.212758176807689
31
0.721329696768522
12
0.296715050831218
22
0.217106149057674
32
0.732200883978605
13
0.296715050831218
23
0.217106149057674
33
0.732200883978605
70
0
  0
3DFACE
 8
sk
10
0.296715050831218
20
0.217106149057674
30
0.732200883978605
11
0.290772971668621
21
0.212323580030727
31
0.732490449637175
12
0.288309168568035
22
0.207685539488125
32
0.717270739096403
13
0.288309168568035
23
0.207685539488125
33
0.717270739096403
70
0
  0
3DFACE
 8
sk
10
0.285120724621196
20
0.206816097645092
30
0.708431549948454
11
0.292946966877361
21
0.212758176807689
31
0.721329696768522
12
0.288309168568035
22
0.207685539488125
32
0.717270739096403
13
0.288309168568035
23
0.207685539488125
33
0.717270739096403
70
0
  0
3DFACE
 8
sk
10
0.278163906040569
20
0.179134417633343
30
0.700895382040739
11
0.298309406032939
21
0.195221511034298
31
0.719300217932463
12
0.295990385761638
22
0.188844586805629
32
0.721619213980436
13
0.295990385761638
23
0.188844586805629
33
0.721619213980436
70
0
  0
3DFACE
 8
sk
10
0.291932493915935
20
0.248121325330066
30
0.754809436148405
11
0.290483163776775
21
0.252759111527729
31
0.761621714133024
12
0.297439715900798
22
0.237396431879329
32
0.759013103979826
13
0.297439715900798
23
0.237396431879329
33
0.759013103979826
70
0
  0
3DFACE
 8
sk
10
0.282946729412456
20
0.193337590174007
30
0.702053596228361
11
0.299613711109539
21
0.203048007635402
31
0.722198345297575
12
0.298309406032939
22
0.195221511034298
32
0.719300217932463
13
0.298309406032939
23
0.195221511034298
33
0.719300217932463
70
0
  0
3DFACE
 8
sk
10
0.298309406032939
20
0.195221511034298
30
0.719300217932463
11
0.299613711109539
21
0.203048007635402
31
0.722198345297575
12
0.304686342373272
22
0.202323348621654
32
0.738576270025968
13
0.304686342373272
23
0.202323348621654
33
0.738576270025968
70
0
  0
3DFACE
 8
sk
10
0.299613711109539
20
0.203048007635402
30
0.722198345297575
11
0.307729761257549
21
0.216671297935772
31
0.759881800955534
12
0.304686342373272
22
0.202323348621654
32
0.738576270025968
13
0.304686342373272
23
0.202323348621654
33
0.738576270025968
70
0
  0
3DFACE
 8
sk
10
0.304686342373272
20
0.202323348621654
30
0.738576270025968
11
0.307729761257549
21
0.216671297935772
31
0.759881800955534
12
0.308019835605999
22
0.208700272850323
32
0.755533326071501
13
0.308019835605999
23
0.208700272850323
33
0.755533326071501
70
0
  0
3DFACE
 8
sk
10
0.308019835605999
20
0.208700272850323
30
0.755533326071501
11
0.307729761257549
21
0.216671297935772
31
0.759881800955534
12
0.309469165745159
22
0.219714983276653
32
0.767852293127775
13
0.309469165745159
23
0.219714983276653
33
0.767852293127775
70
0
  0
3DFACE
 8
sk
10
0.277874098148723
20
0.217830808071422
30
0.708286791342497
11
0.285120724621196
21
0.206816097645092
31
0.708431549948454
12
0.267584052791973
22
0.201888497499752
32
0.690168953436613
13
0.267584052791973
23
0.201888497499752
33
0.690168953436613
70
0
  0
3DFACE
 8
sk
10
0.277874098148723
20
0.217830808071422
30
0.708286791342497
11
0.292946966877361
21
0.212758176807689
31
0.721329696768522
12
0.285120724621196
22
0.206816097645092
32
0.708431549948454
13
0.285120724621196
23
0.206816097645092
33
0.708431549948454
70
0
  0
3DFACE
 8
sk
10
0.277874098148723
20
0.217830808071422
30
0.708286791342497
11
0.292946966877361
21
0.228410673431682
31
0.731184860724211
12
0.292946966877361
22
0.212758176807689
32
0.721329696768522
13
0.292946966877361
23
0.212758176807689
33
0.721329696768522
70
0
  0
3DFACE
 8
sk
10
0.292946966877361
20
0.228410673431682
30
0.731184860724211
11
0.297294933071514
21
0.222758408216762
31
0.731619233435392
12
0.292946966877361
22
0.212758176807689
32
0.721329696768522
13
0.292946966877361
23
0.212758176807689
33
0.721329696768522
70
0
  0
3DFACE
 8
sk
10
0.292946966877361
20
0.228410673431682
30
0.731184860724211
11
0.293816414776226
21
0.232323794559765
31
0.742635179251432
12
0.297294933071514
22
0.222758408216762
32
0.731619233435392
13
0.297294933071514
23
0.222758408216762
33
0.731619233435392
70
0
  0
3DFACE
 8
sk
10
0.297294933071514
20
0.222758408216762
30
0.731619233435392
11
0.293816414776226
21
0.232323794559765
31
0.742635179251432
12
0.298744263210674
22
0.225946870331096
32
0.742924744910002
13
0.298744263210674
23
0.225946870331096
33
0.742924744910002
70
0
  0
3DFACE
 8
sk
10
0.293816414776226
20
0.232323794559765
30
0.742635179251432
11
0.292657158985515
21
0.238266128067302
31
0.750460912817717
12
0.298744263210674
22
0.225946870331096
32
0.742924744910002
13
0.298744263210674
23
0.225946870331096
33
0.742924744910002
70
0
  0
3DFACE
 8
sk
10
0.298744263210674
20
0.225946870331096
30
0.742924744910002
11
0.292657158985515
21
0.238266128067302
31
0.750460912817717
12
0.297439715900798
22
0.237396431879329
32
0.759013103979826
13
0.297439715900798
23
0.237396431879329
33
0.759013103979826
70
0
  0
3DFACE
 8
sk
10
0.298744263210674
20
0.225946870331096
30
0.742924744910002
11
0.297439715900798
21
0.237396431879329
31
0.759013103979826
12
0.301497874203106
22
0.233483304695415
32
0.759736993902922
13
0.301497874203106
23
0.233483304695415
33
0.759736993902922
70
0
  0
3DFACE
 8
sk
10
0.30048340124168
20
0.22304822216444
30
0.756257215994597
11
0.301497874203106
21
0.233483304695415
31
0.759736993902922
12
0.309469165745159
22
0.219714983276653
32
0.767852293127775
13
0.309469165745159
23
0.219714983276653
33
0.767852293127775
70
0
  0
3DFACE
 8
sk
10
0.30048340124168
20
0.22304822216444
30
0.756257215994597
11
0.309469165745159
21
0.219714983276653
31
0.767852293127775
12
0.307729761257549
22
0.216671297935772
32
0.759881800955534
13
0.307729761257549
23
0.216671297935772
33
0.759881800955534
70
0
  0
3DFACE
 8
sk
10
0.308019835605999
20
0.208700272850323
30
0.755533326071501
11
0.309469165745159
21
0.219714983276653
31
0.767852293127775
12
0.309179091396709
22
0.206236469749737
32
0.763648625296354
13
0.309179091396709
23
0.206236469749737
33
0.763648625296354
70
0
  0
3DFACE
 8
sk
10
0.303671869411846
20
0.199279663280773
30
0.761476907080412
11
0.308744500675579
21
0.195801387218761
31
0.771332119482756
12
0.303237012234111
22
0.196526052288341
32
0.762056038397551
13
0.303237012234111
23
0.196526052288341
33
0.762056038397551
70
0
  0
3DFACE
 8
sk
10
0.303671869411846
20
0.199279663280773
30
0.761476907080412
11
0.309179091396709
21
0.206236469749737
31
0.763648625296354
12
0.308744500675579
22
0.195801387218761
32
0.771332119482756
13
0.308744500675579
23
0.195801387218761
33
0.771332119482756
70
0
  0
3DFACE
 8
sk
10
0.304976150265117
20
0.185656124691295
30
0.757997129172087
11
0.308744500675579
21
0.195801387218761
31
0.771332119482756
12
0.308889283504863
22
0.186960672001171
32
0.773214272040129
13
0.308889283504863
23
0.186960672001171
33
0.773214272040129
70
0
  0
3DFACE
 8
sk
10
0.309179091396709
20
0.206236469749737
30
0.763648625296354
11
0.307005096187969
21
0.204352300600338
31
0.78770747653842
12
0.308744500675579
22
0.195801387218761
32
0.771332119482756
13
0.308744500675579
23
0.195801387218761
33
0.771332119482756
70
0
  0
3DFACE
 8
sk
10
0.308744500675579
20
0.195801387218761
30
0.771332119482756
11
0.307005096187969
21
0.204352300600338
31
0.78770747653842
12
0.308889283504863
22
0.186960672001171
32
0.773214272040129
13
0.308889283504863
23
0.186960672001171
33
0.773214272040129
70
0
  0
3DFACE
 8
sk
10
0.304976150265117
20
0.185656124691295
30
0.757997129172087
11
0.303237012234111
21
0.196526052288341
31
0.762056038397551
12
0.308744500675579
22
0.195801387218761
32
0.771332119482756
13
0.308744500675579
23
0.195801387218761
33
0.771332119482756
70
0
  0
3DFACE
 8
sk
10
0.304976150265117
20
0.185656124691295
30
0.757997129172087
11
0.308889283504863
21
0.186960672001171
31
0.773214272040129
12
0.303237012234111
22
0.180293673424053
32
0.759881800955534
13
0.303237012234111
23
0.180293673424053
33
0.759881800955534
70
0
  0
3DFACE
 8
sk
10
0.308889283504863
20
0.186960672001171
30
0.773214272040129
11
0.307005096187969
21
0.204352300600338
31
0.78770747653842
12
0.302802155056377
22
0.192612931160259
32
0.790460845297575
13
0.302802155056377
23
0.192612931160259
33
0.790460845297575
70
0
  0
3DFACE
 8
sk
10
0.308889283504863
20
0.186960672001171
30
0.773214272040129
11
0.304831367435833
21
0.183772203831005
31
0.774954136770964
12
0.303237012234111
22
0.180293673424053
32
0.759881800955534
13
0.303237012234111
23
0.180293673424053
33
0.759881800955534
70
0
  0
3DFACE
 8
sk
10
0.308889283504863
20
0.186960672001171
30
0.773214272040129
11
0.302802155056377
21
0.192612931160259
31
0.790460845297575
12
0.304831367435833
22
0.183772203831005
32
0.774954136770964
13
0.304831367435833
23
0.183772203831005
33
0.774954136770964
70
0
  0
3DFACE
 8
sk
10
0.24323561166801
20
0.167104979900646
30
0.753938171499968
11
0.235554394474407
21
0.170293435959148
31
0.755967650336027
12
0.240481988563915
22
0.170728293136883
32
0.75176650173068
13
0.240481988563915
23
0.170728293136883
33
0.75176650173068
70
0
  0
3DFACE
 8
sk
10
0.286425005474468
20
0.192612931160259
30
0.809302524679899
11
0.266714350548168
21
0.179859082702923
31
0.797273123282194
12
0.284975675335308
22
0.188119927791881
32
0.796404474753141
13
0.284975675335308
23
0.188119927791881
33
0.796404474753141
70
0
  0
3DFACE
 8
sk
10
0.266714350548168
20
0.179859082702923
30
0.797273123282194
11
0.258743325462719
21
0.179859082702923
31
0.793361540335417
12
0.254540384331127
22
0.176670614532757
32
0.772200816458464
13
0.254540384331127
23
0.176670614532757
33
0.772200816458464
70
0
  0
3DFACE
 8
sk
10
0.266714350548168
20
0.179859082702923
30
0.797273123282194
11
0.2603374263195
21
0.181018338493633
31
0.799013036459684
12
0.258743325462719
22
0.179859082702923
32
0.793361540335417
13
0.258743325462719
23
0.179859082702923
33
0.793361540335417
70
0
  0
3DFACE
 8
sk
10
0.286425005474468
20
0.192612931160259
30
0.809302524679899
11
0.2603374263195
21
0.181018338493633
31
0.799013036459684
12
0.266714350548168
22
0.179859082702923
32
0.797273123282194
13
0.266714350548168
23
0.179859082702923
33
0.797273123282194
70
0
  0
3DFACE
 8
sk
10
0.254830204334636
20
0.186380789760875
30
0.795535777777433
11
0.2603374263195
21
0.181018338493633
31
0.799013036459684
12
0.258598288288494
22
0.205366773561764
32
0.814954117697477
13
0.258598288288494
23
0.205366773561764
33
0.814954117697477
70
0
  0
3DFACE
 8
sk
10
0.254830204334636
20
0.186380789760875
30
0.795535777777433
11
0.258598288288494
21
0.205366773561764
31
0.814954117697477
12
0.254974975052257
22
0.194352063135433
32
0.799302602118254
13
0.254974975052257
23
0.194352063135433
33
0.799302602118254
70
0
  0
3DFACE
 8
sk
10
0.252801246300121
20
0.189424469045925
30
0.794085430258512
11
0.254830204334636
21
0.186380789760875
31
0.795535777777433
12
0.254974975052257
22
0.194352063135433
32
0.799302602118254
13
0.254974975052257
23
0.194352063135433
33
0.799302602118254
70
0
  0
3DFACE
 8
sk
10
0.237003712501903
20
0.178844355396557
30
0.756983673590422
11
0.240481988563915
21
0.170728293136883
31
0.75176650173068
12
0.237148495331188
22
0.172177611164379
32
0.753359088629484
13
0.237148495331188
23
0.172177611164379
33
0.753359088629484
70
0
  0
3DFACE
 8
sk
10
0.243670456734081
20
0.181018338493633
30
0.755533326071501
11
0.240481988563915
21
0.170728293136883
31
0.75176650173068
12
0.237003712501903
22
0.178844355396557
32
0.756983673590422
13
0.237003712501903
23
0.178844355396557
33
0.756983673590422
70
0
  0
3DFACE
 8
sk
10
0.243670456734081
20
0.181018338493633
30
0.755533326071501
11
0.237003712501903
21
0.178844355396557
31
0.756983673590422
12
0.241641498699565
22
0.188409990028667
32
0.766259754675627
13
0.241641498699565
23
0.188409990028667
33
0.766259754675627
70
0
  0
3DFACE
 8
sk
10
0.255409832229991
20
0.195076728205013
30
0.789302631109953
11
0.245844439831157
21
0.185511341862011
31
0.758868345373869
12
0.241641498699565
22
0.188409990028667
32
0.766259754675627
13
0.241641498699565
23
0.188409990028667
33
0.766259754675627
70
0
  0
3DFACE
 8
sk
10
0.256569342365642
20
0.188409990028667
30
0.767417968863249
11
0.245844439831157
21
0.185511341862011
31
0.758868345373869
12
0.255409832229991
22
0.195076728205013
32
0.789302631109953
13
0.255409832229991
23
0.195076728205013
33
0.789302631109953
70
0
  0
3DFACE
 8
sk
10
0.243670456734081
20
0.181018338493633
30
0.755533326071501
11
0.247583577862163
21
0.179134417633343
31
0.754375063437223
12
0.240481988563915
22
0.170728293136883
32
0.75176650173068
13
0.240481988563915
23
0.170728293136883
33
0.75176650173068
70
0
  0
3DFACE
 8
sk
10
0.245844439831157
20
0.185511341862011
30
0.758868345373869
11
0.247583577862163
21
0.179134417633343
31
0.754375063437223
12
0.243670456734081
22
0.181018338493633
32
0.755533326071501
13
0.243670456734081
23
0.181018338493633
33
0.755533326071501
70
0
  0
3DFACE
 8
sk
10
0.256569342365642
20
0.188409990028667
30
0.767417968863249
11
0.247583577862163
21
0.179134417633343
31
0.754375063437223
12
0.245844439831157
22
0.185511341862011
32
0.758868345373869
13
0.245844439831157
23
0.185511341862011
33
0.758868345373869
70
0
  0
3DFACE
 8
sk
10
0.236713904610057
20
0.174931222156811
30
0.762056038397551
11
0.258743325462719
21
0.179859082702923
31
0.793361540335417
12
0.254830204334636
22
0.186380789760875
32
0.795535777777433
13
0.254830204334636
23
0.186380789760875
33
0.795535777777433
70
0
  0
3DFACE
 8
sk
10
0.235264574470897
20
0.176380552295971
30
0.76060569087863
11
0.236713904610057
21
0.174931222156811
31
0.762056038397551
12
0.241641498699565
22
0.18435183172636
32
0.774519812506437
13
0.241641498699565
23
0.18435183172636
33
0.774519812506437
70
0
  0
3DFACE
 8
sk
10
0.241641498699565
20
0.18435183172636
30
0.774519812506437
11
0.254830204334636
21
0.186380789760875
31
0.795535777777433
12
0.252801246300121
22
0.189424469045925
32
0.794085430258512
13
0.252801246300121
23
0.189424469045925
33
0.794085430258512
70
0
  0
3DFACE
 8
sk
10
0.236713904610057
20
0.174931222156811
30
0.762056038397551
11
0.254830204334636
21
0.186380789760875
31
0.795535777777433
12
0.241641498699565
22
0.18435183172636
32
0.774519812506437
13
0.241641498699565
23
0.18435183172636
33
0.774519812506437
70
0
  0
3DFACE
 8
sk
10
0.241641498699565
20
0.188409990028667
30
0.766259754675627
11
0.241641498699565
21
0.18435183172636
31
0.774519812506437
12
0.255409832229991
22
0.195076728205013
32
0.789302631109953
13
0.255409832229991
23
0.195076728205013
33
0.789302631109953
70
0
  0
3DFACE
 8
sk
10
0.241641498699565
20
0.18435183172636
30
0.774519812506437
11
0.252801246300121
21
0.189424469045925
31
0.794085430258512
12
0.255409832229991
22
0.195076728205013
32
0.789302631109953
13
0.255409832229991
23
0.195076728205013
33
0.789302631109953
70
0
  0
3DFACE
 8
sk
10
0.247583577862163
20
0.179134417633343
30
0.754375063437223
11
0.246569104900737
21
0.169278962997722
31
0.753938171499968
12
0.240481988563915
22
0.170728293136883
32
0.75176650173068
13
0.240481988563915
23
0.170728293136883
33
0.75176650173068
70
0
  0
3DFACE
 8
sk
10
0.247583577862163
20
0.179134417633343
30
0.754375063437223
11
0.250627263203044
21
0.176090732292461
31
0.755098953360319
12
0.246569104900737
22
0.169278962997722
32
0.753938171499968
13
0.246569104900737
23
0.169278962997722
33
0.753938171499968
70
0
  0
3DFACE
 8
sk
10
0.256569342365642
20
0.188409990028667
30
0.767417968863249
11
0.250627263203044
21
0.176090732292461
31
0.755098953360319
12
0.247583577862163
22
0.179134417633343
32
0.754375063437223
13
0.247583577862163
23
0.179134417633343
33
0.754375063437223
70
0
  0
3DFACE
 8
sk
10
0.256569342365642
20
0.188409990028667
30
0.767417968863249
11
0.260627500667949
21
0.18507649679594
31
0.767707534521818
12
0.250627263203044
22
0.176090732292461
32
0.755098953360319
13
0.250627263203044
23
0.176090732292461
33
0.755098953360319
70
0
  0
3DFACE
 8
sk
10
0.27236687616386
20
0.191888266090679
30
0.785388480490446
11
0.260627500667949
21
0.18507649679594
31
0.767707534521818
12
0.256569342365642
22
0.188409990028667
32
0.767417968863249
13
0.256569342365642
23
0.188409990028667
33
0.767417968863249
70
0
  0
3DFACE
 8
sk
10
0.266279759827037
20
0.195221511034298
30
0.783069435995817
11
0.27236687616386
21
0.191888266090679
31
0.785388480490446
12
0.256569342365642
22
0.188409990028667
32
0.767417968863249
13
0.256569342365642
23
0.188409990028667
33
0.767417968863249
70
0
  0
3DFACE
 8
sk
10
0.246569104900737
20
0.169278962997722
30
0.753938171499968
11
0.250627263203044
21
0.176090732292461
31
0.755098953360319
12
0.260627500667949
22
0.18507649679594
32
0.767707534521818
13
0.260627500667949
23
0.18507649679594
33
0.767707534521818
70
0
  0
3DFACE
 8
sk
10
0.260627500667949
20
0.18507649679594
30
0.767707534521818
11
0.27236687616386
21
0.191888266090679
31
0.785388480490446
12
0.254540384331127
22
0.176670614532757
32
0.772200816458464
13
0.254540384331127
23
0.176670614532757
33
0.772200816458464
70
0
  0
3DFACE
 8
sk
10
0.254540384331127
20
0.176670614532757
30
0.772200816458464
11
0.27236687616386
21
0.191888266090679
31
0.785388480490446
12
0.266714350548168
22
0.179859082702923
32
0.797273123282194
13
0.266714350548168
23
0.179859082702923
33
0.797273123282194
70
0
  0
3DFACE
 8
sk
10
0.246569104900737
20
0.169278962997722
30
0.753938171499968
11
0.260627500667949
21
0.18507649679594
31
0.767707534521818
12
0.254540384331127
22
0.176670614532757
32
0.772200816458464
13
0.254540384331127
23
0.176670614532757
33
0.772200816458464
70
0
  0
3DFACE
 8
sk
10
0.258743325462719
20
0.179859082702923
30
0.793361540335417
11
0.236713904610057
21
0.174931222156811
31
0.762056038397551
12
0.254540384331127
22
0.176670614532757
32
0.772200816458464
13
0.254540384331127
23
0.176670614532757
33
0.772200816458464
70
0
  0
3DFACE
 8
sk
10
0.240481988563915
20
0.170728293136883
30
0.75176650173068
11
0.246569104900737
21
0.169278962997722
31
0.753938171499968
12
0.24323561166801
22
0.167104979900646
32
0.753938171499968
13
0.24323561166801
23
0.167104979900646
33
0.753938171499968
70
0
  0
3DFACE
 8
sk
10
0.284975675335308
20
0.188119927791881
30
0.796404474753141
11
0.266714350548168
21
0.179859082702923
31
0.797273123282194
12
0.27236687616386
22
0.191888266090679
32
0.785388480490446
13
0.27236687616386
23
0.191888266090679
33
0.785388480490446
70
0
  0
3DFACE
 8
sk
10
0.237003712501903
20
0.178844355396557
30
0.756983673590422
11
0.241641498699565
21
0.18435183172636
31
0.774519812506437
12
0.241641498699565
22
0.188409990028667
32
0.766259754675627
13
0.241641498699565
23
0.188409990028667
33
0.766259754675627
70
0
  0
3DFACE
 8
sk
10
0.237003712501903
20
0.178844355396557
30
0.756983673590422
11
0.235264574470897
21
0.176380552295971
31
0.76060569087863
12
0.241641498699565
22
0.18435183172636
32
0.774519812506437
13
0.241641498699565
23
0.18435183172636
33
0.774519812506437
70
0
  0
3DFACE
 8
sk
10
0.279468453350444
20
0.228410673431682
30
0.723938258475065
11
0.27207680181541
21
0.22377288723402
31
0.719734542196989
12
0.266279759827037
22
0.220004797224331
32
0.712924831885099
13
0.266279759827037
23
0.220004797224331
33
0.712924831885099
70
0
  0
3DFACE
 8
sk
10
0.279468453350444
20
0.228410673431682
30
0.723938258475065
11
0.266279759827037
21
0.220004797224331
31
0.712924831885099
12
0.266714350548168
22
0.219569946102428
32
0.709589812582731
13
0.266714350548168
23
0.219569946102428
33
0.709589812582731
70
0
  0
3DFACE
 8
sk
10
0.283091512241741
20
0.233338527921963
30
0.740026617544889
11
0.27207680181541
21
0.22377288723402
31
0.719734542196989
12
0.279468453350444
22
0.228410673431682
32
0.723938258475065
13
0.279468453350444
23
0.228410673431682
33
0.723938258475065
70
0
  0
3DFACE
 8
sk
10
0.289178616466899
20
0.236526990036297
30
0.746112437933683
11
0.283091512241741
21
0.233338527921963
31
0.740026617544889
12
0.279468453350444
22
0.228410673431682
32
0.723938258475065
13
0.279468453350444
23
0.228410673431682
33
0.723938258475065
70
0
  0
3DFACE
 8
sk
10
0.27207680181541
20
0.22377288723402
30
0.719734542196989
11
0.271207353916545
21
0.226816566519069
31
0.722779995840788
12
0.263091291656871
22
0.221019270185756
32
0.714227853125334
13
0.263091291656871
23
0.221019270185756
33
0.714227853125334
70
0
  0
3DFACE
 8
sk
10
0.27207680181541
20
0.22377288723402
30
0.719734542196989
11
0.263091291656871
21
0.221019270185756
31
0.714227853125334
12
0.266279759827037
22
0.220004797224331
32
0.712924831885099
13
0.266279759827037
23
0.220004797224331
33
0.712924831885099
70
0
  0
3DFACE
 8
sk
10
0.283091512241741
20
0.233338527921963
30
0.740026617544889
11
0.271207353916545
21
0.226816566519069
31
0.722779995840788
12
0.27207680181541
22
0.22377288723402
32
0.719734542196989
13
0.27207680181541
23
0.22377288723402
33
0.719734542196989
70
0
  0
3DFACE
 8
sk
10
0.267729077854534
20
0.231599135546016
30
0.721764021033049
11
0.263091291656871
21
0.221019270185756
31
0.714227853125334
12
0.271207353916545
22
0.226816566519069
32
0.722779995840788
13
0.271207353916545
23
0.226816566519069
33
0.722779995840788
70
0
  0
3DFACE
 8
sk
10
0.266569567718883
20
0.233773118643093
30
0.71669165622592
11
0.267729077854534
21
0.231599135546016
31
0.721764021033049
12
0.269758035889049
22
0.236526990036297
32
0.720460999792814
13
0.269758035889049
23
0.236526990036297
33
0.720460999792814
70
0
  0
3DFACE
 8
sk
10
0.275555320110698
20
0.240440111164379
30
0.736836356848478
11
0.276569817295452
21
0.2378312769454
31
0.75205606738925
12
0.275265512218853
22
0.253338739423084
32
0.767707534521818
13
0.275265512218853
23
0.253338739423084
33
0.767707534521818
70
0
  0
3DFACE
 8
sk
10
0.276569817295452
20
0.234787597660351
30
0.736402032583952
11
0.276569817295452
21
0.2378312769454
31
0.75205606738925
12
0.275555320110698
22
0.240440111164379
32
0.736836356848478
13
0.275555320110698
23
0.240440111164379
33
0.736836356848478
70
0
  0
3DFACE
 8
sk
10
0.275555320110698
20
0.240440111164379
30
0.736836356848478
11
0.275265512218853
21
0.253338739423084
31
0.767707534521818
12
0.277874098148723
22
0.245512491111088
32
0.736836356848478
13
0.277874098148723
23
0.245512491111088
33
0.736836356848478
70
0
  0
3DFACE
 8
sk
10
0.261351899280925
20
0.22377288723402
30
0.711040111654997
11
0.263091291656871
21
0.221019270185756
31
0.714227853125334
12
0.267729077854534
22
0.231599135546016
32
0.721764021033049
13
0.267729077854534
23
0.231599135546016
33
0.721764021033049
70
0
  0
3DFACE
 8
sk
10
0.266569567718883
20
0.233773118643093
30
0.71669165622592
11
0.264975212517162
21
0.22797607665472
31
0.70915543987155
12
0.262511409416576
22
0.227396194414425
32
0.710026656073332
13
0.262511409416576
23
0.227396194414425
33
0.710026656073332
70
0
  0
3DFACE
 8
sk
10
0.269033370819469
20
0.234207969764995
30
0.715388634985685
11
0.264975212517162
21
0.22797607665472
31
0.70915543987155
12
0.266569567718883
22
0.233773118643093
32
0.71669165622592
13
0.266569567718883
23
0.233773118643093
33
0.71669165622592
70
0
  0
3DFACE
 8
sk
10
0.266279759827037
20
0.220004797224331
30
0.712924831885099
11
0.263091291656871
21
0.221019270185756
31
0.714227853125334
12
0.262076564350505
22
0.220294611172008
32
0.711040111654997
13
0.262076564350505
23
0.220294611172008
33
0.711040111654997
70
0
  0
3DFACE
 8
sk
10
0.266714350548168
20
0.219569946102428
30
0.709589812582731
11
0.266279759827037
21
0.220004797224331
31
0.712924831885099
12
0.262076564350505
22
0.220294611172008
32
0.711040111654997
13
0.262076564350505
23
0.220294611172008
33
0.711040111654997
70
0
  0
3DFACE
 8
sk
10
0.262076564350505
20
0.220294611172008
30
0.711040111654997
11
0.263091291656871
21
0.221019270185756
31
0.714227853125334
12
0.261351899280925
22
0.22377288723402
32
0.711040111654997
13
0.261351899280925
23
0.22377288723402
33
0.711040111654997
70
0
  0
3DFACE
 8
sk
10
0.266714350548168
20
0.219569946102428
30
0.709589812582731
11
0.262076564350505
21
0.220294611172008
31
0.711040111654997
12
0.263381111660381
22
0.221019270185756
32
0.709445005530119
13
0.263381111660381
23
0.221019270185756
33
0.709445005530119
70
0
  0
3DFACE
 8
sk
10
0.287004887714763
20
0.231164538769054
30
0.742345613592863
11
0.285700340404888
21
0.226526752571392
31
0.746694088476896
12
0.284830892506023
22
0.233048459629345
32
0.746983654135466
13
0.284830892506023
23
0.233048459629345
33
0.746983654135466
70
0
  0
3DFACE
 8
sk
10
0.293091991939922
20
0.214932159904766
30
0.743359069174528
11
0.284251010265728
21
0.211164069895077
31
0.72741803638339
12
0.290772971668621
22
0.212323580030727
32
0.732490449637175
13
0.290772971668621
23
0.212323580030727
33
0.732490449637175
70
0
  0
3DFACE
 8
sk
10
0.273381349125286
20
0.170728293136883
30
0.706546878165007
11
0.273671157017131
21
0.165945724109936
31
0.707270768088102
12
0.27425079702415
22
0.171452946094799
32
0.716257283514738
13
0.27425079702415
23
0.171452946094799
33
0.716257283514738
70
0
  0
3DFACE
 8
sk
10
0.274540847149273
20
0.178554535393047
30
0.694662235373259
11
0.270772520962139
21
0.179569008354473
31
0.692198432272673
12
0.27207680181541
22
0.180293673424053
32
0.690750603979826
13
0.27207680181541
23
0.180293673424053
33
0.690750603979826
70
0
  0
3DFACE
 8
sk
10
0.274540847149273
20
0.178554535393047
30
0.694662235373259
11
0.26946821588554
21
0.179279200462627
31
0.697705121344328
12
0.270772520962139
22
0.179569008354473
32
0.692198432272673
13
0.270772520962139
23
0.179569008354473
33
0.692198432272673
70
0
  0
3DFACE
 8
sk
10
0.267729077854534
20
0.183192321590709
30
0.693503972738981
11
0.26946821588554
21
0.179279200462627
31
0.697705121344328
12
0.267294232788463
22
0.184496868900585
32
0.697415555685759
13
0.267294232788463
23
0.184496868900585
33
0.697415555685759
70
0
  0
3DFACE
 8
sk
10
0.290338138714214
20
0.188699803976345
30
0.727128470724821
11
0.287294695606609
21
0.192033048919964
31
0.728721057623625
12
0.279178379001995
22
0.184206794552135
32
0.71089535304904
13
0.279178379001995
23
0.184206794552135
33
0.71089535304904
70
0
  0
3DFACE
 8
sk
10
0.295410769977947
20
0.195511573271084
30
0.747707592505217
11
0.287294695606609
21
0.192033048919964
31
0.728721057623625
12
0.290338138714214
22
0.188699803976345
32
0.727128470724821
13
0.290338138714214
23
0.188699803976345
33
0.727128470724821
70
0
  0
3DFACE
 8
sk
10
0.287294695606609
20
0.192033048919964
30
0.728721057623625
11
0.295410769977947
21
0.195511573271084
31
0.747707592505217
12
0.292222301807781
22
0.198120153145122
32
0.746546810644865
13
0.292222301807781
23
0.198120153145122
33
0.746546810644865
70
0
  0
3DFACE
 8
sk
10
0.295410769977947
20
0.195511573271084
30
0.747707592505217
11
0.294831129970928
21
0.197395494131374
31
0.752345633047819
12
0.292222301807781
22
0.198120153145122
32
0.746546810644865
13
0.292222301807781
23
0.198120153145122
33
0.746546810644865
70
0
  0
3DFACE
 8
sk
10
0.288309168568035
20
0.204352300600338
30
0.739592293280363
11
0.294831129970928
21
0.197395494131374
31
0.752345633047819
12
0.291497636738201
22
0.204931928495693
32
0.749010613745451
13
0.291497636738201
23
0.204931928495693
33
0.749010613745451
70
0
  0
3DFACE
 8
sk
10
0.288309168568035
20
0.204352300600338
30
0.739592293280363
11
0.292222301807781
21
0.198120153145122
31
0.746546810644865
12
0.294831129970928
22
0.197395494131374
32
0.752345633047819
13
0.294831129970928
23
0.197395494131374
33
0.752345633047819
70
0
  0
3DFACE
 8
sk
10
0.267294232788463
20
0.184496868900585
30
0.697415555685759
11
0.26946821588554
21
0.179279200462627
31
0.697705121344328
12
0.279178379001995
22
0.184206794552135
32
0.71089535304904
13
0.279178379001995
23
0.184206794552135
33
0.71089535304904
70
0
  0
3DFACE
 8
sk
10
0.279178379001995
20
0.184206794552135
30
0.71089535304904
11
0.287294695606609
21
0.192033048919964
31
0.728721057623625
12
0.287439478435894
22
0.202033280329036
32
0.734664687079191
13
0.287439478435894
23
0.202033280329036
33
0.734664687079191
70
0
  0
3DFACE
 8
sk
10
0.287294695606609
20
0.192033048919964
30
0.728721057623625
11
0.288309168568035
21
0.204352300600338
31
0.739592293280363
12
0.287439478435894
22
0.202033280329036
32
0.734664687079191
13
0.287439478435894
23
0.202033280329036
33
0.734664687079191
70
0
  0
3DFACE
 8
sk
10
0.287294695606609
20
0.192033048919964
30
0.728721057623625
11
0.292222301807781
21
0.198120153145122
31
0.746546810644865
12
0.288309168568035
22
0.204352300600338
32
0.739592293280363
13
0.288309168568035
23
0.204352300600338
33
0.739592293280363
70
0
  0
3DFACE
 8
sk
10
0.288309168568035
20
0.204352300600338
30
0.739592293280363
11
0.291497636738201
21
0.204931928495693
31
0.749010613745451
12
0.291642661800762
22
0.211019038776684
32
0.747997109717131
13
0.291642661800762
23
0.211019038776684
33
0.747997109717131
70
0
  0
3DFACE
 8
sk
10
0.269758035889049
20
0.189134655098247
30
0.695388644522428
11
0.267294232788463
21
0.184496868900585
31
0.697415555685759
12
0.276569817295452
22
0.191308383850384
32
0.709879329794645
13
0.276569817295452
23
0.191308383850384
33
0.709879329794645
70
0
  0
3DFACE
 8
sk
10
0.285555557575603
20
0.201453652433681
30
0.719881868475676
11
0.287439478435894
21
0.202033280329036
31
0.734664687079191
12
0.293526582661052
22
0.212178548912334
32
0.743648634833097
13
0.293526582661052
23
0.212178548912334
33
0.743648634833097
70
0
  0
3DFACE
 8
sk
10
0.287439478435894
20
0.202033280329036
30
0.734664687079191
11
0.288309168568035
21
0.204352300600338
31
0.739592293280363
12
0.293526582661052
22
0.212178548912334
32
0.743648634833097
13
0.293526582661052
23
0.212178548912334
33
0.743648634833097
70
0
  0
3DFACE
 8
sk
10
0.293526582661052
20
0.212178548912334
30
0.743648634833097
11
0.291642661800762
21
0.211019038776684
31
0.747997109717131
12
0.293381799831768
22
0.214642345957088
32
0.747997109717131
13
0.293381799831768
23
0.214642345957088
33
0.747997109717131
70
0
  0
3DFACE
 8
sk
10
0.288309168568035
20
0.204352300600338
30
0.739592293280363
11
0.291642661800762
21
0.211019038776684
31
0.747997109717131
12
0.293526582661052
22
0.212178548912334
32
0.743648634833097
13
0.293526582661052
23
0.212178548912334
33
0.743648634833097
70
0
  0
3DFACE
 8
sk
10
0.267729077854534
20
0.183192321590709
30
0.693503972738981
11
0.267294232788463
21
0.184496868900585
31
0.697415555685759
12
0.269758035889049
22
0.189134655098247
32
0.695388644522428
13
0.269758035889049
23
0.189134655098247
33
0.695388644522428
70
0
  0
3DFACE
 8
sk
10
0.279178379001995
20
0.184206794552135
30
0.71089535304904
11
0.26946821588554
21
0.179279200462627
31
0.697705121344328
12
0.278163906040569
22
0.179134417633343
32
0.700895382040739
13
0.278163906040569
23
0.179134417633343
33
0.700895382040739
70
0
  0
3DFACE
 8
sk
10
0.292946966877361
20
0.228410673431682
30
0.731184860724211
11
0.275845152225872
21
0.217251180176067
31
0.710171463125944
12
0.287004887714763
22
0.231164538769054
32
0.742345613592863
13
0.287004887714763
23
0.231164538769054
33
0.742345613592863
70
0
  0
3DFACE
 8
sk
10
0.292946966877361
20
0.228410673431682
30
0.731184860724211
11
0.277874098148723
21
0.217830808071422
31
0.708286791342497
12
0.275845152225872
22
0.217251180176067
32
0.710171463125944
13
0.275845152225872
23
0.217251180176067
33
0.710171463125944
70
0
  0
3DFACE
 8
sk
10
0.277874098148723
20
0.217830808071422
30
0.708286791342497
11
0.265555094757457
21
0.207540762714672
31
0.695096559637785
12
0.275845152225872
22
0.217251180176067
32
0.710171463125944
13
0.275845152225872
23
0.217251180176067
33
0.710171463125944
70
0
  0
3DFACE
 8
sk
10
0.27207680181541
20
0.197395494131374
30
0.695678210180998
11
0.277584290256877
21
0.200004328350353
31
0.7026327275455
12
0.27164221109428
22
0.196381015114116
32
0.696546907156706
13
0.27164221109428
23
0.196381015114116
33
0.696546907156706
70
0
  0
3DFACE
 8
sk
10
0.285990148296733
20
0.207105911592769
30
0.720316192740202
11
0.279178379001995
21
0.202613162569332
31
0.709300246924162
12
0.285120724621196
22
0.206816097645092
32
0.708431549948454
13
0.285120724621196
23
0.206816097645092
33
0.708431549948454
70
0
  0
3DFACE
 8
sk
10
0.285120724621196
20
0.206816097645092
30
0.708431549948454
11
0.279178379001995
21
0.202613162569332
31
0.709300246924162
12
0.277584290256877
22
0.200004328350353
32
0.7026327275455
13
0.277584290256877
23
0.200004328350353
33
0.7026327275455
70
0
  0
3DFACE
 8
sk
10
0.288309168568035
20
0.207685539488125
30
0.717270739096403
11
0.285990148296733
21
0.207105911592769
31
0.720316192740202
12
0.285120724621196
22
0.206816097645092
32
0.708431549948454
13
0.285120724621196
23
0.206816097645092
33
0.708431549948454
70
0
  0
3DFACE
 8
sk
10
0.290772971668621
20
0.212323580030727
30
0.732490449637175
11
0.285990148296733
21
0.207105911592769
31
0.720316192740202
12
0.288309168568035
22
0.207685539488125
32
0.717270739096403
13
0.288309168568035
23
0.207685539488125
33
0.717270739096403
70
0
  0
3DFACE
 8
sk
10
0.275845152225872
20
0.217251180176067
30
0.710171463125944
11
0.285700340404888
21
0.226526752571392
31
0.746694088476896
12
0.287004887714763
22
0.231164538769054
32
0.742345613592863
13
0.287004887714763
23
0.231164538769054
33
0.742345613592863
70
0
  0
3DFACE
 8
sk
10
0.275845152225872
20
0.217251180176067
30
0.710171463125944
11
0.273960964908977
21
0.211453883842754
31
0.712343132895231
12
0.285700340404888
22
0.226526752571392
32
0.746694088476896
13
0.285700340404888
23
0.226526752571392
33
0.746694088476896
70
0
  0
3DFACE
 8
sk
10
0.265555094757457
20
0.207540762714672
30
0.695096559637785
11
0.273960964908977
21
0.211453883842754
31
0.712343132895231
12
0.275845152225872
22
0.217251180176067
32
0.710171463125944
13
0.275845152225872
23
0.217251180176067
33
0.710171463125944
70
0
  0
3DFACE
 8
sk
10
0.263525894489666
20
0.204207263426113
30
0.692777515143156
11
0.26294626659431
21
0.201888497499752
31
0.699300275915861
12
0.265555094757457
22
0.207540762714672
32
0.695096559637785
13
0.265555094757457
23
0.207540762714672
33
0.695096559637785
70
0
  0
3DFACE
 8
sk
10
0.27164221109428
20
0.196381015114116
30
0.696546907156706
11
0.265410057583232
21
0.197830339197445
31
0.699445034521818
12
0.268018897858043
22
0.195946170048046
32
0.693648731344938
13
0.268018897858043
23
0.195946170048046
33
0.693648731344938
70
0
  0
3DFACE
 8
sk
10
0.277584290256877
20
0.200004328350353
30
0.7026327275455
11
0.265410057583232
21
0.197830339197445
31
0.699445034521818
12
0.27164221109428
22
0.196381015114116
32
0.696546907156706
13
0.27164221109428
23
0.196381015114116
33
0.696546907156706
70
0
  0
3DFACE
 8
sk
10
0.279178379001995
20
0.202613162569332
30
0.709300246924162
11
0.278019123211284
21
0.205511810735988
31
0.714227853125334
12
0.265410057583232
22
0.197830339197445
32
0.699445034521818
13
0.265410057583232
23
0.197830339197445
33
0.699445034521818
70
0
  0
3DFACE
 8
sk
10
0.279178379001995
20
0.202613162569332
30
0.709300246924162
11
0.265410057583232
21
0.197830339197445
31
0.699445034521818
12
0.277584290256877
22
0.200004328350353
32
0.7026327275455
13
0.277584290256877
23
0.200004328350353
33
0.7026327275455
70
0
  0
3DFACE
 8
sk
10
0.285990148296733
20
0.207105911592769
30
0.720316192740202
11
0.278019123211284
21
0.205511810735988
31
0.714227853125334
12
0.279178379001995
22
0.202613162569332
32
0.709300246924162
13
0.279178379001995
23
0.202613162569332
33
0.709300246924162
70
0
  0
3DFACE
 8
sk
10
0.285990148296733
20
0.207105911592769
30
0.720316192740202
11
0.284251010265728
21
0.211164069895077
31
0.72741803638339
12
0.278019123211284
22
0.205511810735988
32
0.714227853125334
13
0.278019123211284
23
0.205511810735988
33
0.714227853125334
70
0
  0
3DFACE
 8
sk
10
0.273960964908977
20
0.211453883842754
30
0.712343132895231
11
0.278019123211284
21
0.205511810735988
31
0.714227853125334
12
0.284251010265728
22
0.211164069895077
32
0.72741803638339
13
0.284251010265728
23
0.211164069895077
33
0.72741803638339
70
0
  0
3DFACE
 8
sk
10
0.273960964908977
20
0.211453883842754
30
0.712343132895231
11
0.284251010265728
21
0.211164069895077
31
0.72741803638339
12
0.285700340404888
22
0.226526752571392
32
0.746694088476896
13
0.285700340404888
23
0.226526752571392
33
0.746694088476896
70
0
  0
3DFACE
 8
sk
10
0.268018897858043
20
0.195946170048046
30
0.693648731344938
11
0.26294626659431
21
0.201888497499752
31
0.699300275915861
12
0.264250547447582
22
0.199424700454998
32
0.69234319087863
13
0.264250547447582
23
0.199424700454998
33
0.69234319087863
70
0
  0
3DFACE
 8
sk
10
0.268018897858043
20
0.195946170048046
30
0.693648731344938
11
0.265410057583232
21
0.197830339197445
31
0.699445034521818
12
0.26294626659431
22
0.201888497499752
32
0.699300275915861
13
0.26294626659431
23
0.201888497499752
33
0.699300275915861
70
0
  0
3DFACE
 8
sk
10
0.264250547447582
20
0.199424700454998
30
0.69234319087863
11
0.26294626659431
21
0.201888497499752
31
0.699300275915861
12
0.263525894489666
22
0.204207263426113
32
0.692777515143156
13
0.263525894489666
23
0.204207263426113
33
0.692777515143156
70
0
  0
3DFACE
 8
sk
10
0.265555094757457
20
0.207540762714672
30
0.695096559637785
11
0.26294626659431
21
0.201888497499752
31
0.699300275915861
12
0.273960964908977
22
0.211453883842754
32
0.712343132895231
13
0.273960964908977
23
0.211453883842754
33
0.712343132895231
70
0
  0
3DFACE
 8
sk
10
0.273960964908977
20
0.211453883842754
30
0.712343132895231
11
0.26294626659431
21
0.201888497499752
31
0.699300275915861
12
0.265410057583232
22
0.197830339197445
32
0.699445034521818
13
0.265410057583232
23
0.197830339197445
33
0.699445034521818
70
0
  0
3DFACE
 8
sk
10
0.290483163776775
20
0.252759111527729
30
0.761621714133024
11
0.290338138714214
21
0.262614311818409
31
0.828578673666716
12
0.300193593349834
22
0.245077897362041
32
0.807128335684538
13
0.300193593349834
23
0.245077897362041
33
0.807128335684538
70
0
  0
3DFACE
 8
sk
10
0.300193593349834
20
0.245077897362041
30
0.807128335684538
11
0.290338138714214
21
0.262614311818409
31
0.828578673666716
12
0.297874573078533
22
0.252324263433742
32
0.839157775992155
13
0.297874573078533
23
0.252324263433742
33
0.839157775992155
70
0
  0
3DFACE
 8
sk
10
0.290483163776775
20
0.252759111527729
30
0.761621714133024
11
0.281642448559185
21
0.263773821954059
31
0.828723432272673
12
0.290338138714214
22
0.262614311818409
32
0.828578673666716
13
0.290338138714214
23
0.262614311818409
33
0.828578673666716
70
0
  0
3DFACE
 8
sk
10
0.281642448559185
20
0.263773821954059
30
0.828723432272673
11
0.27135213674583
21
0.259425849704075
31
0.823651067465544
12
0.27236687616386
22
0.260440325693416
32
0.835969986075163
13
0.27236687616386
23
0.260440325693416
33
0.835969986075163
70
0
  0
3DFACE
 8
sk
10
0.290483163776775
20
0.252759111527729
30
0.761621714133024
11
0.275265512218853
21
0.253338739423084
31
0.767707534521818
12
0.27135213674583
22
0.259425849704075
32
0.823651067465544
13
0.27135213674583
23
0.259425849704075
33
0.823651067465544
70
0
  0
3DFACE
 8
sk
10
0.290483163776775
20
0.252759111527729
30
0.761621714133024
11
0.27135213674583
21
0.259425849704075
31
0.823651067465544
12
0.281642448559185
22
0.263773821954059
32
0.828723432272673
13
0.281642448559185
23
0.263773821954059
33
0.828723432272673
70
0
  0
3DFACE
 8
sk
10
0.284975675335308
20
0.188119927791881
30
0.796404474753141
11
0.275845152225872
21
0.19420703201704
31
0.783940652197599
12
0.280772734203716
22
0.189424469045925
32
0.776114918631315
13
0.280772734203716
23
0.189424469045925
33
0.776114918631315
70
0
  0
3DFACE
 8
sk
10
0.280772734203716
20
0.189424469045925
30
0.776114918631315
11
0.275845152225872
21
0.19420703201704
31
0.783940652197599
12
0.269178407993694
22
0.197685562423992
32
0.780750439947844
13
0.269178407993694
23
0.197685562423992
33
0.780750439947844
70
0
  0
3DFACE
 8
sk
10
0.293236774769207
20
0.178119690326977
30
0.763648625296354
11
0.284975675335308
21
0.188119927791881
31
0.796404474753141
12
0.280772734203716
22
0.189424469045925
32
0.776114918631315
13
0.280772734203716
23
0.189424469045925
33
0.776114918631315
70
0
  0
3DFACE
 8
sk
10
0.293236774769207
20
0.178119690326977
30
0.763648625296354
11
0.280772734203716
21
0.189424469045925
31
0.776114918631315
12
0.289178616466899
22
0.181018338493633
32
0.76031612522006
13
0.289178616466899
23
0.181018338493633
33
0.76031612522006
70
0
  0
3DFACE
 8
sk
10
0.26106209138908
20
0.201453652433681
30
0.784519783514738
11
0.269178407993694
21
0.197685562423992
31
0.780750439947844
12
0.266279759827037
22
0.195221511034298
32
0.783069435995817
13
0.266279759827037
23
0.195221511034298
33
0.783069435995817
70
0
  0
3DFACE
 8
sk
10
0.298599213924785
20
0.176525589470196
30
0.759881800955534
11
0.290048306599041
21
0.170873318199444
31
0.744083007544279
12
0.290193355884929
22
0.167539824966717
32
0.729444995993376
13
0.290193355884929
23
0.167539824966717
33
0.729444995993376
70
0
  0
3DFACE
 8
sk
10
0.304831367435833
20
0.183772203831005
30
0.774954136770964
11
0.293236774769207
21
0.178119690326977
31
0.763648625296354
12
0.298599213924785
22
0.176525589470196
32
0.759881800955534
13
0.298599213924785
23
0.176525589470196
33
0.759881800955534
70
0
  0
3DFACE
 8
sk
10
0.302802155056377
20
0.192612931160259
30
0.790460845297575
11
0.284975675335308
21
0.188119927791881
31
0.796404474753141
12
0.293236774769207
22
0.178119690326977
32
0.763648625296354
13
0.293236774769207
23
0.178119690326977
33
0.763648625296354
70
0
  0
3DFACE
 8
sk
10
0.302802155056377
20
0.192612931160259
30
0.790460845297575
11
0.286425005474468
21
0.192612931160259
31
0.809302524679899
12
0.284975675335308
22
0.188119927791881
32
0.796404474753141
13
0.284975675335308
23
0.188119927791881
33
0.796404474753141
70
0
  0
3DFACE
 8
sk
10
0.309469165745159
20
0.219714983276653
30
0.767852293127775
11
0.300193593349834
21
0.245077897362041
31
0.807128335684538
12
0.307005096187969
22
0.204352300600338
32
0.78770747653842
13
0.307005096187969
23
0.204352300600338
33
0.78770747653842
70
0
  0
3DFACE
 8
sk
10
0.307005096187969
20
0.204352300600338
30
0.78770747653842
11
0.300193593349834
21
0.245077897362041
31
0.807128335684538
12
0.298889046039959
22
0.216381483988094
32
0.834085314291716
13
0.298889046039959
23
0.216381483988094
33
0.834085314291716
70
0
  0
3DFACE
 8
sk
10
0.300193593349834
20
0.245077897362041
30
0.807128335684538
11
0.297874573078533
21
0.252324263433742
31
0.839157775992155
12
0.298889046039959
22
0.216381483988094
32
0.834085314291716
13
0.298889046039959
23
0.216381483988094
33
0.834085314291716
70
0
  0
3DFACE
 8
sk
10
0.298889046039959
20
0.216381483988094
30
0.834085314291716
11
0.297874573078533
21
0.252324263433742
31
0.839157775992155
12
0.298309406032939
22
0.223193259338665
32
0.847999484366178
13
0.298309406032939
23
0.223193259338665
33
0.847999484366178
70
0
  0
3DFACE
 8
sk
10
0.307005096187969
20
0.204352300600338
30
0.78770747653842
11
0.298889046039959
21
0.216381483988094
31
0.834085314291716
12
0.302802155056377
22
0.192612931160259
32
0.790460845297575
13
0.302802155056377
23
0.192612931160259
33
0.790460845297575
70
0
  0
3DFACE
 8
sk
10
0.302802155056377
20
0.192612931160259
30
0.790460845297575
11
0.298889046039959
21
0.216381483988094
31
0.834085314291716
12
0.286425005474468
22
0.192612931160259
32
0.809302524679899
13
0.286425005474468
23
0.192612931160259
33
0.809302524679899
70
0
  0
3DFACE
 8
sk
10
0.298889046039959
20
0.216381483988094
30
0.834085314291716
11
0.289468690815349
21
0.21391768694334
31
0.836549117392302
12
0.286425005474468
22
0.192612931160259
32
0.809302524679899
13
0.286425005474468
23
0.192612931160259
33
0.809302524679899
70
0
  0
3DFACE
 8
sk
10
0.282077039280315
20
0.169713808063793
30
0.709010681265593
11
0.298744263210674
21
0.177105217365551
31
0.733069532507658
12
0.285555557575603
22
0.167829644970226
32
0.714806935995817
13
0.285555557575603
23
0.167829644970226
33
0.714806935995817
70
0
  0
3DFACE
 8
sk
10
0.285555557575603
20
0.167829644970226
30
0.714806935995817
11
0.298744263210674
21
0.177105217365551
31
0.733069532507658
12
0.290193355884929
22
0.167539824966717
32
0.729444995993376
13
0.290193355884929
23
0.167539824966717
33
0.729444995993376
70
0
  0
3DFACE
 8
sk
10
0.284830892506023
20
0.233048459629345
30
0.746983654135466
11
0.282222064342876
21
0.231599135546016
31
0.751621694678068
12
0.276569817295452
22
0.2378312769454
32
0.75205606738925
13
0.276569817295452
23
0.2378312769454
33
0.75205606738925
70
0
  0
3DFACE
 8
sk
10
0.282077039280315
20
0.169713808063793
30
0.709010681265593
11
0.285555557575603
21
0.167829644970226
31
0.714806935995817
12
0.283526369419475
22
0.16536584186964
32
0.715099069327116
13
0.283526369419475
23
0.16536584186964
33
0.715099069327116
70
0
  0
3DFACE
 8
sk
10
0.285555557575603
20
0.167829644970226
30
0.714806935995817
11
0.290193355884929
21
0.167539824966717
31
0.729444995993376
12
0.283526369419475
22
0.16536584186964
32
0.715099069327116
13
0.283526369419475
23
0.16536584186964
33
0.715099069327116
70
0
  0
3DFACE
 8
sk
10
0.283526369419475
20
0.16536584186964
30
0.715099069327116
11
0.278019123211284
21
0.163047075943279
31
0.711474484366178
12
0.279178379001995
22
0.16464117680006
32
0.710461028784513
13
0.279178379001995
23
0.16464117680006
33
0.710461028784513
70
0
  0
3DFACE
 8
sk
10
0.290193355884929
20
0.167539824966717
30
0.729444995993376
11
0.282367089405437
21
0.16536584186964
31
0.72321436855197
12
0.283526369419475
22
0.16536584186964
32
0.715099069327116
13
0.283526369419475
23
0.16536584186964
33
0.715099069327116
70
0
  0
3DFACE
 8
sk
10
0.290193355884929
20
0.167539824966717
30
0.729444995993376
11
0.290048306599041
21
0.170873318199444
31
0.744083007544279
12
0.282367089405437
22
0.16536584186964
32
0.72321436855197
13
0.282367089405437
23
0.16536584186964
33
0.72321436855197
70
0
  0
3DFACE
 8
sk
10
0.282367089405437
20
0.16536584186964
30
0.72321436855197
11
0.276569817295452
21
0.165076021866131
31
0.717270739096403
12
0.278019123211284
22
0.163047075943279
32
0.711474484366178
13
0.278019123211284
23
0.163047075943279
33
0.711474484366178
70
0
  0
3DFACE
 8
sk
10
0.285700340404888
20
0.17449663143568
30
0.742200854986906
11
0.276569817295452
21
0.165076021866131
31
0.717270739096403
12
0.282367089405437
22
0.16536584186964
32
0.72321436855197
13
0.282367089405437
23
0.16536584186964
33
0.72321436855197
70
0
  0
3DFACE
 8
sk
10
0.282367089405437
20
0.16536584186964
30
0.72321436855197
11
0.290048306599041
21
0.170873318199444
31
0.744083007544279
12
0.285700340404888
22
0.17449663143568
32
0.742200854986906
13
0.285700340404888
23
0.17449663143568
33
0.742200854986906
70
0
  0
3DFACE
 8
sk
10
0.27425079702415
20
0.171452946094799
30
0.716257283514738
11
0.276569817295452
21
0.165076021866131
31
0.717270739096403
12
0.285700340404888
22
0.17449663143568
32
0.742200854986906
13
0.285700340404888
23
0.17449663143568
33
0.742200854986906
70
0
  0
3DFACE
 8
sk
10
0.276134960117717
20
0.176380552295971
30
0.712780024832487
11
0.27425079702415
21
0.171452946094799
31
0.716257283514738
12
0.289468690815349
22
0.187975144962597
32
0.738865835684538
13
0.289468690815349
23
0.187975144962597
33
0.738865835684538
70
0
  0
3DFACE
 8
sk
10
0.289468690815349
20
0.187975144962597
30
0.738865835684538
11
0.278743788280864
21
0.177250242428112
31
0.712198374289274
12
0.276134960117717
22
0.176380552295971
32
0.712780024832487
13
0.276134960117717
23
0.176380552295971
33
0.712780024832487
70
0
  0
3DFACE
 8
sk
10
0.289468690815349
20
0.187975144962597
30
0.738865835684538
11
0.282077039280315
21
0.176815397362041
31
0.712198374289274
12
0.278743788280864
22
0.177250242428112
32
0.712198374289274
13
0.278743788280864
23
0.177250242428112
33
0.712198374289274
70
0
  0
3DFACE
 8
sk
10
0.298599213924785
20
0.176525589470196
30
0.759881800955534
11
0.293236774769207
21
0.178119690326977
31
0.763648625296354
12
0.290048306599041
22
0.170873318199444
32
0.744083007544279
13
0.290048306599041
23
0.170873318199444
33
0.744083007544279
70
0
  0
3DFACE
 8
sk
10
0.285700340404888
20
0.17449663143568
30
0.742200854986906
11
0.290048306599041
21
0.170873318199444
31
0.744083007544279
12
0.293236774769207
22
0.178119690326977
32
0.763648625296354
13
0.293236774769207
23
0.178119690326977
33
0.763648625296354
70
0
  0
3DFACE
 8
sk
10
0.285265507450481
20
0.182612693695354
30
0.740460941809416
11
0.285700340404888
21
0.17449663143568
31
0.742200854986906
12
0.289033833637615
22
0.188989617924022
32
0.756404542273283
13
0.289033833637615
23
0.188989617924022
33
0.756404542273283
70
0
  0
3DFACE
 8
sk
10
0.289468690815349
20
0.187975144962597
30
0.738865835684538
11
0.285265507450481
21
0.182612693695354
31
0.740460941809416
12
0.293091991939922
22
0.195656356100368
32
0.753938171499968
13
0.293091991939922
23
0.195656356100368
33
0.753938171499968
70
0
  0
3DFACE
 8
sk
10
0.285265507450481
20
0.182612693695354
30
0.740460941809416
11
0.289033833637615
21
0.188989617924022
31
0.756404542273283
12
0.293091991939922
22
0.195656356100368
32
0.753938171499968
13
0.293091991939922
23
0.195656356100368
33
0.753938171499968
70
0
  0
3DFACE
 8
sk
10
0.299323878994365
20
0.189714282993603
30
0.746257244986296
11
0.289468690815349
21
0.187975144962597
31
0.738865835684538
12
0.293091991939922
22
0.195656356100368
32
0.753938171499968
13
0.293091991939922
23
0.195656356100368
33
0.753938171499968
70
0
  0
3DFACE
 8
sk
10
0.299323878994365
20
0.189714282993603
30
0.746257244986296
11
0.282077039280315
21
0.176815397362041
31
0.712198374289274
12
0.289468690815349
22
0.187975144962597
32
0.738865835684538
13
0.289468690815349
23
0.187975144962597
33
0.738865835684538
70
0
  0
3DFACE
 8
sk
10
0.303237012234111
20
0.196526052288341
30
0.762056038397551
11
0.299323878994365
21
0.189714282993603
31
0.746257244986296
12
0.293091991939922
22
0.195656356100368
32
0.753938171499968
13
0.293091991939922
23
0.195656356100368
33
0.753938171499968
70
0
  0
3DFACE
 8
sk
10
0.298744263210674
20
0.177105217365551
30
0.733069532507658
11
0.299323878994365
21
0.189714282993603
31
0.746257244986296
12
0.304976150265117
22
0.185656124691295
32
0.757997129172087
13
0.304976150265117
23
0.185656124691295
33
0.757997129172087
70
0
  0
3DFACE
 8
sk
10
0.299323878994365
20
0.189714282993603
30
0.746257244986296
11
0.303237012234111
21
0.196526052288341
31
0.762056038397551
12
0.304976150265117
22
0.185656124691295
32
0.757997129172087
13
0.304976150265117
23
0.185656124691295
33
0.757997129172087
70
0
  0
3DFACE
 8
sk
10
0.298744263210674
20
0.177105217365551
30
0.733069532507658
11
0.304976150265117
21
0.185656124691295
31
0.757997129172087
12
0.303237012234111
22
0.180293673424053
32
0.759881800955534
13
0.303237012234111
23
0.180293673424053
33
0.759881800955534
70
0
  0
3DFACE
 8
sk
10
0.290193355884929
20
0.167539824966717
30
0.729444995993376
11
0.298744263210674
21
0.177105217365551
31
0.733069532507658
12
0.298599213924785
22
0.176525589470196
32
0.759881800955534
13
0.298599213924785
23
0.176525589470196
33
0.759881800955534
70
0
  0
3DFACE
 8
sk
10
0.303237012234111
20
0.180293673424053
30
0.759881800955534
11
0.298599213924785
21
0.176525589470196
31
0.759881800955534
12
0.298744263210674
22
0.177105217365551
32
0.733069532507658
13
0.298744263210674
23
0.177105217365551
33
0.733069532507658
70
0
  0
3DFACE
 8
sk
10
0.267149195614238
20
0.234353000883388
30
0.825535739248991
11
0.271497161808391
21
0.230439879755306
31
0.844230140799284
12
0.267873860683818
22
0.24768647723608
32
0.839302534598112
13
0.267873860683818
23
0.24768647723608
33
0.839302534598112
70
0
  0
3DFACE
 8
sk
10
0.267149195614238
20
0.234353000883388
30
0.825535739248991
11
0.258598288288494
21
0.205366773561764
31
0.814954117697477
12
0.277004650249858
22
0.214062718061733
32
0.831911125296354
13
0.277004650249858
23
0.214062718061733
33
0.831911125296354
70
0
  0
3DFACE
 8
sk
10
0.26106209138908
20
0.201453652433681
30
0.784519783514738
11
0.255554857292553
21
0.198700035385418
31
0.790316086691618
12
0.264540621796032
22
0.228120859484005
32
0.806114831656218
13
0.264540621796032
23
0.228120859484005
33
0.806114831656218
70
0
  0
3DFACE
 8
sk
10
0.255554857292553
20
0.198700035385418
30
0.790316086691618
11
0.255120012226482
21
0.209569714693355
31
0.808868248862028
12
0.264540621796032
22
0.228120859484005
32
0.806114831656218
13
0.264540621796032
23
0.228120859484005
33
0.806114831656218
70
0
  0
3DFACE
 8
sk
10
0.258598288288494
20
0.205366773561764
30
0.814954117697477
11
0.2603374263195
21
0.181018338493633
31
0.799013036459684
12
0.286425005474468
22
0.192612931160259
32
0.809302524679899
13
0.286425005474468
23
0.192612931160259
33
0.809302524679899
70
0
  0
3DFACE
 8
sk
10
0.289468690815349
20
0.21391768694334
30
0.836549117392302
11
0.277004650249858
21
0.214062718061733
31
0.831911125296354
12
0.286425005474468
22
0.192612931160259
32
0.809302524679899
13
0.286425005474468
23
0.192612931160259
33
0.809302524679899
70
0
  0
3DFACE
 8
sk
10
0.286425005474468
20
0.192612931160259
30
0.809302524679899
11
0.277004650249858
21
0.214062718061733
31
0.831911125296354
12
0.258598288288494
22
0.205366773561764
32
0.814954117697477
13
0.258598288288494
23
0.205366773561764
33
0.814954117697477
70
0
  0
3DFACE
 8
sk
10
0.290048306599041
20
0.199569477228451
30
0.755533326071501
11
0.294831129970928
21
0.197395494131374
31
0.752345633047819
12
0.293091991939922
22
0.195656356100368
32
0.753938171499968
13
0.293091991939922
23
0.195656356100368
33
0.753938171499968
70
0
  0
3DFACE
 8
sk
10
0.289033833637615
20
0.188989617924022
30
0.756404542273283
11
0.289178616466899
21
0.181018338493633
31
0.76031612522006
12
0.286570030537029
22
0.187830107788372
32
0.759302669638395
13
0.286570030537029
23
0.187830107788372
33
0.759302669638395
70
0
  0
3DFACE
 8
sk
10
0.286570030537029
20
0.187830107788372
30
0.759302669638395
11
0.289178616466899
21
0.181018338493633
31
0.76031612522006
12
0.282077039280315
22
0.203482604412365
32
0.776549291342497
13
0.282077039280315
23
0.203482604412365
33
0.776549291342497
70
0
  0
3DFACE
 8
sk
10
0.289178616466899
20
0.181018338493633
30
0.76031612522006
11
0.280772734203716
21
0.189424469045925
31
0.776114918631315
12
0.282077039280315
22
0.203482604412365
32
0.776549291342497
13
0.282077039280315
23
0.203482604412365
33
0.776549291342497
70
0
  0
3DFACE
 8
sk
10
0.282077039280315
20
0.203482604412365
30
0.776549291342497
11
0.280772734203716
21
0.189424469045925
31
0.776114918631315
12
0.269178407993694
22
0.197685562423992
32
0.780750439947844
13
0.269178407993694
23
0.197685562423992
33
0.780750439947844
70
0
  0
3DFACE
 8
sk
10
0.282222064342876
20
0.231599135546016
30
0.751621694678068
11
0.268163680687328
21
0.246527221445369
31
0.789157824057341
12
0.276569817295452
22
0.2378312769454
32
0.75205606738925
13
0.276569817295452
23
0.2378312769454
33
0.75205606738925
70
0
  0
3DFACE
 8
sk
10
0.266134722652813
20
0.232758645681667
30
0.809592138785124
11
0.267149195614238
21
0.234353000883388
31
0.825535739248991
12
0.267004424896617
22
0.25507813179903
32
0.81278235103488
13
0.267004424896617
23
0.25507813179903
33
0.81278235103488
70
0
  0
3DFACE
 8
sk
10
0.267004424896617
20
0.25507813179903
30
0.81278235103488
11
0.267149195614238
21
0.234353000883388
31
0.825535739248991
12
0.27135213674583
22
0.259425849704075
32
0.823651067465544
13
0.27135213674583
23
0.259425849704075
33
0.823651067465544
70
0
  0
3DFACE
 8
sk
10
0.27135213674583
20
0.259425849704075
30
0.823651067465544
11
0.267873860683818
21
0.24768647723608
31
0.839302534598112
12
0.27236687616386
22
0.260440325693416
32
0.835969986075163
13
0.27236687616386
23
0.260440325693416
33
0.835969986075163
70
0
  0
3DFACE
 8
sk
10
0.27135213674583
20
0.259425849704075
30
0.823651067465544
11
0.267149195614238
21
0.234353000883388
31
0.825535739248991
12
0.267873860683818
22
0.24768647723608
32
0.839302534598112
13
0.267873860683818
23
0.24768647723608
33
0.839302534598112
70
0
  0
3DFACE
 8
sk
10
0.275265512218853
20
0.253338739423084
30
0.767707534521818
11
0.267004424896617
21
0.25507813179903
31
0.81278235103488
12
0.27135213674583
22
0.259425849704075
32
0.823651067465544
13
0.27135213674583
23
0.259425849704075
33
0.823651067465544
70
0
  0
3DFACE
 8
sk
10
0.268163680687328
20
0.246527221445369
30
0.789157824057341
11
0.268598525753398
21
0.232323794559765
31
0.803506269949675
12
0.267004424896617
22
0.25507813179903
32
0.81278235103488
13
0.267004424896617
23
0.25507813179903
33
0.81278235103488
70
0
  0
3DFACE
 8
sk
10
0.291207828846355
20
0.241454587153721
30
0.746402003592253
11
0.291932493915935
21
0.248121325330066
31
0.754809436148405
12
0.292657158985515
22
0.238266128067302
32
0.750460912817717
13
0.292657158985515
23
0.238266128067302
33
0.750460912817717
70
0
  0
3DFACE
 8
sk
10
0.264975212517162
20
0.204207263426113
30
0.691764059561491
11
0.267584052791973
21
0.201888497499752
31
0.690168953436613
12
0.263525894489666
22
0.204207263426113
32
0.692777515143156
13
0.263525894489666
23
0.204207263426113
33
0.692777515143156
70
0
  0
3DFACE
 8
sk
10
0.263525894489666
20
0.204207263426113
30
0.692777515143156
11
0.267584052791973
21
0.201888497499752
31
0.690168953436613
12
0.264250547447582
22
0.199424700454998
32
0.69234319087863
13
0.264250547447582
23
0.199424700454998
33
0.69234319087863
70
0
  0
3DFACE
 8
sk
10
0.293091991939922
20
0.214932159904766
30
0.743359069174528
11
0.30048340124168
21
0.22304822216444
31
0.756257215994597
12
0.293381799831768
22
0.214642345957088
32
0.747997109717131
13
0.293381799831768
23
0.214642345957088
33
0.747997109717131
70
0
  0
3DFACE
 8
sk
10
0.30048340124168
20
0.22304822216444
30
0.756257215994597
11
0.293091991939922
21
0.214932159904766
31
0.743359069174528
12
0.295845602932354
22
0.216381483988094
32
0.744230333822966
13
0.295845602932354
23
0.216381483988094
33
0.744230333822966
70
0
  0
3DFACE
 8
sk
10
0.258743325462719
20
0.179859082702923
30
0.793361540335417
11
0.2603374263195
21
0.181018338493633
31
0.799013036459684
12
0.254830204334636
22
0.186380789760875
32
0.795535777777433
13
0.254830204334636
23
0.186380789760875
33
0.795535777777433
70
0
  0
3DFACE
 8
sk
10
0.304686342373272
20
0.202323348621654
30
0.738576270025968
11
0.308019835605999
21
0.208700272850323
31
0.755533326071501
12
0.303382037296672
22
0.198844818214702
32
0.754230304831266
13
0.303382037296672
23
0.198844818214702
33
0.754230304831266
70
0
  0
3DFACE
 8
sk
10
0.278163906040569
20
0.179134417633343
30
0.700895382040739
11
0.26946821588554
21
0.179279200462627
31
0.697705121344328
12
0.274540847149273
22
0.178554535393047
32
0.694662235373259
13
0.274540847149273
23
0.178554535393047
33
0.694662235373259
70
0
  0
3DFACE
 8
sk
10
0.304831367435833
20
0.183772203831005
30
0.774954136770964
11
0.298599213924785
21
0.176525589470196
31
0.759881800955534
12
0.303237012234111
22
0.180293673424053
32
0.759881800955534
13
0.303237012234111
23
0.180293673424053
33
0.759881800955534
70
0
  0
3DFACE
 8
sk
10
0.245844439831157
20
0.185511341862011
30
0.758868345373869
11
0.243670456734081
21
0.181018338493633
31
0.755533326071501
12
0.241641498699565
22
0.188409990028667
32
0.766259754675627
13
0.241641498699565
23
0.188409990028667
33
0.766259754675627
70
0
  0
3DFACE
 8
sk
10
0.291932493915935
20
0.248121325330066
30
0.754809436148405
11
0.285700340404888
21
0.242469063143062
31
0.729881839483976
12
0.290483163776775
22
0.252759111527729
32
0.761621714133024
13
0.290483163776775
23
0.252759111527729
33
0.761621714133024
70
0
  0
3DFACE
 8
sk
10
0.275410295048137
20
0.170583510307598
30
0.704083075064421
11
0.273671157017131
21
0.165945724109936
31
0.707270768088102
12
0.273381349125286
22
0.170728293136883
32
0.706546878165007
13
0.273381349125286
23
0.170728293136883
33
0.706546878165007
70
0
  0
3DFACE
 8
sk
10
0.275410295048137
20
0.170583510307598
30
0.704083075064421
11
0.275410295048137
21
0.165221059040355
31
0.705822988241911
12
0.273671157017131
22
0.165945724109936
32
0.707270768088102
13
0.273671157017131
23
0.165945724109936
33
0.707270768088102
70
0
  0
3DFACE
 8
sk
10
0.255120012226482
20
0.209569714693355
30
0.808868248862028
11
0.258598288288494
21
0.205366773561764
31
0.814954117697477
12
0.267149195614238
22
0.234353000883388
32
0.825535739248991
13
0.267149195614238
23
0.234353000883388
33
0.825535739248991
70
0
  0
3DFACE
 8
sk
10
0.298309406032939
20
0.195221511034298
30
0.719300217932463
11
0.304686342373272
21
0.202323348621654
31
0.738576270025968
12
0.295990385761638
22
0.188844586805629
32
0.721619213980436
13
0.295990385761638
23
0.188844586805629
33
0.721619213980436
70
0
  0
3DFACE
 8
sk
10
0.301497874203106
20
0.233483304695415
30
0.759736993902922
11
0.300193593349834
21
0.245077897362041
31
0.807128335684538
12
0.309469165745159
22
0.219714983276653
32
0.767852293127775
13
0.309469165745159
23
0.219714983276653
33
0.767852293127775
70
0
  0
3DFACE
 8
sk
10
0.297439715900798
20
0.237396431879329
30
0.759013103979826
11
0.300193593349834
21
0.245077897362041
31
0.807128335684538
12
0.301497874203106
22
0.233483304695415
32
0.759736993902922
13
0.301497874203106
23
0.233483304695415
33
0.759736993902922
70
0
  0
3DFACE
 8
sk
10
0.297439715900798
20
0.237396431879329
30
0.759013103979826
11
0.290483163776775
21
0.252759111527729
31
0.761621714133024
12
0.300193593349834
22
0.245077897362041
32
0.807128335684538
13
0.300193593349834
23
0.245077897362041
33
0.807128335684538
70
0
  0
3DFACE
 8
sk
10
0.27425079702415
20
0.171452946094799
30
0.716257283514738
11
0.285265507450481
21
0.182612693695354
31
0.740460941809416
12
0.289468690815349
22
0.187975144962597
32
0.738865835684538
13
0.289468690815349
23
0.187975144962597
33
0.738865835684538
70
0
  0
3DFACE
 8
sk
10
0.285700340404888
20
0.17449663143568
30
0.742200854986906
11
0.289178616466899
21
0.181018338493633
31
0.76031612522006
12
0.289033833637615
22
0.188989617924022
32
0.756404542273283
13
0.289033833637615
23
0.188989617924022
33
0.756404542273283
70
0
  0
3DFACE
 8
sk
10
0.290048306599041
20
0.199569477228451
30
0.755533326071501
11
0.289033833637615
21
0.188989617924022
31
0.756404542273283
12
0.286570030537029
22
0.187830107788372
32
0.759302669638395
13
0.286570030537029
23
0.187830107788372
33
0.759302669638395
70
0
  0
3DFACE
 8
sk
10
0.290048306599041
20
0.199569477228451
30
0.755533326071501
11
0.293091991939922
21
0.195656356100368
31
0.753938171499968
12
0.289033833637615
22
0.188989617924022
32
0.756404542273283
13
0.289033833637615
23
0.188989617924022
33
0.756404542273283
70
0
  0
3DFACE
 8
sk
10
0.285700340404888
20
0.17449663143568
30
0.742200854986906
11
0.293236774769207
21
0.178119690326977
31
0.763648625296354
12
0.289178616466899
22
0.181018338493633
32
0.76031612522006
13
0.289178616466899
23
0.181018338493633
33
0.76031612522006
70
0
  0
3DFACE
 8
sk
10
0.27425079702415
20
0.171452946094799
30
0.716257283514738
11
0.285700340404888
21
0.17449663143568
31
0.742200854986906
12
0.285265507450481
22
0.182612693695354
32
0.740460941809416
13
0.285265507450481
23
0.182612693695354
33
0.740460941809416
70
0
  0
3DFACE
 8
sk
10
0.267294232788463
20
0.184496868900585
30
0.697415555685759
11
0.279178379001995
21
0.184206794552135
31
0.71089535304904
12
0.276569817295452
22
0.191308383850384
32
0.709879329794645
13
0.276569817295452
23
0.191308383850384
33
0.709879329794645
70
0
  0
3DFACE
 8
sk
10
0.276569817295452
20
0.191308383850384
30
0.709879329794645
11
0.279178379001995
21
0.184206794552135
31
0.71089535304904
12
0.287439478435894
22
0.202033280329036
32
0.734664687079191
13
0.287439478435894
23
0.202033280329036
33
0.734664687079191
70
0
  0
3DFACE
 8
sk
10
0.290338138714214
20
0.188699803976345
30
0.727128470724821
11
0.279178379001995
21
0.184206794552135
31
0.71089535304904
12
0.278163906040569
22
0.179134417633343
32
0.700895382040739
13
0.278163906040569
23
0.179134417633343
33
0.700895382040739
70
0
  0
3DFACE
 8
sk
10
0.276569817295452
20
0.191308383850384
30
0.709879329794645
11
0.287439478435894
21
0.202033280329036
31
0.734664687079191
12
0.285555557575603
22
0.201453652433681
32
0.719881868475676
13
0.285555557575603
23
0.201453652433681
33
0.719881868475676
70
0
  0
3DFACE
 8
sk
10
0.269758035889049
20
0.189134655098247
30
0.695388644522428
11
0.276569817295452
21
0.191308383850384
31
0.709879329794645
12
0.285555557575603
22
0.201453652433681
32
0.719881868475676
13
0.285555557575603
23
0.201453652433681
33
0.719881868475676
70
0
  0
3DFACE
 8
sk
10
0.291497636738201
20
0.204931928495693
30
0.749010613745451
11
0.294831129970928
21
0.197395494131374
31
0.752345633047819
12
0.290048306599041
22
0.199569477228451
32
0.755533326071501
13
0.290048306599041
23
0.199569477228451
33
0.755533326071501
70
0
  0
3DFACE
 8
sk
10
0.28990328153648
20
0.217395963005352
30
0.747852351111174
11
0.291642661800762
21
0.211019038776684
31
0.747997109717131
12
0.291497636738201
22
0.204931928495693
32
0.749010613745451
13
0.291497636738201
23
0.204931928495693
33
0.749010613745451
70
0
  0
3DFACE
 8
sk
10
0.276569817295452
20
0.2378312769454
30
0.75205606738925
11
0.268163680687328
21
0.246527221445369
31
0.789157824057341
12
0.275265512218853
22
0.253338739423084
32
0.767707534521818
13
0.275265512218853
23
0.253338739423084
33
0.767707534521818
70
0
  0
3DFACE
 8
sk
10
0.273960964908977
20
0.211453883842754
30
0.712343132895231
11
0.265410057583232
21
0.197830339197445
31
0.699445034521818
12
0.278019123211284
22
0.205511810735988
32
0.714227853125334
13
0.278019123211284
23
0.205511810735988
33
0.714227853125334
70
0
  0
3DFACE
 8
sk
10
0.284251010265728
20
0.211164069895077
30
0.72741803638339
11
0.28990328153648
21
0.217395963005352
31
0.747852351111174
12
0.285700340404888
22
0.226526752571392
32
0.746694088476896
13
0.285700340404888
23
0.226526752571392
33
0.746694088476896
70
0
  0
3DFACE
 8
sk
10
0.283091512241741
20
0.233338527921963
30
0.740026617544889
11
0.276569817295452
21
0.2378312769454
31
0.75205606738925
12
0.276569817295452
22
0.234787597660351
32
0.736402032583952
13
0.276569817295452
23
0.234787597660351
33
0.736402032583952
70
0
  0
3DFACE
 8
sk
10
0.284830892506023
20
0.233048459629345
30
0.746983654135466
11
0.276569817295452
21
0.2378312769454
31
0.75205606738925
12
0.283091512241741
22
0.233338527921963
32
0.740026617544889
13
0.283091512241741
23
0.233338527921963
33
0.740026617544889
70
0
  0
3DFACE
 8
sk
10
0.285700340404888
20
0.226526752571392
30
0.746694088476896
11
0.282222064342876
21
0.231599135546016
31
0.751621694678068
12
0.284830892506023
22
0.233048459629345
32
0.746983654135466
13
0.284830892506023
23
0.233048459629345
33
0.746983654135466
70
0
  0
3DFACE
 8
sk
10
0.293091991939922
20
0.214932159904766
30
0.743359069174528
11
0.28990328153648
21
0.217395963005352
31
0.747852351111174
12
0.284251010265728
22
0.211164069895077
32
0.72741803638339
13
0.284251010265728
23
0.211164069895077
33
0.72741803638339
70
0
  0
3DFACE
 8
sk
10
0.293381799831768
20
0.214642345957088
30
0.747997109717131
11
0.28990328153648
21
0.217395963005352
31
0.747852351111174
12
0.293091991939922
22
0.214932159904766
32
0.743359069174528
13
0.293091991939922
23
0.214932159904766
33
0.743359069174528
70
0
  0
3DFACE
 8
sk
10
0.290772971668621
20
0.212323580030727
30
0.732490449637175
11
0.284251010265728
21
0.211164069895077
31
0.72741803638339
12
0.285990148296733
22
0.207105911592769
32
0.720316192740202
13
0.285990148296733
23
0.207105911592769
33
0.720316192740202
70
0
  0
3DFACE
 8
sk
10
0.289178616466899
20
0.236526990036297
30
0.746112437933683
11
0.284830892506023
21
0.233048459629345
31
0.746983654135466
12
0.283091512241741
22
0.233338527921963
32
0.740026617544889
13
0.283091512241741
23
0.233338527921963
33
0.740026617544889
70
0
  0
3DFACE
 8
sk
10
0.289323641529461
20
0.236526990036297
30
0.748721048086882
11
0.284830892506023
21
0.233048459629345
31
0.746983654135466
12
0.289178616466899
22
0.236526990036297
32
0.746112437933683
13
0.289178616466899
23
0.236526990036297
33
0.746112437933683
70
0
  0
3DFACE
 8
sk
10
0.269758035889049
20
0.236526990036297
30
0.720460999792814
11
0.267729077854534
21
0.231599135546016
31
0.721764021033049
12
0.270047843780895
22
0.234353000883388
32
0.723359127157927
13
0.270047843780895
23
0.234353000883388
33
0.723359127157927
70
0
  0
3DFACE
 8
sk
10
0.270047843780895
20
0.234353000883388
30
0.723359127157927
11
0.267729077854534
21
0.231599135546016
31
0.721764021033049
12
0.271207353916545
22
0.226816566519069
32
0.722779995840788
13
0.271207353916545
23
0.226816566519069
33
0.722779995840788
70
0
  0
3DFACE
 8
sk
10
0.283091512241741
20
0.233338527921963
30
0.740026617544889
11
0.276569817295452
21
0.234787597660351
31
0.736402032583952
12
0.271207353916545
22
0.226816566519069
32
0.722779995840788
13
0.271207353916545
23
0.226816566519069
33
0.722779995840788
70
0
  0
3DFACE
 8
sk
10
0.270047843780895
20
0.234353000883388
30
0.723359127157927
11
0.276569817295452
21
0.234787597660351
31
0.736402032583952
12
0.275555320110698
22
0.240440111164379
32
0.736836356848478
13
0.275555320110698
23
0.240440111164379
33
0.736836356848478
70
0
  0
3DFACE
 8
sk
10
0.271207353916545
20
0.226816566519069
30
0.722779995840788
11
0.276569817295452
21
0.234787597660351
31
0.736402032583952
12
0.270047843780895
22
0.234353000883388
32
0.723359127157927
13
0.270047843780895
23
0.234353000883388
33
0.723359127157927
70
0
  0
3DFACE
 8
sk
10
0.270047843780895
20
0.234353000883388
30
0.723359127157927
11
0.275555320110698
21
0.240440111164379
31
0.736836356848478
12
0.277874098148723
22
0.245512491111088
32
0.736836356848478
13
0.277874098148723
23
0.245512491111088
33
0.736836356848478
70
0
  0
3DFACE
 8
sk
10
0.269758035889049
20
0.236526990036297
30
0.720460999792814
11
0.270047843780895
21
0.234353000883388
31
0.723359127157927
12
0.277874098148723
22
0.245512491111088
32
0.736836356848478
13
0.277874098148723
23
0.245512491111088
33
0.736836356848478
70
0
  0
3DFACE
 8
sk
10
0.279178379001995
20
0.244787829069423
30
0.730171405142546
11
0.269758035889049
21
0.236526990036297
31
0.720460999792814
12
0.277874098148723
22
0.245512491111088
32
0.736836356848478
13
0.277874098148723
23
0.245512491111088
33
0.736836356848478
70
0
  0
3DFACE
 8
sk
10
0.290483163776775
20
0.252759111527729
30
0.761621714133024
11
0.279178379001995
21
0.244787829069423
31
0.730171405142546
12
0.277874098148723
22
0.245512491111088
32
0.736836356848478
13
0.277874098148723
23
0.245512491111088
33
0.736836356848478
70
0
  0
3DFACE
 8
sk
10
0.275265512218853
20
0.253338739423084
30
0.767707534521818
11
0.268163680687328
21
0.246527221445369
31
0.789157824057341
12
0.267004424896617
22
0.25507813179903
32
0.81278235103488
13
0.267004424896617
23
0.25507813179903
33
0.81278235103488
70
0
  0
3DFACE
 8
sk
10
0.269178407993694
20
0.197685562423992
30
0.780750439947844
11
0.275845152225872
21
0.19420703201704
31
0.783940652197599
12
0.266279759827037
22
0.195221511034298
32
0.783069435995817
13
0.266279759827037
23
0.195221511034298
33
0.783069435995817
70
0
  0
3DFACE
 8
sk
10
0.266279759827037
20
0.195221511034298
30
0.783069435995817
11
0.275845152225872
21
0.19420703201704
31
0.783940652197599
12
0.27236687616386
22
0.191888266090679
32
0.785388480490446
13
0.27236687616386
23
0.191888266090679
33
0.785388480490446
70
0
  0
3DFACE
 8
sk
10
0.254974975052257
20
0.194352063135433
30
0.799302602118254
11
0.258598288288494
21
0.205366773561764
31
0.814954117697477
12
0.255120012226482
22
0.209569714693355
32
0.808868248862028
13
0.255120012226482
23
0.209569714693355
33
0.808868248862028
70
0
  0
3DFACE
 8
sk
10
0.268598525753398
20
0.232323794559765
30
0.803506269949675
11
0.266134722652813
21
0.232758645681667
31
0.809592138785124
12
0.267004424896617
22
0.25507813179903
32
0.81278235103488
13
0.267004424896617
23
0.25507813179903
33
0.81278235103488
70
0
  0
3DFACE
 8
sk
10
0.266279759827037
20
0.195221511034298
30
0.783069435995817
11
0.256569342365642
21
0.188409990028667
31
0.767417968863249
12
0.255409832229991
22
0.195076728205013
32
0.789302631109953
13
0.255409832229991
23
0.195076728205013
33
0.789302631109953
70
0
  0
3DFACE
 8
sk
10
0.255554857292553
20
0.198700035385418
30
0.790316086691618
11
0.254974975052257
21
0.194352063135433
31
0.799302602118254
12
0.255120012226482
22
0.209569714693355
32
0.808868248862028
13
0.255120012226482
23
0.209569714693355
33
0.808868248862028
70
0
  0
3DFACE
 8
sk
10
0.26106209138908
20
0.201453652433681
30
0.784519783514738
11
0.266279759827037
21
0.195221511034298
31
0.783069435995817
12
0.255409832229991
22
0.195076728205013
32
0.789302631109953
13
0.255409832229991
23
0.195076728205013
33
0.789302631109953
70
0
  0
3DFACE
 8
sk
10
0.26106209138908
20
0.201453652433681
30
0.784519783514738
11
0.255409832229991
21
0.195076728205013
31
0.789302631109953
12
0.255554857292553
22
0.198700035385418
32
0.790316086691618
13
0.255554857292553
23
0.198700035385418
33
0.790316086691618
70
0
  0
3DFACE
 8
sk
10
0.284975675335308
20
0.188119927791881
30
0.796404474753141
11
0.27236687616386
21
0.191888266090679
31
0.785388480490446
12
0.275845152225872
22
0.19420703201704
32
0.783940652197599
13
0.275845152225872
23
0.19420703201704
33
0.783940652197599
70
0
  0
3DFACE
 8
sk
10
0.282077039280315
20
0.203482604412365
30
0.776549291342497
11
0.269178407993694
21
0.197685562423992
31
0.780750439947844
12
0.26106209138908
22
0.201453652433681
32
0.784519783514738
13
0.26106209138908
23
0.201453652433681
33
0.784519783514738
70
0
  0
3DFACE
 8
sk
10
0.290048306599041
20
0.199569477228451
30
0.755533326071501
11
0.286570030537029
21
0.187830107788372
31
0.759302669638395
12
0.282077039280315
22
0.203482604412365
32
0.776549291342497
13
0.282077039280315
23
0.203482604412365
33
0.776549291342497
70
0
  0
3DFACE
 8
sk
10
0.290048306599041
20
0.199569477228451
30
0.755533326071501
11
0.282077039280315
21
0.203482604412365
31
0.776549291342497
12
0.28338158659019
22
0.222033749203014
32
0.778578721731901
13
0.28338158659019
23
0.222033749203014
33
0.778578721731901
70
0
  0
3DFACE
 8
sk
10
0.282077039280315
20
0.203482604412365
30
0.776549291342497
11
0.264540621796032
21
0.228120859484005
31
0.806114831656218
12
0.268598525753398
22
0.232323794559765
32
0.803506269949675
13
0.268598525753398
23
0.232323794559765
33
0.803506269949675
70
0
  0
3DFACE
 8
sk
10
0.282077039280315
20
0.203482604412365
30
0.776549291342497
11
0.268598525753398
21
0.232323794559765
31
0.803506269949675
12
0.28338158659019
22
0.222033749203014
32
0.778578721731901
13
0.28338158659019
23
0.222033749203014
33
0.778578721731901
70
0
  0
3DFACE
 8
sk
10
0.268598525753398
20
0.232323794559765
30
0.803506269949675
11
0.264540621796032
21
0.228120859484005
31
0.806114831656218
12
0.266134722652813
22
0.232758645681667
32
0.809592138785124
13
0.266134722652813
23
0.232758645681667
33
0.809592138785124
70
0
  0
3DFACE
 8
sk
10
0.291497636738201
20
0.204931928495693
30
0.749010613745451
11
0.290048306599041
21
0.199569477228451
31
0.755533326071501
12
0.28338158659019
22
0.222033749203014
32
0.778578721731901
13
0.28338158659019
23
0.222033749203014
33
0.778578721731901
70
0
  0
3DFACE
 8
sk
10
0.264540621796032
20
0.228120859484005
30
0.806114831656218
11
0.282077039280315
21
0.203482604412365
31
0.776549291342497
12
0.26106209138908
22
0.201453652433681
32
0.784519783514738
13
0.26106209138908
23
0.201453652433681
33
0.784519783514738
70
0
  0
3DFACE
 8
sk
10
0.28990328153648
20
0.217395963005352
30
0.747852351111174
11
0.291497636738201
21
0.204931928495693
31
0.749010613745451
12
0.28338158659019
22
0.222033749203014
32
0.778578721731901
13
0.28338158659019
23
0.222033749203014
33
0.778578721731901
70
0
  0
3DFACE
 8
sk
10
0.285700340404888
20
0.226526752571392
30
0.746694088476896
11
0.28338158659019
21
0.222033749203014
31
0.778578721731901
12
0.282222064342876
22
0.231599135546016
32
0.751621694678068
13
0.282222064342876
23
0.231599135546016
33
0.751621694678068
70
0
  0
3DFACE
 8
sk
10
0.282222064342876
20
0.231599135546016
30
0.751621694678068
11
0.28338158659019
21
0.222033749203014
31
0.778578721731901
12
0.268598525753398
22
0.232323794559765
32
0.803506269949675
13
0.268598525753398
23
0.232323794559765
33
0.803506269949675
70
0
  0
3DFACE
 8
sk
10
0.285700340404888
20
0.226526752571392
30
0.746694088476896
11
0.28990328153648
21
0.217395963005352
31
0.747852351111174
12
0.28338158659019
22
0.222033749203014
32
0.778578721731901
13
0.28338158659019
23
0.222033749203014
33
0.778578721731901
70
0
  0
3DFACE
 8
sk
10
0.264540621796032
20
0.228120859484005
30
0.806114831656218
11
0.255120012226482
21
0.209569714693355
31
0.808868248862028
12
0.266134722652813
22
0.232758645681667
32
0.809592138785124
13
0.266134722652813
23
0.232758645681667
33
0.809592138785124
70
0
  0
3DFACE
 8
sk
10
0.255120012226482
20
0.209569714693355
30
0.808868248862028
11
0.267149195614238
21
0.234353000883388
31
0.825535739248991
12
0.266134722652813
22
0.232758645681667
32
0.809592138785124
13
0.266134722652813
23
0.232758645681667
33
0.809592138785124
70
0
  0
3DFACE
 8
sk
10
0.282222064342876
20
0.231599135546016
30
0.751621694678068
11
0.268598525753398
21
0.232323794559765
31
0.803506269949675
12
0.268163680687328
22
0.246527221445369
32
0.789157824057341
13
0.268163680687328
23
0.246527221445369
33
0.789157824057341
70
0
  0
3DFACE
 8
sk
10
0.304831367435833
20
0.183772203831005
30
0.774954136770964
11
0.302802155056377
21
0.192612931160259
31
0.790460845297575
12
0.293236774769207
22
0.178119690326977
32
0.763648625296354
13
0.293236774769207
23
0.178119690326977
33
0.763648625296354
70
0
  0
3DFACE
 8
sk
10
0.27207680181541
20
0.197395494131374
30
0.695678210180998
11
0.285120724621196
21
0.206816097645092
31
0.708431549948454
12
0.277584290256877
22
0.200004328350353
32
0.7026327275455
13
0.277584290256877
23
0.200004328350353
33
0.7026327275455
70
0
  0
3DFACE
 8
sk
10
0.309179091396709
20
0.206236469749737
30
0.763648625296354
11
0.309469165745159
21
0.219714983276653
31
0.767852293127775
12
0.307005096187969
22
0.204352300600338
32
0.78770747653842
13
0.307005096187969
23
0.204352300600338
33
0.78770747653842
70
0
  0
3DFACE
 8
sk
10
0.255409832229991
20
0.195076728205013
30
0.789302631109953
11
0.252801246300121
21
0.189424469045925
31
0.794085430258512
12
0.255554857292553
22
0.198700035385418
32
0.790316086691618
13
0.255554857292553
23
0.198700035385418
33
0.790316086691618
70
0
  0
3DFACE
 8
sk
10
0.255554857292553
20
0.198700035385418
30
0.790316086691618
11
0.252801246300121
21
0.189424469045925
31
0.794085430258512
12
0.254974975052257
22
0.194352063135433
32
0.799302602118254
13
0.254974975052257
23
0.194352063135433
33
0.799302602118254
70
0
  0
3DFACE
 8
sk
10
0.265555094757457
20
0.224497546247768
30
0.708576308554411
11
0.266714350548168
21
0.219569946102428
31
0.709589812582731
12
0.263381111660381
22
0.221019270185756
32
0.709445005530119
13
0.263381111660381
23
0.221019270185756
33
0.709445005530119
70
0
  0
3DFACE
 8
sk
10
0.262511409416576
20
0.227396194414425
30
0.710026656073332
11
0.265555094757457
21
0.224497546247768
31
0.708576308554411
12
0.263381111660381
22
0.221019270185756
32
0.709445005530119
13
0.263381111660381
23
0.221019270185756
33
0.709445005530119
70
0
  0
3DFACE
 8
sk
10
0.264975212517162
20
0.22797607665472
30
0.70915543987155
11
0.265555094757457
21
0.224497546247768
31
0.708576308554411
12
0.262511409416576
22
0.227396194414425
32
0.710026656073332
13
0.262511409416576
23
0.227396194414425
33
0.710026656073332
70
0
  0
3DFACE
 8
sk
10
0.269178407993694
20
0.196960897354412
30
0.69234319087863
11
0.264250547447582
21
0.199424700454998
31
0.69234319087863
12
0.268018897858043
22
0.198409973148632
32
0.690458519095182
13
0.268018897858043
23
0.198409973148632
33
0.690458519095182
70
0
  0
3DFACE
 8
sk
10
0.27019288095512
20
0.186380789760875
30
0.690895411032438
11
0.267729077854534
21
0.183192321590709
31
0.693503972738981
12
0.269758035889049
22
0.189134655098247
32
0.695388644522428
13
0.269758035889049
23
0.189134655098247
33
0.695388644522428
70
0
  0
3DFACE
 8
sk
10
0.27135213674583
20
0.189569245819378
30
0.694372669714689
11
0.27019288095512
21
0.186380789760875
31
0.690895411032438
12
0.269758035889049
22
0.189134655098247
32
0.695388644522428
13
0.269758035889049
23
0.189134655098247
33
0.695388644522428
70
0
  0
3DFACE
 8
sk
10
0.271207353916545
20
0.182902513698864
30
0.689734629172087
11
0.267729077854534
21
0.183192321590709
31
0.693503972738981
12
0.27019288095512
22
0.186380789760875
32
0.690895411032438
13
0.27019288095512
23
0.186380789760875
33
0.690895411032438
70
0
  0
3DFACE
 8
sk
10
0.267729077854534
20
0.183192321590709
30
0.693503972738981
11
0.27207680181541
21
0.180293673424053
31
0.690750603979826
12
0.270772520962139
22
0.179569008354473
32
0.692198432272673
13
0.270772520962139
23
0.179569008354473
33
0.692198432272673
70
0
  0
3DFACE
 8
sk
10
0.271207353916545
20
0.182902513698864
30
0.689734629172087
11
0.27207680181541
21
0.180293673424053
31
0.690750603979826
12
0.267729077854534
22
0.183192321590709
32
0.693503972738981
13
0.267729077854534
23
0.183192321590709
33
0.693503972738981
70
0
  0
3DFACE
 8
sk
10
0.27207680181541
20
0.197395494131374
30
0.695678210180998
11
0.27164221109428
21
0.196381015114116
31
0.696546907156706
12
0.268018897858043
22
0.195946170048046
32
0.693648731344938
13
0.268018897858043
23
0.195946170048046
33
0.693648731344938
70
0
  0
3DFACE
 8
sk
10
0.27207680181541
20
0.197395494131374
30
0.695678210180998
11
0.268018897858043
21
0.195946170048046
31
0.693648731344938
12
0.269178407993694
22
0.196960897354412
32
0.69234319087863
13
0.269178407993694
23
0.196960897354412
33
0.69234319087863
70
0
  0
3DFACE
 8
sk
10
0.277874098148723
20
0.167539824966717
30
0.702780053824186
11
0.277729315319439
21
0.16493099680357
31
0.704806964987516
12
0.275410295048137
22
0.165221059040355
32
0.705822988241911
13
0.275410295048137
23
0.165221059040355
33
0.705822988241911
70
0
  0
3DFACE
 8
sk
10
0.275410295048137
20
0.170583510307598
30
0.704083075064421
11
0.277874098148723
21
0.167539824966717
31
0.702780053824186
12
0.275410295048137
22
0.165221059040355
32
0.705822988241911
13
0.275410295048137
23
0.165221059040355
33
0.705822988241911
70
0
  0
3DFACE
 8
sk
10
0.275410295048137
20
0.170583510307598
30
0.704083075064421
11
0.277729315319439
21
0.170003628067302
31
0.702924812430143
12
0.277874098148723
22
0.167539824966717
32
0.702780053824186
13
0.277874098148723
23
0.167539824966717
33
0.702780053824186
70
0
  0
3DFACE
 8
sk
10
0.279613236179729
20
0.171597983269024
30
0.704951772040129
11
0.274685629978557
21
0.172612456230449
31
0.70611255390048
12
0.278743788280864
22
0.177250242428112
32
0.712198374289274
13
0.278743788280864
23
0.177250242428112
33
0.712198374289274
70
0
  0
3DFACE
 8
sk
10
0.282077039280315
20
0.176815397362041
30
0.712198374289274
11
0.279613236179729
21
0.171597983269024
31
0.704951772040129
12
0.278743788280864
22
0.177250242428112
32
0.712198374289274
13
0.278743788280864
23
0.177250242428112
33
0.712198374289274
70
0
  0
3DFACE
 8
sk
10
0.274685629978557
20
0.172612456230449
30
0.70611255390048
11
0.277729315319439
21
0.170003628067302
31
0.702924812430143
12
0.275410295048137
22
0.170583510307598
32
0.704083075064421
13
0.275410295048137
23
0.170583510307598
33
0.704083075064421
70
0
  0
3DFACE
 8
sk
10
0.279613236179729
20
0.171597983269024
30
0.704951772040129
11
0.277729315319439
21
0.170003628067302
31
0.702924812430143
12
0.274685629978557
22
0.172612456230449
32
0.70611255390048
13
0.274685629978557
23
0.172612456230449
33
0.70611255390048
70
0
  0
3DFACE
 8
sk
10
0.279178379001995
20
0.16464117680006
30
0.710461028784513
11
0.278019123211284
21
0.163047075943279
31
0.711474484366178
12
0.275410295048137
22
0.16391651173048
32
0.707707660025358
13
0.275410295048137
23
0.16391651173048
33
0.707707660025358
70
0
  0
3DFACE
 8
sk
10
0.279178379001995
20
0.16464117680006
30
0.710461028784513
11
0.275410295048137
21
0.16391651173048
31
0.707707660025358
12
0.278019123211284
22
0.16420658607893
32
0.706981202429533
13
0.278019123211284
23
0.16420658607893
33
0.706981202429533
70
0
  0
3DFACE
 8
sk
10
0.237148495331188
20
0.172177611164379
30
0.753359088629484
11
0.240481988563915
21
0.170728293136883
31
0.75176650173068
12
0.235554394474407
22
0.170293435959148
32
0.755967650336027
13
0.235554394474407
23
0.170293435959148
33
0.755967650336027
70
0
  0
3DFACE
 8
sk
10
0.235554394474407
20
0.170293435959148
30
0.755967650336027
11
0.236713904610057
21
0.174931222156811
31
0.762056038397551
12
0.235264574470897
22
0.176380552295971
32
0.76060569087863
13
0.235264574470897
23
0.176380552295971
33
0.76060569087863
70
0
  0
3DFACE
 8
sk
10
0.278019123211284
20
0.16420658607893
30
0.706981202429533
11
0.275410295048137
21
0.16391651173048
31
0.707707660025358
12
0.275410295048137
22
0.165221059040355
32
0.705822988241911
13
0.275410295048137
23
0.165221059040355
33
0.705822988241911
70
0
  0
3DFACE
 8
sk
10
0.278019123211284
20
0.16420658607893
30
0.706981202429533
11
0.275410295048137
21
0.165221059040355
31
0.705822988241911
12
0.277729315319439
22
0.16493099680357
32
0.704806964987516
13
0.277729315319439
23
0.16493099680357
33
0.704806964987516
70
0
  0
3DFACE
 8
sk
10
0.298889046039959
20
0.216381483988094
30
0.834085314291716
11
0.298309406032939
21
0.223193259338665
31
0.847999484366178
12
0.289468690815349
22
0.21391768694334
32
0.836549117392302
13
0.289468690815349
23
0.21391768694334
33
0.836549117392302
70
0
  0
3DFACE
 8
sk
10
0.298309406032939
20
0.223193259338665
30
0.847999484366178
11
0.289758498707195
21
0.219859760050106
31
0.848578615683317
12
0.289468690815349
22
0.21391768694334
32
0.836549117392302
13
0.289468690815349
23
0.21391768694334
33
0.836549117392302
70
0
  0
3DFACE
 8
sk
10
0.289758498707195
20
0.219859760050106
30
0.848578615683317
11
0.271497161808391
21
0.230439879755306
31
0.844230140799284
12
0.289468690815349
22
0.21391768694334
32
0.836549117392302
13
0.289468690815349
23
0.21391768694334
33
0.836549117392302
70
0
  0
3DFACE
 8
sk
10
0.271497161808391
20
0.230439879755306
30
0.844230140799284
11
0.277004650249858
21
0.214062718061733
31
0.831911125296354
12
0.289468690815349
22
0.21391768694334
32
0.836549117392302
13
0.289468690815349
23
0.21391768694334
33
0.836549117392302
70
0
  0
3DFACE
 8
sk
10
0.267149195614238
20
0.234353000883388
30
0.825535739248991
11
0.277004650249858
21
0.214062718061733
31
0.831911125296354
12
0.271497161808391
22
0.230439879755306
32
0.844230140799284
13
0.271497161808391
23
0.230439879755306
33
0.844230140799284
70
0
  0
3DFACE
 8
sk
10
0.282077039280315
20
0.169713808063793
30
0.709010681265593
11
0.283526369419475
21
0.16536584186964
31
0.715099069327116
12
0.28120759138145
22
0.166670389179516
32
0.709445005530119
13
0.28120759138145
23
0.166670389179516
33
0.709445005530119
70
0
  0
3DFACE
 8
sk
10
0.282077039280315
20
0.169713808063793
30
0.709010681265593
11
0.282077039280315
21
0.176815397362041
31
0.712198374289274
12
0.298744263210674
22
0.177105217365551
32
0.733069532507658
13
0.298744263210674
23
0.177105217365551
33
0.733069532507658
70
0
  0
3DFACE
 8
sk
10
0.283526369419475
20
0.16536584186964
30
0.715099069327116
11
0.279178379001995
21
0.16464117680006
31
0.710461028784513
12
0.28120759138145
22
0.166670389179516
32
0.709445005530119
13
0.28120759138145
23
0.166670389179516
33
0.709445005530119
70
0
  0
3DFACE
 8
sk
10
0.285120724621196
20
0.206816097645092
30
0.708431549948454
11
0.269033370819469
21
0.198700035385418
31
0.690750603979826
12
0.267584052791973
22
0.201888497499752
32
0.690168953436613
13
0.267584052791973
23
0.201888497499752
33
0.690168953436613
70
0
  0
3DFACE
 8
sk
10
0.267584052791973
20
0.201888497499752
30
0.690168953436613
11
0.269033370819469
21
0.198700035385418
31
0.690750603979826
12
0.268018897858043
22
0.198409973148632
32
0.690458519095182
13
0.268018897858043
23
0.198409973148632
33
0.690458519095182
70
0
  0
3DFACE
 8
sk
10
0.282946729412456
20
0.193337590174007
30
0.702053596228361
11
0.27019288095512
21
0.186380789760875
31
0.690895411032438
12
0.27135213674583
22
0.189569245819378
32
0.694372669714689
13
0.27135213674583
23
0.189569245819378
33
0.694372669714689
70
0
  0
3DFACE
 8
sk
10
0.271207353916545
20
0.179859082702923
30
0.689155497854948
11
0.298309406032939
21
0.195221511034298
31
0.719300217932463
12
0.274540847149273
22
0.178554535393047
32
0.694662235373259
13
0.274540847149273
23
0.178554535393047
33
0.694662235373259
70
0
  0
3DFACE
 8
sk
10
0.279613236179729
20
0.171597983269024
30
0.704951772040129
11
0.282077039280315
21
0.169713808063793
31
0.709010681265593
12
0.280337901249309
22
0.168699335102367
32
0.705388615530729
13
0.280337901249309
23
0.168699335102367
33
0.705388615530729
70
0
  0
3DFACE
 8
sk
10
0.279613236179729
20
0.171597983269024
30
0.704951772040129
11
0.282077039280315
21
0.176815397362041
31
0.712198374289274
12
0.282077039280315
22
0.169713808063793
32
0.709010681265593
13
0.282077039280315
23
0.169713808063793
33
0.709010681265593
70
0
  0
3DFACE
 8
sk
10
0.254540384331127
20
0.176670614532757
30
0.772200816458464
11
0.236713904610057
21
0.174931222156811
31
0.762056038397551
12
0.24323561166801
22
0.167104979900646
32
0.753938171499968
13
0.24323561166801
23
0.167104979900646
33
0.753938171499968
70
0
  0
3DFACE
 8
sk
10
0.271207353916545
20
0.179859082702923
30
0.689155497854948
11
0.282946729412456
21
0.193337590174007
31
0.702053596228361
12
0.298309406032939
22
0.195221511034298
32
0.719300217932463
13
0.298309406032939
23
0.195221511034298
33
0.719300217932463
70
0
  0
3DFACE
 8
sk
10
0.24323561166801
20
0.167104979900646
30
0.753938171499968
11
0.236713904610057
21
0.174931222156811
31
0.762056038397551
12
0.235554394474407
22
0.170293435959148
32
0.755967650336027
13
0.235554394474407
23
0.170293435959148
33
0.755967650336027
70
0
  0
3DFACE
 8
sk
10
0.277874098148723
20
0.167539824966717
30
0.702780053824186
11
0.279613236179729
21
0.171597983269024
31
0.704951772040129
12
0.280337901249309
22
0.168699335102367
32
0.705388615530729
13
0.280337901249309
23
0.168699335102367
33
0.705388615530729
70
0
  0
3DFACE
 8
sk
10
0.279613236179729
20
0.171597983269024
30
0.704951772040129
11
0.277874098148723
21
0.167539824966717
31
0.702780053824186
12
0.277729315319439
22
0.170003628067302
32
0.702924812430143
13
0.277729315319439
23
0.170003628067302
33
0.702924812430143
70
0
  0
3DFACE
 8
sk
10
0.280337901249309
20
0.168699335102367
30
0.705388615530729
11
0.279613236179729
21
0.16536584186964
31
0.706257312506437
12
0.277729315319439
22
0.16493099680357
32
0.704806964987516
13
0.277729315319439
23
0.16493099680357
33
0.704806964987516
70
0
  0
3DFACE
 8
sk
10
0.277874098148723
20
0.167539824966717
30
0.702780053824186
11
0.280337901249309
21
0.168699335102367
31
0.705388615530729
12
0.277729315319439
22
0.16493099680357
32
0.704806964987516
13
0.277729315319439
23
0.16493099680357
33
0.704806964987516
70
0
  0
3DFACE
 8
sk
10
0.280337901249309
20
0.168699335102367
30
0.705388615530729
11
0.282077039280315
21
0.169713808063793
31
0.709010681265593
12
0.28120759138145
22
0.166670389179516
32
0.709445005530119
13
0.28120759138145
23
0.166670389179516
33
0.709445005530119
70
0
  0
3DFACE
 8
sk
10
0.280337901249309
20
0.168699335102367
30
0.705388615530729
11
0.28120759138145
21
0.166670389179516
31
0.709445005530119
12
0.279613236179729
22
0.16536584186964
32
0.706257312506437
13
0.279613236179729
23
0.16536584186964
33
0.706257312506437
70
0
  0
3DFACE
 8
sk
10
0.28120759138145
20
0.166670389179516
30
0.709445005530119
11
0.279178379001995
21
0.16464117680006
31
0.710461028784513
12
0.279613236179729
22
0.16536584186964
32
0.706257312506437
13
0.279613236179729
23
0.16536584186964
33
0.706257312506437
70
0
  0
3DFACE
 8
sk
10
0.279613236179729
20
0.16536584186964
30
0.706257312506437
11
0.279178379001995
21
0.16464117680006
31
0.710461028784513
12
0.278019123211284
22
0.16420658607893
32
0.706981202429533
13
0.278019123211284
23
0.16420658607893
33
0.706981202429533
70
0
  0
3DFACE
 8
sk
10
0.269033370819469
20
0.198700035385418
30
0.690750603979826
11
0.27207680181541
21
0.197395494131374
31
0.695678210180998
12
0.268743562927623
22
0.196381015114116
32
0.691040169638395
13
0.268743562927623
23
0.196381015114116
33
0.691040169638395
70
0
  0
3DFACE
 8
sk
10
0.269033370819469
20
0.198700035385418
30
0.690750603979826
11
0.268743562927623
21
0.196381015114116
31
0.691040169638395
12
0.268018897858043
22
0.198409973148632
32
0.690458519095182
13
0.268018897858043
23
0.198409973148632
33
0.690458519095182
70
0
  0
3DFACE
 8
sk
10
0.264975212517162
20
0.222323563150692
30
0.706691636770964
11
0.273671157017131
21
0.226236684278774
31
0.714083046072721
12
0.266714350548168
22
0.219569946102428
32
0.709589812582731
13
0.266714350548168
23
0.219569946102428
33
0.709589812582731
70
0
  0
3DFACE
 8
sk
10
0.264975212517162
20
0.22797607665472
30
0.70915543987155
11
0.273671157017131
21
0.226236684278774
31
0.714083046072721
12
0.264975212517162
22
0.222323563150692
32
0.706691636770964
13
0.264975212517162
23
0.222323563150692
33
0.706691636770964
70
0
  0
3DFACE
 8
sk
10
0.269033370819469
20
0.198700035385418
30
0.690750603979826
11
0.285120724621196
21
0.206816097645092
31
0.708431549948454
12
0.27207680181541
22
0.197395494131374
32
0.695678210180998
13
0.27207680181541
23
0.197395494131374
33
0.695678210180998
70
0
  0
3DFACE
 8
sk
10
0.277874098148723
20
0.217830808071422
30
0.708286791342497
11
0.267584052791973
21
0.201888497499752
31
0.690168953436613
12
0.264975212517162
22
0.204207263426113
32
0.691764059561491
13
0.264975212517162
23
0.204207263426113
33
0.691764059561491
70
0
  0
3DFACE
 8
sk
10
0.254540384331127
20
0.176670614532757
30
0.772200816458464
11
0.24323561166801
21
0.167104979900646
31
0.753938171499968
12
0.246569104900737
22
0.169278962997722
32
0.753938171499968
13
0.246569104900737
23
0.169278962997722
33
0.753938171499968
70
0
  0
3DFACE
 8
sk
10
0.274540847149273
20
0.178554535393047
30
0.694662235373259
11
0.298309406032939
21
0.195221511034298
31
0.719300217932463
12
0.278163906040569
22
0.179134417633343
32
0.700895382040739
13
0.278163906040569
23
0.179134417633343
33
0.700895382040739
70
0
  0
3DFACE
 8
sk
10
0.279613236179729
20
0.16536584186964
30
0.706257312506437
11
0.278019123211284
21
0.16420658607893
31
0.706981202429533
12
0.277729315319439
22
0.16493099680357
32
0.704806964987516
13
0.277729315319439
23
0.16493099680357
33
0.704806964987516
70
0
  0
3DFACE
 8
sk
10
0.264975212517162
20
0.222323563150692
30
0.706691636770964
11
0.266714350548168
21
0.219569946102428
31
0.709589812582731
12
0.265555094757457
22
0.224497546247768
32
0.708576308554411
13
0.265555094757457
23
0.224497546247768
33
0.708576308554411
70
0
  0
3DFACE
 8
sk
10
0.264975212517162
20
0.222323563150692
30
0.706691636770964
11
0.265555094757457
21
0.224497546247768
31
0.708576308554411
12
0.264975212517162
22
0.22797607665472
32
0.70915543987155
13
0.264975212517162
23
0.22797607665472
33
0.70915543987155
70
0
  0
3DFACE
 8
sk
10
0.271207353916545
20
0.179859082702923
30
0.689155497854948
11
0.274540847149273
21
0.178554535393047
31
0.694662235373259
12
0.27207680181541
22
0.180293673424053
32
0.690750603979826
13
0.27207680181541
23
0.180293673424053
33
0.690750603979826
70
0
  0
3DFACE
 8
sk
10
0.271207353916545
20
0.179859082702923
30
0.689155497854948
11
0.27207680181541
21
0.180293673424053
31
0.690750603979826
12
0.271207353916545
22
0.182902513698864
32
0.689734629172087
13
0.271207353916545
23
0.182902513698864
33
0.689734629172087
70
0
  0
3DFACE
 8
sk
10
0.282946729412456
20
0.193337590174007
30
0.702053596228361
11
0.271207353916545
21
0.182902513698864
31
0.689734629172087
12
0.27019288095512
22
0.186380789760875
32
0.690895411032438
13
0.27019288095512
23
0.186380789760875
33
0.690895411032438
70
0
  0
3DFACE
 8
sk
10
0.282946729412456
20
0.193337590174007
30
0.702053596228361
11
0.271207353916545
21
0.179859082702923
31
0.689155497854948
12
0.271207353916545
22
0.182902513698864
32
0.689734629172087
13
0.271207353916545
23
0.182902513698864
33
0.689734629172087
70
0
  0
3DFACE
 8
sk
10
0.27207680181541
20
0.197395494131374
30
0.695678210180998
11
0.269178407993694
21
0.196960897354412
31
0.69234319087863
12
0.268743562927623
22
0.196381015114116
32
0.691040169638395
13
0.268743562927623
23
0.196381015114116
33
0.691040169638395
70
0
  0
3DFACE
 8
sk
10
0.268018897858043
20
0.198409973148632
30
0.690458519095182
11
0.268743562927623
21
0.196381015114116
31
0.691040169638395
12
0.269178407993694
22
0.196960897354412
32
0.69234319087863
13
0.269178407993694
23
0.196960897354412
33
0.69234319087863
70
0
 0
ENDSEC
 0
EOF
