 0
SECTION
 2
ENTITIES
  0
3DFACE
 8
jean blue
10
0.0271120878843265
20
0.278783545766401
30
0.494812466925383
11
0.0258077979473072
21
0.334147060970592
31
0.496262814444303
12
0.0165322255519825
22
0.298494123480844
32
0.531190333670378
13
0.0165322255519825
23
0.298494123480844
33
0.531190333670378
70
0
  0
3DFACE
 8
jean blue
10
-0.0818757575603527
20
0.356466295770931
30
0.410753692740202
11
-0.0727452223392529
21
0.244145211438465
31
0.475246849173307
12
-0.053614195308308
22
0.323567198638248
32
0.517713103979826
13
-0.053614195308308
23
0.323567198638248
33
0.517713103979826
70
0
  0
3DFACE
 8
jean blue
10
0.00667677091636236
20
0.322697505478191
30
0.529887312430143
11
0.000155069914241386
21
0.350959067730236
31
0.493075121420622
12
-0.053614195308308
22
0.323567198638248
32
0.517713103979826
13
-0.053614195308308
23
0.323567198638248
33
0.517713103979826
70
0
  0
3DFACE
 8
jean blue
10
0.0258077979473072
20
0.334147060970592
30
0.496262814444303
11
0.000155069914241386
21
0.350959067730236
31
0.493075121420622
12
0.00667677091636236
22
0.322697505478191
32
0.529887312430143
13
0.00667677091636236
23
0.322697505478191
33
0.529887312430143
70
0
  0
3DFACE
 8
jean blue
10
0.0258077979473072
20
0.334147060970592
30
0.496262814444303
11
0.00667677091636236
21
0.322697505478191
31
0.529887312430143
12
0.0165322255519825
22
0.298494123480844
32
0.531190333670378
13
0.0165322255519825
23
0.298494123480844
33
0.531190333670378
70
0
  0
3DFACE
 8
jean blue
10
0.0271120878843265
20
0.278783545766401
30
0.494812466925383
11
0.0165322255519825
21
0.298494123480844
31
0.531190333670378
12
0.0100102702049213
22
0.269797838036346
32
0.530032119482756
13
0.0100102702049213
23
0.269797838036346
33
0.530032119482756
70
0
  0
3DFACE
 8
jean blue
10
-0.0186858888240856
20
0.227623015598583
30
0.487565864676237
11
0.0100102702049213
21
0.269797838036346
31
0.530032119482756
12
-0.0108596405120892
22
0.246318943218517
32
0.526117968863249
13
-0.0108596405120892
23
0.246318943218517
33
0.526117968863249
70
0
  0
3DFACE
 8
jean blue
10
-0.0186858888240856
20
0.227623015598583
30
0.487565864676237
11
0.0271120878843265
21
0.278783545766401
31
0.494812466925383
12
0.0100102702049213
22
0.269797838036346
32
0.530032119482756
13
0.0100102702049213
23
0.269797838036346
33
0.530032119482756
70
0
  0
3DFACE
 8
jean blue
10
-0.0108596405120892
20
0.246318943218517
30
0.526117968863249
11
-0.0405705268474621
21
0.239942018989849
31
0.518871366614103
12
-0.0186858888240856
22
0.227623015598583
32
0.487565864676237
13
-0.0186858888240856
23
0.227623015598583
33
0.487565864676237
70
0
  0
3DFACE
 8
jean blue
10
-0.0186858888240856
20
0.227623015598583
30
0.487565864676237
11
-0.0405705268474621
21
0.239942018989849
31
0.518871366614103
12
-0.0376718786808056
22
0.222840198282528
32
0.483219909018278
13
-0.0376718786808056
23
0.222840198282528
33
0.483219909018278
70
0
  0
3DFACE
 8
jean blue
10
-0.0376718786808056
20
0.222840198282528
30
0.483219909018278
11
-0.0405705268474621
21
0.239942018989849
31
0.518871366614103
12
-0.0727452223392529
22
0.244145211438465
32
0.475246849173307
13
-0.0727452223392529
23
0.244145211438465
33
0.475246849173307
70
0
  0
3DFACE
 8
jean blue
10
-0.0727452223392529
20
0.244145211438465
30
0.475246849173307
11
-0.0405705268474621
21
0.239942018989849
31
0.518871366614103
12
-0.053614195308308
22
0.323567198638248
32
0.517713103979826
13
-0.053614195308308
23
0.323567198638248
33
0.517713103979826
70
0
  0
3DFACE
 8
jean blue
10
-0.053614195308308
20
0.323567198638248
30
0.517713103979826
11
-0.0405705268474621
21
0.239942018989849
31
0.518871366614103
12
-0.0254976641746563
22
0.284001035935807
32
0.537133963125944
13
-0.0254976641746563
23
0.284001035935807
33
0.537133963125944
70
0
  0
3DFACE
 8
jean blue
10
-0.053614195308308
20
0.323567198638248
30
0.517713103979826
11
-0.0254976641746563
21
0.284001035935807
31
0.537133963125944
12
0.00667677091636236
22
0.322697505478191
32
0.529887312430143
13
0.00667677091636236
23
0.322697505478191
33
0.529887312430143
70
0
  0
3DFACE
 8
jean blue
10
0.00667677091636236
20
0.322697505478191
30
0.529887312430143
11
-0.0254976641746563
21
0.284001035935807
31
0.537133963125944
12
0.0165322255519825
22
0.298494123480844
32
0.531190333670378
13
0.0165322255519825
23
0.298494123480844
33
0.531190333670378
70
0
  0
3DFACE
 8
jean blue
10
-0.0254976641746563
20
0.284001035935807
30
0.537133963125944
11
-0.0108596405120892
21
0.246318943218517
31
0.526117968863249
12
0.0100102702049213
22
0.269797838036346
32
0.530032119482756
13
0.0100102702049213
23
0.269797838036346
33
0.530032119482756
70
0
  0
3DFACE
 8
jean blue
10
0.0165322255519825
20
0.298494123480844
30
0.531190333670378
11
-0.0254976641746563
21
0.284001035935807
31
0.537133963125944
12
0.0100102702049213
22
0.269797838036346
32
0.530032119482756
13
0.0100102702049213
23
0.269797838036346
33
0.530032119482756
70
0
  0
3DFACE
 8
jean blue
10
-0.0254976641746563
20
0.284001035935807
30
0.537133963125944
11
-0.0405705268474621
21
0.239942018989849
31
0.518871366614103
12
-0.0108596405120892
22
0.246318943218517
32
0.526117968863249
13
-0.0108596405120892
23
0.246318943218517
33
0.526117968863249
70
0
  0
3DFACE
 8
jean blue
10
-0.0388313888164562
20
0.372553637460995
30
0.101181309622526
11
-0.0557881784053845
21
0.362408623222637
31
0.0632095781981945
12
-0.0818757575603527
22
0.356466295770931
32
0.410753692740202
13
-0.0818757575603527
23
0.356466295770931
33
0.410753692740202
70
0
  0
3DFACE
 8
jean blue
10
-0.0320196195217175
20
0.367771074489879
30
0.0633543549716473
11
-0.0191207399459881
21
0.351828509573269
31
0.0640792743861675
12
-0.0557881784053845
22
0.362408623222637
32
0.0632095781981945
13
-0.0557881784053845
23
0.362408623222637
33
0.0632095781981945
70
0
  0
3DFACE
 8
jean blue
10
-0.040715564021687
20
0.371249350551891
30
0.402638393515348
11
-0.0818757575603527
21
0.356466295770931
31
0.410753692740202
12
-0.053614195308308
22
0.323567198638248
32
0.517713103979826
13
-0.053614195308308
23
0.323567198638248
33
0.517713103979826
70
0
  0
3DFACE
 8
jean blue
10
0.000155069914241386
20
0.350959067730236
30
0.493075121420622
11
-0.040715564021687
21
0.371249350551891
31
0.402638393515348
12
-0.053614195308308
22
0.323567198638248
32
0.517713103979826
13
-0.053614195308308
23
0.323567198638248
33
0.517713103979826
70
0
  0
3DFACE
 8
jean blue
10
-0.0766583434673351
20
0.327480322794246
30
0.0565428400218487
11
-0.0818757575603527
21
0.356466295770931
31
0.410753692740202
12
-0.0557881784053845
22
0.362408623222637
32
0.0632095781981945
13
-0.0557881784053845
23
0.362408623222637
33
0.0632095781981945
70
0
  0
3DFACE
 8
jean blue
10
-0.0191207399459881
20
0.351828509573269
30
0.0640792743861675
11
-0.0166569368454022
21
0.371684195617962
31
0.184661449068785
12
0.0143582363990741
22
0.339219695262241
32
0.248285145491362
13
0.0143582363990741
23
0.339219695262241
33
0.248285145491362
70
0
  0
3DFACE
 8
jean blue
10
-0.0166569368454022
20
0.371684195617962
30
0.184661449068785
11
-0.0320196195217175
21
0.367771074489879
31
0.0633543549716473
12
-0.0388313888164562
22
0.372553637460995
32
0.101181309622526
13
-0.0388313888164562
23
0.372553637460995
33
0.101181309622526
70
0
  0
3DFACE
 8
jean blue
10
-0.0557881784053845
20
0.362408623222637
30
0.0632095781981945
11
-0.0191207399459881
21
0.351828509573269
31
0.0640792743861675
12
-0.0766583434673351
22
0.327480322794246
32
0.0565428400218487
13
-0.0766583434673351
23
0.327480322794246
33
0.0565428400218487
70
0
  0
3DFACE
 8
jean blue
10
-0.0191207399459881
20
0.351828509573269
30
0.0640792743861675
11
0.0143582363990741
21
0.339219695262241
31
0.248285145491362
12
0.00189420794524725
22
0.310668293325233
32
0.0879926100432873
13
0.00189420794524725
23
0.310668293325233
33
0.0879926100432873
70
0
  0
3DFACE
 8
jean blue
10
-0.0320196195217175
20
0.367771074489879
30
0.0633543549716473
11
-0.0166569368454022
21
0.371684195617962
31
0.184661449068785
12
-0.0191207399459881
22
0.351828509573269
32
0.0640792743861675
13
-0.0191207399459881
23
0.351828509573269
33
0.0640792743861675
70
0
  0
3DFACE
 8
jean blue
10
-0.00796124669037287
20
0.310088588218021
30
0.0630645410239696
11
-0.0191207399459881
21
0.351828509573269
31
0.0640792743861675
12
-0.00201891923866694
22
0.310523360614109
32
0.0716154544055462
13
-0.00201891923866694
23
0.310523360614109
33
0.0716154544055462
70
0
  0
3DFACE
 8
jean blue
10
-0.0388313888164562
20
0.372553637460995
30
0.101181309622526
11
-0.0818757575603527
21
0.356466295770931
31
0.410753692740202
12
-0.040715564021687
22
0.371249350551891
32
0.402638393515348
13
-0.040715564021687
23
0.371249350551891
33
0.402638393515348
70
0
  0
3DFACE
 8
jean blue
10
-0.0166569368454022
20
0.371684195617962
30
0.184661449068785
11
-0.0388313888164562
21
0.372553637460995
31
0.101181309622526
12
-0.040715564021687
22
0.371249350551891
32
0.402638393515348
13
-0.040715564021687
23
0.371249350551891
33
0.402638393515348
70
0
  0
3DFACE
 8
jean blue
10
-0.0320196195217175
20
0.367771074489879
30
0.0633543549716473
11
-0.0557881784053845
21
0.362408623222637
31
0.0632095781981945
12
-0.0388313888164562
22
0.372553637460995
32
0.101181309622526
13
-0.0388313888164562
23
0.372553637460995
33
0.101181309622526
70
0
  0
3DFACE
 8
jean blue
10
0.0175467015413242
20
0.346756132654476
30
0.476841955298185
11
-0.0166569368454022
21
0.371684195617962
31
0.184661449068785
12
-0.040715564021687
22
0.371249350551891
32
0.402638393515348
13
-0.040715564021687
23
0.371249350551891
33
0.402638393515348
70
0
  0
3DFACE
 8
jean blue
10
-0.0166569368454022
20
0.371684195617962
30
0.184661449068785
11
0.0175467015413242
21
0.346756132654476
31
0.476841955298185
12
0.0143582363990741
22
0.339219695262241
32
0.248285145491362
13
0.0143582363990741
23
0.339219695262241
33
0.248285145491362
70
0
  0
3DFACE
 8
jean blue
10
0.0143582363990741
20
0.339219695262241
30
0.248285145491362
11
0.0175467015413242
21
0.346756132654476
31
0.476841955298185
12
0.0285614119676548
22
0.318059719280529
32
0.347997930258513
13
0.0285614119676548
23
0.318059719280529
33
0.347997930258513
70
0
  0
3DFACE
 8
jean blue
10
0.0285614119676548
20
0.318059719280529
30
0.347997930258513
11
0.0175467015413242
21
0.346756132654476
31
0.476841955298185
12
0.0258077979473072
22
0.334147060970592
32
0.496262814444303
13
0.0258077979473072
23
0.334147060970592
33
0.496262814444303
70
0
  0
3DFACE
 8
jean blue
10
-0.0766583434673351
20
0.327480322794246
30
0.0565428400218487
11
-0.0727452223392529
21
0.244145211438465
31
0.475246849173307
12
-0.0818757575603527
22
0.356466295770931
32
0.410753692740202
13
-0.0818757575603527
23
0.356466295770931
33
0.410753692740202
70
0
  0
3DFACE
 8
jean blue
10
-0.0191207399459881
20
0.351828509573269
30
0.0640792743861675
11
0.00189420794524725
21
0.310668293325233
31
0.0879926100432873
12
-0.00201891923866694
22
0.310523360614109
32
0.0716154544055462
13
-0.00201891923866694
23
0.310523360614109
33
0.0716154544055462
70
0
  0
3DFACE
 8
jean blue
10
0.0258077979473072
20
0.334147060970592
30
0.496262814444303
11
0.0175467015413242
21
0.346756132654476
31
0.476841955298185
12
0.000155069914241386
22
0.350959067730236
32
0.493075121420622
13
0.000155069914241386
23
0.350959067730236
33
0.493075121420622
70
0
  0
3DFACE
 8
jean blue
10
0.0285614119676548
20
0.318059719280529
30
0.347997930258513
11
0.0258077979473072
21
0.334147060970592
31
0.496262814444303
12
0.0271120878843265
22
0.278783545766401
32
0.494812466925383
13
0.0271120878843265
23
0.278783545766401
33
0.494812466925383
70
0
  0
3DFACE
 8
jean blue
10
0.0175467015413242
20
0.346756132654476
30
0.476841955298185
11
-0.040715564021687
21
0.371249350551891
31
0.402638393515348
12
0.000155069914241386
22
0.350959067730236
32
0.493075121420622
13
0.000155069914241386
23
0.350959067730236
33
0.493075121420622
70
0
  0
3DFACE
 8
jean blue
10
-0.0766583434673351
20
0.327480322794246
30
0.0565428400218487
11
-0.0497010741802258
21
0.247768267301845
31
0.330896115607023
12
-0.0727452223392529
22
0.244145211438465
32
0.475246849173307
13
-0.0727452223392529
23
0.244145211438465
33
0.475246849173307
70
0
  0
3DFACE
 8
jean blue
10
0.00189420794524725
20
0.310668293325233
30
0.0879926100432873
11
0.0143582363990741
21
0.339219695262241
31
0.248285145491362
12
0.0155177465347248
22
0.29776946143918
32
0.306402891653776
13
0.0155177465347248
23
0.29776946143918
33
0.306402891653776
70
0
  0
3DFACE
 8
jean blue
10
0.00189420794524725
20
0.310668293325233
30
0.0879926100432873
11
0.0155177465347248
21
0.29776946143918
31
0.306402891653776
12
-0.0137582886787457
22
0.281537236241627
32
0.149008489626646
13
-0.0137582886787457
23
0.281537236241627
33
0.149008489626646
70
0
  0
3DFACE
 8
jean blue
10
-0.0137582886787457
20
0.281537236241627
30
0.149008489626646
11
-0.0411501547428173
21
0.268783312086391
31
0.0808910268008709
12
-0.0186858888240856
22
0.274870422367382
32
0.0678473643958569
13
-0.0186858888240856
23
0.274870422367382
33
0.0678473643958569
70
0
  0
3DFACE
 8
jean blue
10
0.00189420794524725
20
0.310668293325233
30
0.0879926100432873
11
-0.0137582886787457
21
0.281537236241627
31
0.149008489626646
12
0.000155069914241386
22
0.29747959677391
32
0.0882826783359051
13
0.000155069914241386
23
0.29747959677391
33
0.0882826783359051
70
0
  0
3DFACE
 8
jean blue
10
-0.00201891923866694
20
0.310523360614109
30
0.0716154544055462
11
0.00189420794524725
21
0.310668293325233
31
0.0879926100432873
12
0.000155069914241386
22
0.29747959677391
32
0.0882826783359051
13
0.000155069914241386
23
0.29747959677391
33
0.0882826783359051
70
0
  0
3DFACE
 8
jean blue
10
-0.00390308838806574
20
0.296465095425772
30
0.0714706715762615
11
-0.00201891923866694
21
0.310523360614109
31
0.0716154544055462
12
0.000155069914241386
22
0.29747959677391
32
0.0882826783359051
13
0.000155069914241386
23
0.29747959677391
33
0.0882826783359051
70
0
  0
3DFACE
 8
jean blue
10
0.000155069914241386
20
0.29747959677391
30
0.0882826783359051
11
-0.0137582886787457
21
0.281537236241627
31
0.149008489626646
12
-0.00390308838806574
22
0.296465095425772
32
0.0714706715762615
13
-0.00390308838806574
23
0.296465095425772
33
0.0714706715762615
70
0
  0
3DFACE
 8
jean blue
10
-0.0191207399459881
20
0.351828509573269
30
0.0640792743861675
11
-0.0186858888240856
21
0.274870422367382
31
0.0678473643958569
12
-0.0411501547428173
22
0.268783312086391
32
0.0808910268008709
13
-0.0411501547428173
23
0.268783312086391
33
0.0808910268008709
70
0
  0
3DFACE
 8
jean blue
10
-0.0191207399459881
20
0.351828509573269
30
0.0640792743861675
11
-0.00970038472137873
21
0.294580999703336
31
0.0630645410239696
12
-0.0186858888240856
22
0.274870422367382
32
0.0678473643958569
13
-0.0186858888240856
23
0.274870422367382
33
0.0678473643958569
70
0
  0
3DFACE
 8
jean blue
10
-0.0191207399459881
20
0.351828509573269
30
0.0640792743861675
11
-0.00796124669037287
21
0.310088588218021
31
0.0630645410239696
12
-0.00970038472137873
22
0.294580999703336
32
0.0630645410239696
13
-0.00970038472137873
23
0.294580999703336
33
0.0630645410239696
70
0
  0
3DFACE
 8
jean blue
10
-0.0186858888240856
20
0.274870422367382
30
0.0678473643958569
11
-0.00390308838806574
21
0.296465095425772
31
0.0714706715762615
12
-0.0137582886787457
22
0.281537236241627
32
0.149008489626646
13
-0.0137582886787457
23
0.281537236241627
33
0.149008489626646
70
0
  0
3DFACE
 8
jean blue
10
-0.00970038472137873
20
0.294580999703336
30
0.0630645410239696
11
-0.00390308838806574
21
0.296465095425772
31
0.0714706715762615
12
-0.0186858888240856
22
0.274870422367382
32
0.0678473643958569
13
-0.0186858888240856
23
0.274870422367382
33
0.0678473643958569
70
0
  0
3DFACE
 8
jean blue
10
-0.0186858888240856
20
0.227623015598583
30
0.487565864676237
11
-0.0376718786808056
21
0.222840198282528
31
0.483219909018278
12
-0.0331791296573681
22
0.242985701302814
32
0.377708301848173
13
-0.0331791296573681
23
0.242985701302814
33
0.377708301848173
70
0
  0
3DFACE
 8
jean blue
10
0.0155177465347248
20
0.29776946143918
30
0.306402891653776
11
0.0285614119676548
21
0.318059719280529
31
0.347997930258513
12
0.0271120878843265
22
0.278783545766401
32
0.494812466925383
13
0.0271120878843265
23
0.278783545766401
33
0.494812466925383
70
0
  0
3DFACE
 8
jean blue
10
0.0143582363990741
20
0.339219695262241
30
0.248285145491362
11
0.0285614119676548
21
0.318059719280529
31
0.347997930258513
12
0.0155177465347248
22
0.29776946143918
32
0.306402891653776
13
0.0155177465347248
23
0.29776946143918
33
0.306402891653776
70
0
  0
3DFACE
 8
jean blue
10
0.0155177465347248
20
0.29776946143918
30
0.306402891653776
11
-0.0331791296573681
21
0.242985701302814
31
0.377708301848173
12
-0.0497010741802258
22
0.247768267301845
32
0.330896115607023
13
-0.0497010741802258
23
0.247768267301845
33
0.330896115607023
70
0
  0
3DFACE
 8
jean blue
10
-0.0137582886787457
20
0.281537236241627
30
0.149008489626646
11
-0.0497010741802258
21
0.247768267301845
31
0.330896115607023
12
-0.0411501547428173
22
0.268783312086391
32
0.0808910268008709
13
-0.0411501547428173
23
0.268783312086391
33
0.0808910268008709
70
0
  0
3DFACE
 8
jean blue
10
0.0271120878843265
20
0.278783545766401
30
0.494812466925383
11
-0.0331791296573681
21
0.242985701302814
31
0.377708301848173
12
0.0155177465347248
22
0.29776946143918
32
0.306402891653776
13
0.0155177465347248
23
0.29776946143918
33
0.306402891653776
70
0
  0
3DFACE
 8
jean blue
10
-0.0331791296573681
20
0.242985701302814
30
0.377708301848173
11
0.0271120878843265
21
0.278783545766401
31
0.494812466925383
12
-0.0186858888240856
22
0.227623015598583
32
0.487565864676237
13
-0.0186858888240856
23
0.227623015598583
33
0.487565864676237
70
0
  0
3DFACE
 8
jean blue
10
-0.0331791296573681
20
0.242985701302814
30
0.377708301848173
11
-0.0376718786808056
21
0.222840198282528
31
0.483219909018278
12
-0.0727452223392529
22
0.244145211438465
32
0.475246849173307
13
-0.0727452223392529
23
0.244145211438465
33
0.475246849173307
70
0
  0
3DFACE
 8
jean blue
10
-0.0331791296573681
20
0.242985701302814
30
0.377708301848173
11
-0.0727452223392529
21
0.244145211438465
31
0.475246849173307
12
-0.0497010741802258
22
0.247768267301845
32
0.330896115607023
13
-0.0497010741802258
23
0.247768267301845
33
0.330896115607023
70
0
  0
3DFACE
 8
jean blue
10
-0.0191207399459881
20
0.351828509573269
30
0.0640792743861675
11
-0.0411501547428173
21
0.268783312086391
31
0.0808910268008709
12
-0.0766583434673351
22
0.327480322794246
32
0.0565428400218487
13
-0.0766583434673351
23
0.327480322794246
33
0.0565428400218487
70
0
  0
3DFACE
 8
jean blue
10
-0.00796124669037287
20
0.310088588218021
30
0.0630645410239696
11
-0.00390308838806574
21
0.296465095425772
31
0.0714706715762615
12
-0.00970038472137873
22
0.294580999703336
32
0.0630645410239696
13
-0.00970038472137873
23
0.294580999703336
33
0.0630645410239696
70
0
  0
3DFACE
 8
jean blue
10
-0.00796124669037287
20
0.310088588218021
30
0.0630645410239696
11
-0.00201891923866694
21
0.310523360614109
31
0.0716154544055462
12
-0.00390308838806574
22
0.296465095425772
32
0.0714706715762615
13
-0.00390308838806574
23
0.296465095425772
33
0.0714706715762615
70
0
  0
3DFACE
 8
jean blue
10
-0.0766583434673351
20
0.327480322794246
30
0.0565428400218487
11
-0.0411501547428173
21
0.268783312086391
31
0.0808910268008709
12
-0.0497010741802258
22
0.247768267301845
32
0.330896115607023
13
-0.0497010741802258
23
0.247768267301845
33
0.330896115607023
70
0
  0
3DFACE
 8
jean blue
10
0.0155177465347248
20
0.29776946143918
30
0.306402891653776
11
-0.0497010741802258
21
0.247768267301845
31
0.330896115607023
12
-0.0137582886787457
22
0.281537236241627
32
0.149008489626646
13
-0.0137582886787457
23
0.281537236241627
33
0.149008489626646
70
0
 0
ENDSEC
 0
EOF
