 0
SECTION
 2
ENTITIES
  0
3DFACE
 8
COMPONENT40
10
0.219292293587108
20
0.245260777429867
30
-0.0123191014200449
11
0.151754458656688
21
0.221782032493877
31
-0.00927556421048939
12
0.157551754990001
22
0.24236212926321
32
-0.00739146323651075
13
0.157551754990001
23
0.24236212926321
33
-0.00739146323651075
70
0
  0
3DFACE
 8
COMPONENT40
10
0.219292293587108
20
0.245260777429867
30
-0.0123191014200449
11
0.222045916691204
21
0.231637232784557
31
-0.0107248704575002
12
0.151754458656688
22
0.221782032493877
32
-0.00927556421048939
13
0.151754458656688
23
0.221782032493877
33
-0.00927556421048939
70
0
  0
3DFACE
 8
COMPONENT40
10
0.162479355135341
20
0.291058839960772
30
-0.00869583965837955
11
0.160015558090587
21
0.288595019638914
31
-0.00101450096964836
12
0.156682313146968
22
0.301493863163519
32
-0.000579729330539703
13
0.156682313146968
23
0.301493863163519
33
-0.000579729330539703
70
0
  0
3DFACE
 8
COMPONENT40
10
0.208567403164287
20
0.289319674016165
30
-0.00144929834604263
11
0.161175068226238
21
0.276855634586143
31
-0.0018840957224369
12
0.160015558090587
22
0.288595019638914
32
-0.00101450096964836
13
0.160015558090587
23
0.288595019638914
33
-0.00101450096964836
70
0
  0
3DFACE
 8
COMPONENT40
10
0.208567403164287
20
0.289319674016165
30
-0.00144929834604263
11
0.211611088505168
21
0.275696175925064
31
-0.00275368971824646
12
0.161175068226238
22
0.276855634586143
32
-0.0018840957224369
13
0.161175068226238
23
0.276855634586143
33
-0.0018840957224369
70
0
  0
3DFACE
 8
COMPONENT40
10
0.161175068226238
20
0.276855634586143
30
-0.0018840957224369
11
0.211611088505168
21
0.275696175925064
31
-0.00275368971824646
12
0.159870775261303
22
0.261782715896892
32
-0.00420298844277859
13
0.159870775261303
23
0.261782715896892
33
-0.00420298844277859
70
0
  0
3DFACE
 8
COMPONENT40
10
0.211611088505168
20
0.275696175925064
30
-0.00275368971824646
11
0.214799544563671
21
0.26091327405386
31
-0.00579721949994564
12
0.159870775261303
22
0.261782715896892
32
-0.00420298844277859
13
0.159870775261303
23
0.261782715896892
33
-0.00420298844277859
70
0
  0
3DFACE
 8
COMPONENT40
10
0.159870775261303
20
0.261782715896892
30
-0.00420298844277859
11
0.219292293587108
21
0.245260777429867
31
-0.0123191014200449
12
0.157551754990001
22
0.24236212926321
32
-0.00739146323651075
13
0.157551754990001
23
0.24236212926321
33
-0.00739146323651075
70
0
  0
3DFACE
 8
COMPONENT40
10
0.159870775261303
20
0.261782715896892
30
-0.00420298844277859
11
0.214799544563671
21
0.26091327405386
31
-0.00579721949994564
12
0.219292293587108
22
0.245260777429867
32
-0.0123191014200449
13
0.219292293587108
23
0.245260777429867
33
-0.0123191014200449
70
0
  0
3DFACE
 8
COMPONENT40
10
0.219292293587108
20
0.245260777429867
30
-0.0123191014200449
11
0.219147268524547
21
0.244246301440525
31
-0.00956542416829616
12
0.222045916691204
22
0.231637232784557
32
-0.0107248704575002
13
0.222045916691204
23
0.231637232784557
33
-0.0107248704575002
70
0
  0
3DFACE
 8
COMPONENT40
10
0.219292293587108
20
0.245260777429867
30
-0.0123191014200449
11
0.216973527660747
21
0.252362363700199
31
-0.00811611770838499
12
0.219147268524547
22
0.244246301440525
32
-0.00956542416829616
13
0.219147268524547
23
0.244246301440525
33
-0.00956542416829616
70
0
  0
3DFACE
 8
COMPONENT40
10
0.219292293587108
20
0.245260777429867
30
-0.0123191014200449
11
0.214799544563671
21
0.26091327405386
31
-0.00579721949994564
12
0.216973527660747
22
0.252362363700199
32
-0.00811611770838499
13
0.216973527660747
23
0.252362363700199
33
-0.00811611770838499
70
0
  0
3DFACE
 8
COMPONENT40
10
0.206393420067211
20
0.292218286415565
30
-0.0101451459053904
11
0.200741148796459
21
0.324682767657566
31
-0.0013043663918972
12
0.205378934994121
22
0.304247527901459
32
-0.00115943368077278
13
0.205378934994121
23
0.304247527901459
33
-0.00115943368077278
70
0
  0
3DFACE
 8
COMPONENT40
10
0.206393420067211
20
0.292218286415565
30
-0.0101451459053904
11
0.197117847671886
21
0.342799064354229
31
-0.000869593995809554
12
0.200741148796459
22
0.324682767657566
32
-0.0013043663918972
13
0.200741148796459
23
0.324682767657566
33
-0.0013043663918972
70
0
  0
3DFACE
 8
COMPONENT40
10
0.189726438370128
20
0.355987757877636
30
-0.00797118537575006
11
0.192625086536785
21
0.357147268013286
31
1.40998324127395e-018
12
0.197117847671886
22
0.342799064354229
32
-0.000869593995809554
13
0.197117847671886
23
0.342799064354229
33
-0.000869593995809554
70
0
  0
3DFACE
 8
COMPONENT40
10
0.206393420067211
20
0.292218286415565
30
-0.0101451459053904
11
0.189726438370128
21
0.355987757877636
31
-0.00797118537575006
12
0.197117847671886
22
0.342799064354229
32
-0.000869593995809554
13
0.197117847671886
23
0.342799064354229
33
-0.000869593995809554
70
0
  0
3DFACE
 8
COMPONENT40
10
0.189726438370128
20
0.355987757877636
30
-0.00797118537575006
11
0.185958354416271
21
0.361640023092556
31
-0.00768132563084364
12
0.192625086536785
22
0.357147268013286
32
1.40998324127395e-018
13
0.192625086536785
23
0.357147268013286
33
1.40998324127395e-018
70
0
  0
3DFACE
 8
COMPONENT40
10
0.179001547947307
20
0.367727133373546
30
0.00101452670693398
11
0.164073716392894
21
0.358741374925899
31
-0.00753639310896396
12
0.171030268516918
22
0.366567623237896
32
0.0011594594180584
13
0.171030268516918
23
0.366567623237896
33
0.0011594594180584
70
0
  0
3DFACE
 8
COMPONENT40
10
0.185958354416271
20
0.361640023092556
30
-0.00768132563084364
11
0.164073716392894
21
0.358741374925899
31
-0.00753639310896396
12
0.179001547947307
22
0.367727133373546
32
0.00101452670693398
13
0.179001547947307
23
0.367727133373546
33
0.00101452670693398
70
0
  0
3DFACE
 8
COMPONENT40
10
0.171030268516918
20
0.366567623237896
30
0.0011594594180584
11
0.164073716392894
21
0.358741374925899
31
-0.00753639310896396
12
0.161175068226238
22
0.361495240263271
32
0.00130439212918282
13
0.161175068226238
23
0.361495240263271
33
0.00130439212918282
70
0
  0
3DFACE
 8
COMPONENT40
10
0.155812616958995
20
0.348016732792186
30
-0.00753639310896396
11
0.161175068226238
21
0.361495240263271
31
0.00130439212918282
12
0.164073716392894
22
0.358741374925899
32
-0.00753639310896396
13
0.164073716392894
23
0.358741374925899
33
-0.00753639310896396
70
0
  0
3DFACE
 8
COMPONENT40
10
0.153348819914241
20
0.330624843792248
30
-0.00768132563084364
11
0.148856064834972
21
0.332363981823253
31
0.000289864665269853
12
0.155812616958995
22
0.348016732792186
32
-0.00753639310896396
13
0.155812616958995
23
0.348016732792186
33
-0.00753639310896396
70
0
  0
3DFACE
 8
COMPONENT40
10
0.162479355135341
20
0.291058839960772
30
-0.00869583965837955
11
0.152044526949306
21
0.31671148519926
31
-0.000144931954145429
12
0.148856064834972
22
0.332363981823253
32
0.000289864665269853
13
0.148856064834972
23
0.332363981823253
33
0.000289864665269853
70
0
  0
3DFACE
 8
COMPONENT40
10
0.162479355135341
20
0.291058839960772
30
-0.00869583965837955
11
0.148856064834972
21
0.332363981823253
31
0.000289864665269853
12
0.153348819914241
22
0.330624843792248
32
-0.00768132563084364
13
0.153348819914241
23
0.330624843792248
33
-0.00768132563084364
70
0
  0
3DFACE
 8
COMPONENT40
10
0.222045916691204
20
0.231637232784557
30
-0.0107248704575002
11
0.223640271892925
21
0.21279627404623
31
-0.0111596625350416
12
0.14421827863731
22
0.20294107375555
32
-0.0101451459053904
13
0.14421827863731
23
0.20294107375555
33
-0.0101451459053904
70
0
  0
3DFACE
 8
COMPONENT40
10
0.222045916691204
20
0.231637232784557
30
-0.0107248704575002
11
0.14421827863731
21
0.20294107375555
31
-0.0101451459053904
12
0.151754458656688
22
0.221782032493877
32
-0.00927556421048939
13
0.151754458656688
23
0.221782032493877
33
-0.00927556421048939
70
0
  0
3DFACE
 8
COMPONENT40
10
0.223640271892925
20
0.21279627404623
30
-0.0111596625350416
11
0.222190941753765
21
0.192940842346477
31
-0.0113045924074948
12
0.143058768501659
22
0.184244897846508
32
-0.00956542416829616
13
0.143058768501659
23
0.184244897846508
33
-0.00956542416829616
70
0
  0
3DFACE
 8
COMPONENT40
10
0.223640271892925
20
0.21279627404623
30
-0.0111596625350416
11
0.143058768501659
21
0.184244897846508
31
-0.00956542416829616
12
0.14421827863731
22
0.20294107375555
32
-0.0101451459053904
13
0.14421827863731
23
0.20294107375555
33
-0.0101451459053904
70
0
  0
3DFACE
 8
COMPONENT40
10
0.222190941753765
20
0.192940842346477
30
-0.0113045924074948
11
0.215379172459026
21
0.173665032486248
31
-0.013188695794344
12
0.148711033716579
22
0.164244435028362
32
-0.00768132563084364
13
0.148711033716579
23
0.164244435028362
33
-0.00768132563084364
70
0
  0
3DFACE
 8
COMPONENT40
10
0.222190941753765
20
0.192940842346477
30
-0.0113045924074948
11
0.148711033716579
21
0.164244435028362
31
-0.00768132563084364
12
0.143058768501659
22
0.184244897846508
32
-0.00956542416829616
13
0.143058768501659
23
0.184244897846508
33
-0.00956542416829616
70
0
  0
3DFACE
 8
COMPONENT40
10
0.215379172459026
20
0.173665032486248
30
-0.013188695794344
11
0.197697729912181
21
0.141490349106121
31
-0.0101451459053904
12
0.156392244854351
22
0.144823842338848
32
-0.00608708454370499
13
0.156392244854351
23
0.144823842338848
33
-0.00608708454370499
70
0
  0
3DFACE
 8
COMPONENT40
10
0.215379172459026
20
0.173665032486248
30
-0.013188695794344
11
0.156392244854351
21
0.144823842338848
31
-0.00608708454370499
12
0.148711033716579
22
0.164244435028362
32
-0.00768132563084364
13
0.148711033716579
23
0.164244435028362
33
-0.00768132563084364
70
0
  0
3DFACE
 8
COMPONENT40
10
0.156392244854351
20
0.144823842338848
30
-0.00608708454370499
11
0.197697729912181
21
0.141490349106121
31
-0.0101451459053904
12
0.164508561458965
22
0.132939441780376
32
-0.00565228716731072
13
0.164508561458965
23
0.132939441780376
33
-0.00565228716731072
70
0
  0
3DFACE
 8
COMPONENT40
10
0.197697729912181
20
0.141490349106121
30
-0.0101451459053904
11
0.190161295547863
21
0.131779931644726
31
-0.00869583965837956
12
0.164508561458965
22
0.132939441780376
32
-0.00565228716731072
13
0.164508561458965
23
0.132939441780376
33
-0.00565228716731072
70
0
  0
3DFACE
 8
COMPONENT40
10
0.190161295547863
20
0.131779931644726
30
-0.00869583965837956
11
0.182769631901165
21
0.125692815307903
31
-0.00753639310896397
12
0.177407447090526
22
0.124388522342968
32
-0.00739146323651076
13
0.177407447090526
23
0.124388522342968
33
-0.00739146323651076
70
0
  0
3DFACE
 8
COMPONENT40
10
0.164508561458965
20
0.132939441780376
30
-0.00565228716731072
11
0.190161295547863
21
0.131779931644726
31
-0.00869583965837956
12
0.177407447090526
22
0.124388522342968
32
-0.00739146323651076
13
0.177407447090526
23
0.124388522342968
33
-0.00739146323651076
70
0
  0
3DFACE
 8
COMPONENT40
10
0.190161295547863
20
0.131779931644726
30
-0.00869583965837956
11
0.182190004005809
21
0.125692815307903
31
-0.00478271815180779
12
0.182769631901165
22
0.125692815307903
32
-0.00753639310896397
13
0.182769631901165
23
0.125692815307903
33
-0.00753639310896397
70
0
  0
3DFACE
 8
COMPONENT40
10
0.190161295547863
20
0.131779931644726
30
-0.00869583965837956
11
0.189581413307567
21
0.131635148815441
31
-0.00594215183258057
12
0.182190004005809
22
0.125692815307903
32
-0.00478271815180779
13
0.182190004005809
23
0.125692815307903
33
-0.00478271815180779
70
0
  0
3DFACE
 8
COMPONENT40
10
0.197697729912181
20
0.141490349106121
30
-0.0101451459053904
11
0.189581413307567
21
0.131635148815441
31
-0.00594215183258057
12
0.190161295547863
22
0.131779931644726
32
-0.00869583965837956
13
0.190161295547863
23
0.131779931644726
33
-0.00869583965837956
70
0
  0
3DFACE
 8
COMPONENT40
10
0.197697729912181
20
0.141490349106121
30
-0.0101451459053904
11
0.197117847671886
21
0.14105550404005
31
-0.00724653336405754
12
0.189581413307567
22
0.131635148815441
32
-0.00594215183258057
13
0.189581413307567
23
0.131635148815441
33
-0.00594215183258057
70
0
  0
3DFACE
 8
COMPONENT40
10
0.197697729912181
20
0.141490349106121
30
-0.0101451459053904
11
0.206248637237926
21
0.155548744873333
31
-0.00869583965837956
12
0.197117847671886
22
0.14105550404005
32
-0.00724653336405754
13
0.197117847671886
23
0.14105550404005
33
-0.00724653336405754
70
0
  0
3DFACE
 8
COMPONENT40
10
0.215379172459026
20
0.173665032486248
30
-0.013188695794344
11
0.206248637237926
21
0.155548744873333
31
-0.00869583965837956
12
0.197697729912181
22
0.141490349106121
32
-0.0101451459053904
13
0.197697729912181
23
0.141490349106121
33
-0.0101451459053904
70
0
  0
3DFACE
 8
COMPONENT40
10
0.215379172459026
20
0.173665032486248
30
-0.013188695794344
11
0.215668992462535
21
0.173230187420177
31
-0.00985528592392802
12
0.206248637237926
22
0.155548744873333
32
-0.00869583965837956
13
0.206248637237926
23
0.155548744873333
33
-0.00869583965837956
70
0
  0
3DFACE
 8
COMPONENT40
10
0.215379172459026
20
0.173665032486248
30
-0.013188695794344
11
0.222190941753765
21
0.192940842346477
31
-0.0113045924074948
12
0.215668992462535
22
0.173230187420177
32
-0.00985528592392802
13
0.215668992462535
23
0.173230187420177
33
-0.00985528592392802
70
0
  0
3DFACE
 8
COMPONENT40
10
0.177407447090526
20
0.124388522342968
30
-0.00739146323651076
11
0.172044995823284
21
0.127142145447063
31
-0.00478271815180779
12
0.164508561458965
22
0.132939441780376
32
-0.00565228716731072
13
0.164508561458965
23
0.132939441780376
33
-0.00565228716731072
70
0
  0
3DFACE
 8
COMPONENT40
10
0.177407447090526
20
0.124388522342968
30
-0.00739146323651076
11
0.177117372742076
21
0.124533559517193
31
-0.00463778581917286
12
0.172044995823284
22
0.127142145447063
32
-0.00478271815180779
13
0.172044995823284
23
0.127142145447063
33
-0.00478271815180779
70
0
  0
3DFACE
 8
COMPONENT40
10
0.182769631901165
20
0.125692815307903
30
-0.00753639310896397
11
0.177117372742076
21
0.124533559517193
31
-0.00463778581917286
12
0.177407447090526
22
0.124388522342968
32
-0.00739146323651076
13
0.177407447090526
23
0.124388522342968
33
-0.00739146323651076
70
0
  0
3DFACE
 8
COMPONENT40
10
0.182769631901165
20
0.125692815307903
30
-0.00753639310896397
11
0.182190004005809
21
0.125692815307903
31
-0.00478271815180779
12
0.177117372742076
22
0.124533559517193
32
-0.00463778581917286
13
0.177117372742076
23
0.124533559517193
33
-0.00463778581917286
70
0
  0
3DFACE
 8
COMPONENT40
10
0.155812616958995
20
0.348016732792186
30
-0.00753639310896396
11
0.148856064834972
21
0.332363981823253
31
0.000289864665269853
12
0.152913968792339
22
0.349610833648968
32
0.000869594752788545
13
0.152913968792339
23
0.349610833648968
33
0.000869594752788545
70
0
  0
3DFACE
 8
COMPONENT40
10
0.155812616958995
20
0.348016732792186
30
-0.00753639310896396
11
0.152913968792339
21
0.349610833648968
31
0.000869594752788545
12
0.161175068226238
22
0.361495240263271
32
0.00130439212918282
13
0.161175068226238
23
0.361495240263271
33
0.00130439212918282
70
0
  0
3DFACE
 8
COMPONENT40
10
0.187262647381206
20
0.364393888429928
30
0.000579730087518693
11
0.185958354416271
21
0.361640023092556
31
-0.00768132563084364
12
0.179001547947307
22
0.367727133373546
32
0.00101452670693398
13
0.179001547947307
23
0.367727133373546
33
0.00101452670693398
70
0
  0
3DFACE
 8
COMPONENT40
10
0.185958354416271
20
0.361640023092556
30
-0.00768132563084364
11
0.187262647381206
21
0.364393888429928
31
0.000579730087518693
12
0.192625086536785
22
0.357147268013286
32
1.40998324127395e-018
13
0.192625086536785
23
0.357147268013286
33
1.40998324127395e-018
70
0
  0
3DFACE
 8
COMPONENT40
10
0.172044995823284
20
0.127142145447063
30
-0.00478271815180779
11
0.164798375406642
21
0.133084466842937
31
-0.00521751552820206
12
0.164508561458965
22
0.132939441780376
32
-0.00565228716731072
13
0.164508561458965
23
0.132939441780376
33
-0.00565228716731072
70
0
  0
3DFACE
 8
COMPONENT40
10
0.156392244854351
20
0.144823842338848
30
-0.00608708454370499
11
0.164508561458965
21
0.132939441780376
31
-0.00565228716731072
12
0.164798375406642
22
0.133084466842937
32
-0.00521751552820206
13
0.164798375406642
23
0.133084466842937
33
-0.00521751552820206
70
0
  0
3DFACE
 8
COMPONENT40
10
0.162479355135341
20
0.291058839960772
30
-0.00869583965837955
11
0.156682313146968
21
0.301493863163519
31
-0.000579729330539703
12
0.152044526949306
22
0.31671148519926
32
-0.000144931954145429
13
0.152044526949306
23
0.31671148519926
33
-0.000144931954145429
70
0
  0
3DFACE
 8
COMPONENT40
10
0.206393420067211
20
0.292218286415565
30
-0.0101451459053904
11
0.205378934994121
21
0.304247527901459
31
-0.00115943368077278
12
0.208567403164287
22
0.289319674016165
32
-0.00144929834604263
13
0.208567403164287
23
0.289319674016165
33
-0.00144929834604263
70
0
  0
3DFACE
 8
COMPONENT40
10
0.208567403164287
20
0.289319674016165
30
-0.00144929834604263
11
0.160015558090587
21
0.288595019638914
31
-0.00101450096964836
12
0.206393420067211
22
0.292218286415565
32
-0.0101451459053904
13
0.206393420067211
23
0.292218286415565
33
-0.0101451459053904
70
0
  0
3DFACE
 8
COMPONENT40
10
0.206393420067211
20
0.292218286415565
30
-0.0101451459053904
11
0.160015558090587
21
0.288595019638914
31
-0.00101450096964836
12
0.162479355135341
22
0.291058839960772
32
-0.00869583965837955
13
0.162479355135341
23
0.291058839960772
33
-0.00869583965837955
70
0
  0
3DFACE
 8
COMPONENT40
10
0.189726438370128
20
0.355987757877636
30
-0.00797118537575006
11
0.153348819914241
21
0.330624843792248
31
-0.00768132563084364
12
0.155812616958995
22
0.348016732792186
32
-0.00753639310896396
13
0.155812616958995
23
0.348016732792186
33
-0.00753639310896396
70
0
  0
3DFACE
 8
COMPONENT40
10
0.189726438370128
20
0.355987757877636
30
-0.00797118537575006
11
0.206393420067211
21
0.292218286415565
31
-0.0101451459053904
12
0.153348819914241
22
0.330624843792248
32
-0.00768132563084364
13
0.153348819914241
23
0.330624843792248
33
-0.00768132563084364
70
0
  0
3DFACE
 8
COMPONENT40
10
0.153348819914241
20
0.330624843792248
30
-0.00768132563084364
11
0.206393420067211
21
0.292218286415565
31
-0.0101451459053904
12
0.162479355135341
22
0.291058839960772
32
-0.00869583965837955
13
0.162479355135341
23
0.291058839960772
33
-0.00869583965837955
70
0
  0
3DFACE
 8
COMPONENT40
10
0.185958354416271
20
0.361640023092556
30
-0.00768132563084364
11
0.189726438370128
21
0.355987757877636
31
-0.00797118537575006
12
0.155812616958995
22
0.348016732792186
32
-0.00753639310896396
13
0.155812616958995
23
0.348016732792186
33
-0.00753639310896396
70
0
  0
3DFACE
 8
COMPONENT40
10
0.185958354416271
20
0.361640023092556
30
-0.00768132563084364
11
0.155812616958995
21
0.348016732792186
31
-0.00753639310896396
12
0.164073716392894
22
0.358741374925899
32
-0.00753639310896396
13
0.164073716392894
23
0.358741374925899
33
-0.00753639310896396
70
0
  0
3DFACE
 8
<Black>
10
0.202877549400707
20
0.211632954792309
30
0.0267184128940106
11
0.184326404610057
21
0.199748802522945
31
0.0272980407893658
12
0.203167357292553
22
0.211343140844631
32
0.0265733787477017
13
0.203167357292553
23
0.211343140844631
33
0.0265733787477017
70
0
  0
3DFACE
 8
<Black>
10
0.203167357292553
20
0.211343140844631
30
0.0265733787477017
11
0.184326404610057
21
0.199748802522945
31
0.0272980407893658
12
0.184471441784282
22
0.199313957456875
32
0.0271532609879971
13
0.184471441784282
23
0.199313957456875
33
0.0271532609879971
70
0
  0
3DFACE
 8
<Black>
10
0.166065073767086
20
0.200183399299907
30
0.0297618408620358
11
0.184471441784282
21
0.199313957456875
31
0.0271532609879971
12
0.184326404610057
22
0.199748802522945
32
0.0272980407893658
13
0.184326404610057
23
0.199748802522945
33
0.0272980407893658
70
0
  0
3DFACE
 8
<Black>
10
0.166065073767086
20
0.200183399299907
30
0.0297618408620358
11
0.165630476990123
21
0.19989358535223
31
0.0296170610606671
12
0.184471441784282
22
0.199313957456875
32
0.0271532609879971
13
0.184471441784282
23
0.199313957456875
33
0.0271532609879971
70
0
  0
3DFACE
 8
<Black>
10
0.154760549393077
20
0.216125964216518
30
0.0310663851439953
11
0.165630476990123
21
0.19989358535223
31
0.0296170610606671
12
0.166065073767086
22
0.200183399299907
32
0.0297618408620358
13
0.166065073767086
23
0.200183399299907
33
0.0297618408620358
70
0
  0
3DFACE
 8
<Black>
10
0.154760549393077
20
0.216125964216518
30
0.0310663851439953
11
0.154325704327007
21
0.215980927042293
31
0.0309213509976864
12
0.165630476990123
22
0.19989358535223
32
0.0296170610606671
13
0.165630476990123
23
0.19989358535223
33
0.0296170610606671
70
0
  0
3DFACE
 8
<Black>
10
0.149832949247737
20
0.236271209863949
30
0.0325157092273235
11
0.154325704327007
21
0.215980927042293
31
0.0309213509976864
12
0.150122763195415
22
0.236126433090496
32
0.0326604890286923
13
0.150122763195415
23
0.236126433090496
33
0.0326604890286923
70
0
  0
3DFACE
 8
<Black>
10
0.150122763195415
20
0.236126433090496
30
0.0326604890286923
11
0.154325704327007
21
0.215980927042293
31
0.0309213509976864
12
0.154760549393077
22
0.216125964216518
32
0.0310663851439953
13
0.154760549393077
23
0.216125964216518
33
0.0310663851439953
70
0
  0
3DFACE
 8
<Black>
10
0.149832949247737
20
0.236271209863949
30
0.0325157092273235
11
0.148238594046016
21
0.255547016696262
31
0.0330953371226788
12
0.148093811216732
22
0.255692050842571
32
0.0328055231750011
13
0.148093811216732
23
0.255692050842571
33
0.0328055231750011
70
0
  0
3DFACE
 8
<Black>
10
0.148238594046016
20
0.255547016696262
30
0.0330953371226788
11
0.149832949247737
21
0.236271209863949
31
0.0325157092273235
12
0.150122763195415
22
0.236126433090496
32
0.0326604890286923
13
0.150122763195415
23
0.236126433090496
33
0.0326604890286923
70
0
  0
3DFACE
 8
<Black>
10
0.148093811216732
20
0.255692050842571
30
0.0328055231750011
11
0.148238594046016
21
0.27047492697649
31
0.0330953371226788
12
0.148093811216732
22
0.27047492697649
32
0.0328055231750011
13
0.148093811216732
23
0.27047492697649
33
0.0328055231750011
70
0
  0
3DFACE
 8
<Black>
10
0.148093811216732
20
0.255692050842571
30
0.0328055231750011
11
0.148238594046016
21
0.255547016696262
31
0.0330953371226788
12
0.148238594046016
22
0.27047492697649
32
0.0330953371226788
13
0.148238594046016
23
0.27047492697649
33
0.0330953371226788
70
0
  0
3DFACE
 8
<Black>
10
0.148093811216732
20
0.27047492697649
30
0.0328055231750011
11
0.147224115028759
21
0.286852084506678
31
0.0332403712689877
12
0.146934301081081
22
0.286852084506678
32
0.0329503029763699
13
0.146934301081081
23
0.286852084506678
33
0.0329503029763699
70
0
  0
3DFACE
 8
<Black>
10
0.148093811216732
20
0.27047492697649
30
0.0328055231750011
11
0.148238594046016
21
0.27047492697649
31
0.0330953371226788
12
0.147224115028759
22
0.286852084506678
32
0.0332403712689877
13
0.147224115028759
23
0.286852084506678
33
0.0332403712689877
70
0
  0
3DFACE
 8
<Black>
10
0.146934301081081
20
0.286852084506678
30
0.0329503029763699
11
0.146354673185726
21
0.303519106702137
31
0.0342548472583294
12
0.146209642067333
22
0.303664039413261
32
0.0338199991643429
13
0.146209642067333
23
0.303664039413261
33
0.0338199991643429
70
0
  0
3DFACE
 8
<Black>
10
0.146934301081081
20
0.286852084506678
30
0.0329503029763699
11
0.147224115028759
21
0.286852084506678
31
0.0332403712689877
12
0.146354673185726
22
0.303519106702137
32
0.0342548472583294
13
0.146354673185726
23
0.303519106702137
33
0.0342548472583294
70
0
  0
3DFACE
 8
<Black>
10
0.146209642067333
20
0.303664039413261
30
0.0338199991643429
11
0.145484976997753
21
0.317432592467594
31
0.0358489511430264
12
0.145195163050075
22
0.317577372268963
32
0.0355591371953487
13
0.145195163050075
23
0.317577372268963
33
0.0355591371953487
70
0
  0
3DFACE
 8
<Black>
10
0.146209642067333
20
0.303664039413261
30
0.0338199991643429
11
0.146354673185726
21
0.303519106702137
31
0.0342548472583294
12
0.145484976997753
22
0.317432592467594
32
0.0358489511430264
13
0.145484976997753
23
0.317432592467594
33
0.0358489511430264
70
0
  0
3DFACE
 8
<Black>
10
0.147658966150661
20
0.33018644092493
30
0.0377331233203411
11
0.145195163050075
21
0.317577372268963
31
0.0355591371953487
12
0.147803997269054
22
0.330041406778621
32
0.03787815746665
13
0.147803997269054
23
0.330041406778621
33
0.03787815746665
70
0
  0
3DFACE
 8
<Black>
10
0.147803997269054
20
0.330041406778621
30
0.03787815746665
11
0.145195163050075
21
0.317577372268963
31
0.0355591371953487
12
0.145484976997753
22
0.317432592467594
32
0.0358489511430264
13
0.145484976997753
23
0.317432592467594
33
0.0358489511430264
70
0
  0
3DFACE
 8
<Black>
10
0.159543366709133
20
0.360042107061672
30
0.0435304196536541
11
0.153021411362072
21
0.344244579319286
31
0.0401969233930111
12
0.159688149538417
22
0.359897075943279
32
0.0436751964271069
13
0.159688149538417
23
0.359897075943279
33
0.0436751964271069
70
0
  0
3DFACE
 8
<Black>
10
0.153021411362072
20
0.344244579319286
30
0.0401969233930111
11
0.153166442480465
21
0.344099796490001
31
0.0404867373406887
12
0.159688149538417
22
0.359897075943279
32
0.0436751964271069
13
0.159688149538417
23
0.359897075943279
33
0.0436751964271069
70
0
  0
3DFACE
 8
<Black>
10
0.166934769955059
20
0.365404558328914
30
0.0449797437369823
11
0.159543366709133
21
0.360042107061672
31
0.0435304196536541
12
0.159688149538417
22
0.359897075943279
32
0.0436751964271069
13
0.159688149538417
23
0.359897075943279
33
0.0436751964271069
70
0
  0
3DFACE
 8
<Black>
10
0.174471204319377
20
0.366998659185695
30
0.0442550786674023
11
0.166934769955059
21
0.365404558328914
31
0.0449797437369823
12
0.174471204319377
22
0.366708845238018
32
0.0445448926150799
13
0.174471204319377
23
0.366708845238018
33
0.0445448926150799
70
0
  0
3DFACE
 8
<Black>
10
0.174471204319377
20
0.366998659185695
30
0.0442550786674023
11
0.180993165722271
21
0.364390079311657
31
0.0432403513610363
12
0.181137936439891
22
0.364679893259334
32
0.0430955685317516
13
0.181137936439891
23
0.364679893259334
33
0.0430955685317516
70
0
  0
3DFACE
 8
<Black>
10
0.174471204319377
20
0.366998659185695
30
0.0442550786674023
11
0.174471204319377
21
0.366708845238018
31
0.0445448926150799
12
0.180993165722271
22
0.364390079311657
32
0.0432403513610363
13
0.180993165722271
23
0.364390079311657
33
0.0432403513610363
70
0
  0
3DFACE
 8
<Black>
10
0.181137936439891
20
0.364679893259334
30
0.0430955685317516
11
0.190993391075512
21
0.354389847902584
31
0.0399071094453335
12
0.191138173904796
22
0.354534624676037
32
0.0397620752990246
13
0.191138173904796
23
0.354534624676037
33
0.0397620752990246
70
0
  0
3DFACE
 8
<Black>
10
0.181137936439891
20
0.364679893259334
30
0.0430955685317516
11
0.180993165722271
21
0.364390079311657
31
0.0432403513610363
12
0.190993391075512
22
0.354389847902584
32
0.0399071094453335
13
0.190993391075512
23
0.354389847902584
33
0.0399071094453335
70
0
  0
3DFACE
 8
<Black>
10
0.200558783474346
20
0.334534413174915
30
0.0362837992370129
11
0.20070356630363
21
0.334534413174915
31
0.0364288333833218
12
0.191138173904796
22
0.354534624676037
32
0.0397620752990246
13
0.191138173904796
23
0.354534624676037
33
0.0397620752990246
70
0
  0
3DFACE
 8
<Black>
10
0.191138173904796
20
0.354534624676037
30
0.0397620752990246
11
0.190993391075512
21
0.354389847902584
31
0.0399071094453335
12
0.200558783474346
22
0.334534413174915
32
0.0362837992370129
13
0.200558783474346
23
0.334534413174915
33
0.0362837992370129
70
0
  0
3DFACE
 8
<Black>
10
0.20070356630363
20
0.334534413174915
30
0.0364288333833218
11
0.204181842365642
21
0.314099070469665
31
0.0351242891013622
12
0.204471904602428
22
0.31424400318079
32
0.0348344751536846
13
0.204471904602428
23
0.31424400318079
33
0.0348344751536846
70
0
  0
3DFACE
 8
<Black>
10
0.204181842365642
20
0.314099070469665
30
0.0351242891013622
11
0.20070356630363
21
0.334534413174915
31
0.0364288333833218
12
0.200558783474346
22
0.334534413174915
32
0.0362837992370129
13
0.200558783474346
23
0.334534413174915
33
0.0362837992370129
70
0
  0
3DFACE
 8
<Black>
10
0.204471904602428
20
0.31424400318079
30
0.0348344751536846
11
0.207370552769085
21
0.295982723812389
31
0.0330953371226788
12
0.207660372772594
22
0.296127656523514
32
0.0328055231750011
13
0.207660372772594
23
0.296127656523514
33
0.0328055231750011
70
0
  0
3DFACE
 8
<Black>
10
0.204471904602428
20
0.31424400318079
30
0.0348344751536846
11
0.204181842365642
21
0.314099070469665
31
0.0351242891013622
12
0.207370552769085
22
0.295982723812389
32
0.0330953371226788
13
0.207370552769085
23
0.295982723812389
33
0.0330953371226788
70
0
  0
3DFACE
 8
<Black>
10
0.207660372772594
20
0.296127656523514
30
0.0328055231750011
11
0.208964653625866
21
0.284533191407847
31
0.032080861133337
12
0.209254473629375
22
0.284678123740482
32
0.0317910471856594
13
0.209254473629375
23
0.284678123740482
33
0.0317910471856594
70
0
  0
3DFACE
 8
<Black>
10
0.207660372772594
20
0.296127656523514
30
0.0328055231750011
11
0.207370552769085
21
0.295982723812389
31
0.0330953371226788
12
0.208964653625866
22
0.284533191407847
32
0.032080861133337
13
0.208964653625866
23
0.284533191407847
33
0.032080861133337
70
0
  0
3DFACE
 8
<Black>
10
0.209254473629375
20
0.284678123740482
30
0.0317910471856594
11
0.210703791656871
21
0.274098185710239
31
0.0309213509976864
12
0.210993611660381
22
0.274243118421364
32
0.0306315370500088
13
0.210993611660381
23
0.274243118421364
33
0.0306315370500088
70
0
  0
3DFACE
 8
<Black>
10
0.209254473629375
20
0.284678123740482
30
0.0317910471856594
11
0.208964653625866
21
0.284533191407847
31
0.032080861133337
12
0.210703791656871
22
0.274098185710239
32
0.0309213509976864
13
0.210703791656871
23
0.274098185710239
33
0.0309213509976864
70
0
  0
3DFACE
 8
<Black>
10
0.210993611660381
20
0.274243118421364
30
0.0306315370500088
11
0.212587966862102
21
0.258880512956905
31
0.0294720269143581
12
0.212877786865612
22
0.258880512956905
32
0.0291822129666805
13
0.212877786865612
23
0.258880512956905
33
0.0291822129666805
70
0
  0
3DFACE
 8
<Black>
10
0.210993611660381
20
0.274243118421364
30
0.0306315370500088
11
0.210703791656871
21
0.274098185710239
31
0.0309213509976864
12
0.212587966862102
22
0.258880512956905
32
0.0294720269143581
13
0.212587966862102
23
0.258880512956905
33
0.0294720269143581
70
0
  0
3DFACE
 8
<Black>
10
0.212877786865612
20
0.258880512956905
30
0.0291822129666805
11
0.212732749691387
21
0.247430954436588
31
0.0277328888833523
12
0.213167594757457
22
0.247430954436588
32
0.0275878547370434
13
0.213167594757457
23
0.247430954436588
33
0.0275878547370434
70
0
  0
3DFACE
 8
<Black>
10
0.212587966862102
20
0.258880512956905
30
0.0294720269143581
11
0.212732749691387
21
0.247430954436588
31
0.0277328888833523
12
0.212877786865612
22
0.258880512956905
32
0.0291822129666805
13
0.212877786865612
23
0.258880512956905
33
0.0291822129666805
70
0
  0
3DFACE
 8
<Black>
10
0.213167594757457
20
0.247430954436588
30
0.0275878547370434
11
0.211863301792522
21
0.236995874933529
31
0.0275878547370434
12
0.212153121796032
22
0.236851092104244
32
0.0272980407893658
13
0.212153121796032
23
0.236851092104244
33
0.0272980407893658
70
0
  0
3DFACE
 8
<Black>
10
0.212732749691387
20
0.247430954436588
30
0.0277328888833523
11
0.211863301792522
21
0.236995874933529
31
0.0275878547370434
12
0.213167594757457
22
0.247430954436588
32
0.0275878547370434
13
0.213167594757457
23
0.247430954436588
33
0.0275878547370434
70
0
  0
3DFACE
 8
<Black>
10
0.212153121796032
20
0.236851092104244
30
0.0272980407893658
11
0.208240000667949
21
0.222792702392864
31
0.0271532609879971
12
0.208529808559795
22
0.222647665218639
32
0.0270082268416882
13
0.208529808559795
23
0.222647665218639
33
0.0270082268416882
70
0
  0
3DFACE
 8
<Black>
10
0.211863301792522
20
0.236995874933529
30
0.0275878547370434
11
0.208240000667949
21
0.222792702392864
31
0.0271532609879971
12
0.212153121796032
22
0.236851092104244
32
0.0272980407893658
13
0.212153121796032
23
0.236851092104244
33
0.0272980407893658
70
0
  0
3DFACE
 8
<Black>
10
0.208240000667949
20
0.222792702392864
30
0.0271532609879971
11
0.202877549400707
21
0.211632954792309
31
0.0267184128940106
12
0.208529808559795
22
0.222647665218639
32
0.0270082268416882
13
0.208529808559795
23
0.222647665218639
33
0.0270082268416882
70
0
  0
3DFACE
 8
<Black>
10
0.208529808559795
20
0.222647665218639
30
0.0270082268416882
11
0.202877549400707
21
0.211632954792309
31
0.0267184128940106
12
0.203167357292553
22
0.211343140844631
32
0.0265733787477017
13
0.203167357292553
23
0.211343140844631
33
0.0265733787477017
70
0
  0
3DFACE
 8
<Black>
10
0.181137936439891
20
0.364679893259334
30
0.0430955685317516
11
0.167949242916484
21
0.369462716631222
31
0.0304865029036999
12
0.174471204319377
22
0.366998659185695
32
0.0442550786674023
13
0.174471204319377
23
0.366998659185695
33
0.0442550786674023
70
0
  0
3DFACE
 8
<Black>
10
0.188384562912365
20
0.367578541425991
30
0.0186023506343365
11
0.167949242916484
21
0.369462716631222
31
0.0304865029036999
12
0.181137936439891
22
0.364679893259334
32
0.0430955685317516
13
0.181137936439891
23
0.364679893259334
33
0.0430955685317516
70
0
  0
3DFACE
 8
<Black>
10
0.188384562912365
20
0.367578541425991
30
0.0186023506343365
11
0.178963953342815
21
0.367868355373668
31
0.00106563187241555
12
0.167949242916484
22
0.369462716631222
32
0.0304865029036999
13
0.167949242916484
23
0.369462716631222
33
0.0304865029036999
70
0
  0
3DFACE
 8
<Black>
10
0.188384562912365
20
0.367578541425991
30
0.0186023506343365
11
0.187225052776714
21
0.364390079311657
31
0.000775767207145692
12
0.178963953342815
22
0.367868355373668
32
0.00106563187241555
13
0.178963953342815
23
0.367868355373668
33
0.00106563187241555
70
0
  0
3DFACE
 8
<Black>
10
0.208529808559795
20
0.289460837066549
30
-0.00125326122641563
11
0.20070356630363
21
0.324678958539295
31
-0.00110832851529121
12
0.214906732788463
22
0.275402551345157
32
0.00715271641612053
13
0.214906732788463
23
0.275402551345157
33
0.00715271641612053
70
0
  0
3DFACE
 8
<Black>
10
0.178963953342815
20
0.367868355373668
30
0.00106563187241555
11
0.170992928257366
21
0.366564068464565
31
0.0013554965376854
12
0.167949242916484
22
0.369462716631222
32
0.0304865029036999
13
0.167949242916484
23
0.369462716631222
33
0.0304865029036999
70
0
  0
3DFACE
 8
<Black>
10
0.188384562912365
20
0.367578541425991
30
0.0186023506343365
11
0.181137936439891
21
0.364679893259334
31
0.0430955685317516
12
0.191138173904796
22
0.354534624676037
32
0.0397620752990246
13
0.191138173904796
23
0.354534624676037
33
0.0397620752990246
70
0
  0
3DFACE
 8
<Black>
10
0.188384562912365
20
0.367578541425991
30
0.0186023506343365
11
0.191138173904796
21
0.354534624676037
31
0.0397620752990246
12
0.20070356630363
22
0.334534413174915
32
0.0364288333833218
13
0.20070356630363
23
0.334534413174915
33
0.0364288333833218
70
0
  0
3DFACE
 8
<Black>
10
0.206500862636943
20
0.32033098628931
30
0.0171530265510082
11
0.188384562912365
21
0.367578541425991
31
0.0186023506343365
12
0.20070356630363
22
0.334534413174915
32
0.0364288333833218
13
0.20070356630363
23
0.334534413174915
33
0.0364288333833218
70
0
  0
3DFACE
 8
<Black>
10
0.211573493900676
20
0.275692416767406
30
-0.00270255957245827
11
0.208529808559795
21
0.289460837066549
31
-0.00125326122641563
12
0.214906732788463
22
0.275402551345157
32
0.00715271641612053
13
0.214906732788463
23
0.275402551345157
33
0.00715271641612053
70
0
  0
3DFACE
 8
<Black>
10
0.153021411362072
20
0.349607024530697
30
0.00106563187241554
11
0.158818707695385
21
0.361201617197323
31
0.0420810955703258
12
0.161282504740139
22
0.361491431145
32
0.00150042924880982
13
0.161282504740139
23
0.361491431145
33
0.00150042924880982
70
0
  0
3DFACE
 8
<Black>
10
0.153021411362072
20
0.349607024530697
30
0.00106563187241554
11
0.152296752348323
21
0.344534393266964
31
0.0399071094453335
12
0.158818707695385
22
0.361201617197323
32
0.0420810955703258
13
0.158818707695385
23
0.361201617197323
33
0.0420810955703258
70
0
  0
3DFACE
 8
<Black>
10
0.148963253059764
20
0.332360427049923
30
0.00034096983075142
11
0.144325466862102
21
0.332215392903614
31
0.0178776885926723
12
0.153021411362072
22
0.349607024530697
32
0.00106563187241554
13
0.153021411362072
23
0.349607024530697
33
0.00106563187241554
70
0
  0
3DFACE
 8
<Black>
10
0.167949242916484
20
0.369462716631222
30
0.0304865029036999
11
0.161282504740139
21
0.361491431145
31
0.00150042924880982
12
0.158818707695385
22
0.361201617197323
32
0.0420810955703258
13
0.158818707695385
23
0.361201617197323
33
0.0420810955703258
70
0
  0
3DFACE
 8
<Black>
10
0.170992928257366
20
0.366564068464565
30
0.0013554965376854
11
0.161282504740139
21
0.361491431145
31
0.00150042924880982
12
0.167949242916484
22
0.369462716631222
32
0.0304865029036999
13
0.167949242916484
23
0.369462716631222
33
0.0304865029036999
70
0
  0
3DFACE
 8
<Black>
10
0.192587504043956
20
0.357143458895015
30
0.000196037119627
11
0.187225052776714
21
0.364390079311657
31
0.000775767207145692
12
0.188384562912365
22
0.367578541425991
32
0.0186023506343365
13
0.188384562912365
23
0.367578541425991
33
0.0186023506343365
70
0
  0
3DFACE
 8
<Black>
10
0.197080253067394
20
0.342795255235958
30
-0.000818463850021361
11
0.192587504043956
21
0.357143458895015
31
0.000196037119627
12
0.188384562912365
22
0.367578541425991
32
0.0186023506343365
13
0.188384562912365
23
0.367578541425991
33
0.0186023506343365
70
0
  0
3DFACE
 8
<Black>
10
0.197080253067394
20
0.342795255235958
30
-0.000818463850021361
11
0.188384562912365
21
0.367578541425991
31
0.0186023506343365
12
0.206500862636943
22
0.32033098628931
32
0.0171530265510082
13
0.206500862636943
23
0.32033098628931
33
0.0171530265510082
70
0
  0
3DFACE
 8
<Black>
10
0.20070356630363
20
0.324678958539295
30
-0.00110832851529121
11
0.197080253067394
21
0.342795255235958
31
-0.000818463850021361
12
0.206500862636943
22
0.32033098628931
32
0.0171530265510082
13
0.206500862636943
23
0.32033098628931
33
0.0171530265510082
70
0
  0
3DFACE
 8
<Black>
10
0.20070356630363
20
0.324678958539295
30
-0.00110832851529121
11
0.206500862636943
21
0.32033098628931
31
0.0171530265510082
12
0.214906732788463
22
0.275402551345157
32
0.00715271641612053
13
0.214906732788463
23
0.275402551345157
33
0.00715271641612053
70
0
  0
3DFACE
 8
<Black>
10
0.144325466862102
20
0.332215392903614
30
0.0178776885926723
11
0.146209642067333
21
0.303664039413261
31
0.0338199991643429
12
0.145195163050075
22
0.317577372268963
32
0.0355591371953487
13
0.145195163050075
23
0.317577372268963
33
0.0355591371953487
70
0
  0
3DFACE
 8
<Black>
10
0.148963253059764
20
0.332360427049923
30
0.00034096983075142
11
0.151282273331066
21
0.31670793042593
31
0.000775767207145697
12
0.144325466862102
22
0.332215392903614
32
0.0178776885926723
13
0.144325466862102
23
0.332215392903614
33
0.0178776885926723
70
0
  0
3DFACE
 8
<Black>
10
0.222153359260936
20
0.231633423666286
30
-0.0106737580060959
11
0.213167594757457
21
0.247430954436588
31
0.0275878547370434
12
0.218385263195415
22
0.202792233518886
32
0.0146891250431538
13
0.218385263195415
23
0.202792233518886
33
0.0146891250431538
70
0
  0
3DFACE
 8
<Black>
10
0.222153359260936
20
0.231633423666286
30
-0.0106737580060959
11
0.219109928264995
21
0.244242492322254
31
-0.00951431200075895
12
0.213167594757457
22
0.247430954436588
32
0.0275878547370434
13
0.213167594757457
23
0.247430954436588
33
0.0275878547370434
70
0
  0
3DFACE
 8
<Black>
10
0.206500862636943
20
0.32033098628931
30
0.0171530265510082
11
0.20070356630363
21
0.334534413174915
31
0.0364288333833218
12
0.204471904602428
22
0.31424400318079
32
0.0348344751536846
13
0.204471904602428
23
0.31424400318079
33
0.0348344751536846
70
0
  0
3DFACE
 8
<Black>
10
0.214906732788463
20
0.275402551345157
30
0.00715271641612053
11
0.210993611660381
21
0.274243118421364
31
0.0306315370500088
12
0.212877786865612
22
0.258880512956905
32
0.0291822129666805
13
0.212877786865612
23
0.258880512956905
33
0.0291822129666805
70
0
  0
3DFACE
 8
<Black>
10
0.214906732788463
20
0.275402551345157
30
0.00715271641612053
11
0.212877786865612
21
0.258880512956905
31
0.0291822129666805
12
0.213167594757457
22
0.247430954436588
32
0.0275878547370434
13
0.213167594757457
23
0.247430954436588
33
0.0275878547370434
70
0
  0
3DFACE
 8
<Black>
10
0.219109928264995
20
0.244242492322254
30
-0.00951431200075895
11
0.214906732788463
21
0.275402551345157
31
0.00715271641612053
12
0.213167594757457
22
0.247430954436588
32
0.0275878547370434
13
0.213167594757457
23
0.247430954436588
33
0.0275878547370434
70
0
  0
3DFACE
 8
<Black>
10
0.219109928264995
20
0.244242492322254
30
-0.00951431200075895
11
0.216935945167919
21
0.252358554581928
31
-0.00806500535160303
12
0.214906732788463
22
0.275402551345157
32
0.00715271641612053
13
0.214906732788463
23
0.275402551345157
33
0.00715271641612053
70
0
  0
3DFACE
 8
<Black>
10
0.144325466862102
20
0.332215392903614
30
0.0178776885926723
11
0.147658966150661
21
0.33018644092493
31
0.0377331233203411
12
0.152296752348323
22
0.344534393266964
32
0.0399071094453335
13
0.152296752348323
23
0.344534393266964
33
0.0399071094453335
70
0
  0
3DFACE
 8
<Black>
10
0.153021411362072
20
0.349607024530697
30
0.00106563187241554
11
0.144325466862102
21
0.332215392903614
31
0.0178776885926723
12
0.152296752348323
22
0.344534393266964
32
0.0399071094453335
13
0.152296752348323
23
0.344534393266964
33
0.0399071094453335
70
0
  0
3DFACE
 8
<Black>
10
0.144325466862102
20
0.332215392903614
30
0.0178776885926723
11
0.145195163050075
21
0.317577372268963
31
0.0355591371953487
12
0.147658966150661
22
0.33018644092493
32
0.0377331233203411
13
0.147658966150661
23
0.33018644092493
33
0.0377331233203411
70
0
  0
3DFACE
 8
<Black>
10
0.158818707695385
20
0.288591252816844
30
-9.38275456428528e-005
11
0.144325466862102
21
0.332215392903614
31
0.0178776885926723
12
0.151282273331066
22
0.31670793042593
32
0.000775767207145697
13
0.151282273331066
23
0.31670793042593
33
0.000775767207145697
70
0
  0
3DFACE
 8
<Black>
10
0.158818707695385
20
0.288591252816844
30
-9.38275456428528e-005
11
0.148673439112087
21
0.273228590957451
31
0.015123921662569
12
0.144325466862102
22
0.332215392903614
32
0.0178776885926723
13
0.144325466862102
23
0.332215392903614
33
0.0178776885926723
70
0
  0
3DFACE
 8
<Black>
10
0.206500862636943
20
0.32033098628931
30
0.0171530265510082
11
0.209254473629375
21
0.284678123740482
31
0.0317910471856594
12
0.210993611660381
22
0.274243118421364
32
0.0306315370500088
13
0.210993611660381
23
0.274243118421364
33
0.0306315370500088
70
0
  0
3DFACE
 8
<Black>
10
0.214906732788463
20
0.275402551345157
30
0.00715271641612053
11
0.206500862636943
21
0.32033098628931
31
0.0171530265510082
12
0.210993611660381
22
0.274243118421364
32
0.0306315370500088
13
0.210993611660381
23
0.274243118421364
33
0.0306315370500088
70
0
  0
3DFACE
 8
<Black>
10
0.206500862636943
20
0.32033098628931
30
0.0171530265510082
11
0.207660372772594
21
0.296127656523514
31
0.0328055231750011
12
0.209254473629375
22
0.284678123740482
32
0.0317910471856594
13
0.209254473629375
23
0.284678123740482
33
0.0317910471856594
70
0
  0
3DFACE
 8
<Black>
10
0.206500862636943
20
0.32033098628931
30
0.0171530265510082
11
0.204471904602428
21
0.31424400318079
31
0.0348344751536846
12
0.207660372772594
22
0.296127656523514
32
0.0328055231750011
13
0.207660372772594
23
0.296127656523514
33
0.0328055231750011
70
0
  0
3DFACE
 8
<Black>
10
0.148673439112087
20
0.273228590957451
30
0.015123921662569
11
0.146209642067333
21
0.303664039413261
31
0.0338199991643429
12
0.144325466862102
22
0.332215392903614
32
0.0178776885926723
13
0.144325466862102
23
0.332215392903614
33
0.0178776885926723
70
0
  0
3DFACE
 8
<Black>
10
0.148673439112087
20
0.273228590957451
30
0.015123921662569
11
0.146934301081081
21
0.286852084506678
31
0.0329503029763699
12
0.146209642067333
22
0.303664039413261
32
0.0338199991643429
13
0.146209642067333
23
0.303664039413261
33
0.0338199991643429
70
0
  0
3DFACE
 8
<Black>
10
0.148673439112087
20
0.273228590957451
30
0.015123921662569
11
0.148093811216732
21
0.27047492697649
31
0.0328055231750011
12
0.146934301081081
22
0.286852084506678
32
0.0329503029763699
13
0.146934301081081
23
0.286852084506678
33
0.0329503029763699
70
0
  0
3DFACE
 8
<Black>
10
0.148673439112087
20
0.273228590957451
30
0.015123921662569
11
0.148093811216732
21
0.255692050842571
31
0.0328055231750011
12
0.148093811216732
22
0.27047492697649
32
0.0328055231750011
13
0.148093811216732
23
0.27047492697649
33
0.0328055231750011
70
0
  0
3DFACE
 8
<Black>
10
0.144325466862102
20
0.215401299146938
30
0.0122252992331982
11
0.153891107550045
21
0.162936326889324
31
0.0136745975792408
12
0.154325704327007
22
0.215980927042293
32
0.0309213509976864
13
0.154325704327007
23
0.215980927042293
33
0.0309213509976864
70
0
  0
3DFACE
 8
<Black>
10
0.223602677288433
20
0.212792464927959
30
-0.0112534799560905
11
0.224037522354503
21
0.191342671970653
31
-0.00371708665788174
12
0.222153359260936
22
0.192937033228206
32
-0.0112534799560905
13
0.222153359260936
23
0.192937033228206
33
-0.0112534799560905
70
0
  0
3DFACE
 8
<Black>
10
0.222153359260936
20
0.192937033228206
30
-0.0112534799560905
11
0.224037522354503
21
0.191342671970653
31
-0.00371708665788174
12
0.215631397858043
22
0.173226372246074
32
-0.00980416765916161
13
0.215631397858043
23
0.173226372246074
33
-0.00980416765916161
70
0
  0
3DFACE
 8
<Black>
10
0.218385263195415
20
0.202792233518886
30
0.0146891250431538
11
0.184471441784282
21
0.199313957456875
31
0.0271532609879971
12
0.199689081230541
22
0.139602370838451
32
0.000920699161291118
13
0.199689081230541
23
0.139602370838451
33
0.000920699161291118
70
0
  0
3DFACE
 8
<Black>
10
0.208819628563304
20
0.154385419563579
30
-0.00371708665788174
11
0.218385263195415
21
0.202792233518886
31
0.0146891250431538
12
0.199689081230541
22
0.139602370838451
32
0.000920699161291118
13
0.199689081230541
23
0.139602370838451
33
0.000920699161291118
70
0
  0
3DFACE
 8
<Black>
10
0.224037522354503
20
0.191342671970653
30
-0.00371708665788174
11
0.218385263195415
21
0.202792233518886
31
0.0146891250431538
12
0.208819628563304
22
0.154385419563579
32
-0.00371708665788174
13
0.208819628563304
23
0.154385419563579
33
-0.00371708665788174
70
0
  0
3DFACE
 8
<Black>
10
0.215631397858043
20
0.173226372246074
30
-0.00980416765916161
11
0.208819628563304
21
0.154385419563579
31
-0.00371708665788174
12
0.206211042633434
22
0.15554492969923
32
-0.00878965461924673
13
0.206211042633434
23
0.15554492969923
33
-0.00878965461924673
70
0
  0
3DFACE
 8
<Black>
10
0.215631397858043
20
0.173226372246074
30
-0.00980416765916161
11
0.224037522354503
21
0.191342671970653
31
-0.00371708665788174
12
0.208819628563304
22
0.154385419563579
32
-0.00371708665788174
13
0.208819628563304
23
0.154385419563579
33
-0.00371708665788174
70
0
  0
3DFACE
 8
<Black>
10
0.156354904594799
20
0.144820039276409
30
-0.00603597975671292
11
0.16476078080215
21
0.133080663780498
31
-0.00516638538241387
12
0.162876611652752
22
0.131921153644848
32
-0.00110832851529122
13
0.162876611652752
23
0.131921153644848
33
-0.00110832851529122
70
0
  0
3DFACE
 8
<Black>
10
0.153891107550045
20
0.162936326889324
30
0.0136745975792408
11
0.164905817976375
21
0.131921153644848
31
0.00628314740061759
12
0.170268263187786
22
0.131776116470623
32
0.00961654222607612
13
0.170268263187786
23
0.131776116470623
33
0.00961654222607612
70
0
  0
3DFACE
 8
<Black>
10
0.184471441784282
20
0.199313957456875
30
0.0271532609879971
11
0.153891107550045
21
0.162936326889324
31
0.0136745975792408
12
0.170268263187786
22
0.131776116470623
32
0.00961654222607612
13
0.170268263187786
23
0.131776116470623
33
0.00961654222607612
70
0
  0
3DFACE
 8
<Black>
10
0.206211042633434
20
0.15554492969923
30
-0.00878965461924673
11
0.208819628563304
21
0.154385419563579
31
-0.00371708665788174
12
0.197080253067394
22
0.141051688865947
32
-0.00719542100727559
13
0.197080253067394
23
0.141051688865947
33
-0.00719542100727559
70
0
  0
3DFACE
 8
<Black>
10
0.172007401218792
20
0.12713833027296
30
-0.00487652033865452
11
0.162876611652752
21
0.131921153644848
31
-0.00110832851529122
12
0.16476078080215
22
0.133080663780498
32
-0.00516638538241387
13
0.16476078080215
23
0.133080663780498
33
-0.00516638538241387
70
0
  0
3DFACE
 8
<Black>
10
0.164905817976375
20
0.131921153644848
30
0.00628314740061759
11
0.171862364044567
21
0.125399192241955
31
0.00338452497124671
12
0.175775497284313
22
0.125689266590404
32
0.00526861993670463
13
0.175775497284313
23
0.125689266590404
33
0.00526861993670463
70
0
  0
3DFACE
 8
<Black>
10
0.175775497284313
20
0.125689266590404
30
0.00526861993670463
11
0.170268263187786
21
0.131776116470623
31
0.00961654222607612
12
0.164905817976375
22
0.131921153644848
32
0.00628314740061759
13
0.164905817976375
23
0.131921153644848
33
0.00628314740061759
70
0
  0
3DFACE
 8
<Black>
10
0.184471441784282
20
0.199313957456875
30
0.0271532609879971
11
0.170268263187786
21
0.131776116470623
31
0.00961654222607612
12
0.175775497284313
22
0.125689266590404
32
0.00526861993670463
13
0.175775497284313
23
0.125689266590404
33
0.00526861993670463
70
0
  0
3DFACE
 8
<Black>
10
0.184471441784282
20
0.199313957456875
30
0.0271532609879971
11
0.175775497284313
21
0.125689266590404
31
0.00526861993670463
12
0.199689081230541
22
0.139602370838451
32
0.000920699161291118
13
0.199689081230541
23
0.139602370838451
33
0.000920699161291118
70
0
  0
3DFACE
 8
<Black>
10
0.182587266579052
20
0.124674527172374
30
-0.00154312589168549
11
0.175775497284313
21
0.125689266590404
31
0.00526861993670463
12
0.176935007419963
22
0.123370246319103
32
0.00106563187241554
13
0.176935007419963
23
0.123370246319103
33
0.00106563187241554
70
0
  0
3DFACE
 8
<Black>
10
0.176935007419963
20
0.123370246319103
30
0.00106563187241554
11
0.175775497284313
21
0.125689266590404
31
0.00526861993670463
12
0.171862364044567
22
0.125399192241955
32
0.00338452497124671
13
0.171862364044567
23
0.125399192241955
33
0.00338452497124671
70
0
  0
3DFACE
 8
<Black>
10
0.199689081230541
20
0.139602370838451
30
0.000920699161291118
11
0.175775497284313
21
0.125689266590404
31
0.00526861993670463
12
0.182587266579052
22
0.124674527172374
32
-0.00154312589168549
13
0.182587266579052
23
0.124674527172374
33
-0.00154312589168549
70
0
  0
3DFACE
 8
<Black>
10
0.189544073048015
20
0.131631333641338
30
-0.0058910470455885
11
0.182587266579052
21
0.124674527172374
31
-0.00154312589168549
12
0.182152421512981
22
0.125689266590404
32
-0.00473158800601959
13
0.182152421512981
23
0.125689266590404
33
-0.00473158800601959
70
0
  0
3DFACE
 8
<Black>
10
0.182587266579052
20
0.124674527172374
30
-0.00154312589168549
11
0.176935007419963
21
0.124529756454754
31
-0.00458665567338467
12
0.182152421512981
22
0.125689266590404
32
-0.00473158800601959
13
0.182152421512981
23
0.125689266590404
33
-0.00473158800601959
70
0
  0
3DFACE
 8
<Black>
10
0.144180690088649
20
0.202937264637279
30
-0.0100940334776416
11
0.144325466862102
21
0.215401299146938
31
0.0122252992331982
12
0.148673439112087
22
0.273228590957451
32
0.015123921662569
13
0.148673439112087
23
0.273228590957451
33
0.015123921662569
70
0
  0
3DFACE
 8
<Black>
10
0.144180690088649
20
0.202937264637279
30
-0.0100940334776416
11
0.143021179952999
21
0.184241082672405
31
-0.00951431200075895
12
0.144325466862102
22
0.215401299146938
32
0.0122252992331982
13
0.144325466862102
23
0.215401299146938
33
0.0122252992331982
70
0
  0
3DFACE
 8
<Black>
10
0.148673439112087
20
0.164240619854259
30
-0.00777513784766197
11
0.153891107550045
21
0.162936326889324
31
0.0136745975792408
12
0.144325466862102
22
0.215401299146938
32
0.0122252992331982
13
0.144325466862102
23
0.215401299146938
33
0.0122252992331982
70
0
  0
3DFACE
 8
<Black>
10
0.143021179952999
20
0.184241082672405
30
-0.00951431200075895
11
0.148673439112087
21
0.164240619854259
31
-0.00777513784766197
12
0.144325466862102
22
0.215401299146938
32
0.0122252992331982
13
0.144325466862102
23
0.215401299146938
33
0.0122252992331982
70
0
  0
3DFACE
 8
<Black>
10
0.156354904594799
20
0.144820039276409
30
-0.00603597975671292
11
0.164905817976375
21
0.131921153644848
31
0.00628314740061759
12
0.153891107550045
22
0.162936326889324
32
0.0136745975792408
13
0.153891107550045
23
0.162936326889324
33
0.0136745975792408
70
0
  0
3DFACE
 8
<Black>
10
0.148673439112087
20
0.164240619854259
30
-0.00777513784766197
11
0.156354904594799
21
0.144820039276409
31
-0.00603597975671292
12
0.153891107550045
22
0.162936326889324
32
0.0136745975792408
13
0.153891107550045
23
0.162936326889324
33
0.0136745975792408
70
0
  0
3DFACE
 8
<Black>
10
0.156354904594799
20
0.144820039276409
30
-0.00603597975671292
11
0.162876611652752
21
0.131921153644848
31
-0.00110832851529122
12
0.164905817976375
22
0.131921153644848
32
0.00628314740061759
13
0.164905817976375
23
0.131921153644848
33
0.00628314740061759
70
0
  0
3DFACE
 8
<Black>
10
0.172007401218792
20
0.12713833027296
30
-0.00487652033865452
11
0.171862364044567
21
0.125399192241955
31
0.00338452497124671
12
0.162876611652752
22
0.131921153644848
32
-0.00110832851529122
13
0.162876611652752
23
0.131921153644848
33
-0.00110832851529122
70
0
  0
3DFACE
 8
<Black>
10
0.171862364044567
20
0.125399192241955
30
0.00338452497124671
11
0.164905817976375
21
0.131921153644848
31
0.00628314740061759
12
0.162876611652752
22
0.131921153644848
32
-0.00110832851529122
13
0.162876611652752
23
0.131921153644848
33
-0.00110832851529122
70
0
  0
3DFACE
 8
<Black>
10
0.197080253067394
20
0.141051688865947
30
-0.00719542100727559
11
0.199689081230541
21
0.139602370838451
31
0.000920699161291118
12
0.189544073048015
22
0.131631333641338
32
-0.0058910470455885
13
0.189544073048015
23
0.131631333641338
33
-0.0058910470455885
70
0
  0
3DFACE
 8
<Black>
10
0.197080253067394
20
0.141051688865947
30
-0.00719542100727559
11
0.208819628563304
21
0.154385419563579
31
-0.00371708665788174
12
0.199689081230541
22
0.139602370838451
32
0.000920699161291118
13
0.199689081230541
23
0.139602370838451
33
0.000920699161291118
70
0
  0
3DFACE
 8
<Black>
10
0.223602677288433
20
0.212792464927959
30
-0.0112534799560905
11
0.218385263195415
21
0.202792233518886
31
0.0146891250431538
12
0.224037522354503
22
0.191342671970653
32
-0.00371708665788174
13
0.224037522354503
23
0.191342671970653
33
-0.00371708665788174
70
0
  0
3DFACE
 8
<Black>
10
0.223602677288433
20
0.212792464927959
30
-0.0112534799560905
11
0.222153359260936
21
0.231633423666286
31
-0.0106737580060959
12
0.218385263195415
22
0.202792233518886
32
0.0146891250431538
13
0.218385263195415
23
0.202792233518886
33
0.0146891250431538
70
0
  0
3DFACE
 8
<Black>
10
0.203167357292553
20
0.211343140844631
30
0.0265733787477017
11
0.184471441784282
21
0.199313957456875
31
0.0271532609879971
12
0.218385263195415
22
0.202792233518886
32
0.0146891250431538
13
0.218385263195415
23
0.202792233518886
33
0.0146891250431538
70
0
  0
3DFACE
 8
<Black>
10
0.176935007419963
20
0.123370246319103
30
0.00106563187241554
11
0.171862364044567
21
0.125399192241955
31
0.00338452497124671
12
0.176935007419963
22
0.124529756454754
32
-0.00458665567338467
13
0.176935007419963
23
0.124529756454754
33
-0.00458665567338467
70
0
  0
3DFACE
 8
<Black>
10
0.176935007419963
20
0.124529756454754
30
-0.00458665567338467
11
0.171862364044567
21
0.125399192241955
31
0.00338452497124671
12
0.172007401218792
22
0.12713833027296
32
-0.00487652033865452
13
0.172007401218792
23
0.12713833027296
33
-0.00487652033865452
70
0
  0
3DFACE
 8
<Black>
10
0.182587266579052
20
0.124674527172374
30
-0.00154312589168549
11
0.176935007419963
21
0.123370246319103
31
0.00106563187241554
12
0.176935007419963
22
0.124529756454754
32
-0.00458665567338467
13
0.176935007419963
23
0.124529756454754
33
-0.00458665567338467
70
0
  0
3DFACE
 8
<Black>
10
0.199689081230541
20
0.139602370838451
30
0.000920699161291118
11
0.182587266579052
21
0.124674527172374
31
-0.00154312589168549
12
0.189544073048015
22
0.131631333641338
32
-0.0058910470455885
13
0.189544073048015
23
0.131631333641338
33
-0.0058910470455885
70
0
  0
3DFACE
 8
<Black>
10
0.216935945167919
20
0.252358554581928
30
-0.00806500535160303
11
0.214761949959179
21
0.260909464935589
31
-0.00589104704558849
12
0.214906732788463
22
0.275402551345157
32
0.00715271641612053
13
0.214906732788463
23
0.275402551345157
33
0.00715271641612053
70
0
  0
3DFACE
 8
<Black>
10
0.214761949959179
20
0.260909464935589
30
-0.00589104704558849
11
0.211573493900676
21
0.275692416767406
31
-0.00270255957245827
12
0.214906732788463
22
0.275402551345157
32
0.00715271641612053
13
0.214906732788463
23
0.275402551345157
33
0.00715271641612053
70
0
  0
3DFACE
 8
<Black>
10
0.148963253059764
20
0.332360427049923
30
0.00034096983075142
11
0.152151715174099
21
0.31670793042593
31
5.1105165481573e-005
12
0.151282273331066
22
0.31670793042593
32
0.000775767207145697
13
0.151282273331066
23
0.31670793042593
33
0.000775767207145697
70
0
  0
3DFACE
 8
<Black>
10
0.152151715174099
20
0.31670793042593
30
5.1105165481573e-005
11
0.156789501371761
21
0.301490079025554
31
-0.00038366647362709
12
0.151282273331066
22
0.31670793042593
32
0.000775767207145697
13
0.151282273331066
23
0.31670793042593
33
0.000775767207145697
70
0
  0
3DFACE
 8
<Black>
10
0.151282273331066
20
0.31670793042593
30
0.000775767207145697
11
0.156789501371761
21
0.301490079025554
31
-0.00038366647362709
12
0.158818707695385
22
0.288591252816844
32
-9.38275456428528e-005
13
0.158818707695385
23
0.288591252816844
33
-9.38275456428528e-005
70
0
  0
3DFACE
 8
<Black>
10
0.156789501371761
20
0.301490079025554
30
-0.00038366647362709
11
0.159978217831035
21
0.288736185244101
31
-0.000963396561145782
12
0.158818707695385
22
0.288591252816844
32
-9.38275456428528e-005
13
0.158818707695385
23
0.288591252816844
33
-9.38275456428528e-005
70
0
  0
3DFACE
 8
<Black>
10
0.159978217831035
20
0.288736185244101
30
-0.000963396561145782
11
0.161137473621746
21
0.276851875428486
31
-0.00197792326807976
12
0.158818707695385
22
0.288591252816844
32
-9.38275456428528e-005
13
0.158818707695385
23
0.288591252816844
33
-9.38275456428528e-005
70
0
  0
3DFACE
 8
<Black>
10
0.161137473621746
20
0.276851875428486
30
-0.00197792326807976
11
0.148673439112087
21
0.273228590957451
31
0.015123921662569
12
0.158818707695385
22
0.288591252816844
32
-9.38275456428528e-005
13
0.158818707695385
23
0.288591252816844
33
-9.38275456428528e-005
70
0
  0
3DFACE
 8
<Black>
10
0.15983318065681
20
0.261779161123562
30
-0.00429681636691093
11
0.148673439112087
21
0.273228590957451
31
0.015123921662569
12
0.161137473621746
22
0.276851875428486
32
-0.00197792326807976
13
0.161137473621746
23
0.276851875428486
33
-0.00197792326807976
70
0
  0
3DFACE
 8
<Black>
10
0.157514166441341
20
0.242358320144939
30
-0.00734035087972879
11
0.148673439112087
21
0.273228590957451
31
0.015123921662569
12
0.15983318065681
22
0.261779161123562
32
-0.00429681636691093
13
0.15983318065681
23
0.261779161123562
33
-0.00429681636691093
70
0
  0
3DFACE
 8
<Black>
10
0.151717118397136
20
0.221778223375606
30
-0.00922445175908506
11
0.148673439112087
21
0.273228590957451
31
0.015123921662569
12
0.157514166441341
22
0.242358320144939
32
-0.00734035087972879
13
0.157514166441341
23
0.242358320144939
33
-0.00734035087972879
70
0
  0
3DFACE
 8
<Black>
10
0.148673439112087
20
0.273228590957451
30
0.015123921662569
11
0.151717118397136
21
0.221778223375606
31
-0.00922445175908506
12
0.144180690088649
22
0.202937264637279
32
-0.0100940334776416
13
0.144180690088649
23
0.202937264637279
33
-0.0100940334776416
70
0
  0
3DFACE
 8
<Black>
10
0.152296752348323
20
0.344534393266964
30
0.0399071094453335
11
0.158963484468837
21
0.360621734957027
31
0.0435304196536541
12
0.158818707695385
22
0.361201617197323
32
0.0420810955703258
13
0.158818707695385
23
0.361201617197323
33
0.0420810955703258
70
0
  0
3DFACE
 8
<Black>
10
0.166934769955059
20
0.365404558328914
30
0.0449797437369823
11
0.158818707695385
21
0.361201617197323
31
0.0420810955703258
12
0.158963484468837
22
0.360621734957027
32
0.0435304196536541
13
0.158963484468837
23
0.360621734957027
33
0.0435304196536541
70
0
  0
3DFACE
 8
<Black>
10
0.167949242916484
20
0.369462716631222
30
0.0304865029036999
11
0.158818707695385
21
0.361201617197323
31
0.0420810955703258
12
0.166934769955059
22
0.365404558328914
32
0.0449797437369823
13
0.166934769955059
23
0.365404558328914
33
0.0449797437369823
70
0
  0
3DFACE
 8
<Black>
10
0.174471204319377
20
0.366998659185695
30
0.0442550786674023
11
0.167949242916484
21
0.369462716631222
31
0.0304865029036999
12
0.166934769955059
22
0.365404558328914
32
0.0449797437369823
13
0.166934769955059
23
0.365404558328914
33
0.0449797437369823
70
0
  0
3DFACE
 8
<Black>
10
0.218385263195415
20
0.202792233518886
30
0.0146891250431538
11
0.213167594757457
21
0.247430954436588
31
0.0275878547370434
12
0.212153121796032
22
0.236851092104244
32
0.0272980407893658
13
0.212153121796032
23
0.236851092104244
33
0.0272980407893658
70
0
  0
3DFACE
 8
<Black>
10
0.212153121796032
20
0.236851092104244
30
0.0272980407893658
11
0.208529808559795
21
0.222647665218639
31
0.0270082268416882
12
0.218385263195415
22
0.202792233518886
32
0.0146891250431538
13
0.218385263195415
23
0.202792233518886
33
0.0146891250431538
70
0
  0
3DFACE
 8
<Black>
10
0.208529808559795
20
0.222647665218639
30
0.0270082268416882
11
0.203167357292553
21
0.211343140844631
31
0.0265733787477017
12
0.218385263195415
22
0.202792233518886
32
0.0146891250431538
13
0.218385263195415
23
0.202792233518886
33
0.0146891250431538
70
0
  0
3DFACE
 8
<Black>
10
0.165630476990123
20
0.19989358535223
30
0.0296170610606671
11
0.153891107550045
21
0.162936326889324
31
0.0136745975792408
12
0.184471441784282
22
0.199313957456875
32
0.0271532609879971
13
0.184471441784282
23
0.199313957456875
33
0.0271532609879971
70
0
  0
3DFACE
 8
<Black>
10
0.154325704327007
20
0.215980927042293
30
0.0309213509976864
11
0.153891107550045
21
0.162936326889324
31
0.0136745975792408
12
0.165630476990123
22
0.19989358535223
32
0.0296170610606671
13
0.165630476990123
23
0.19989358535223
33
0.0296170610606671
70
0
  0
3DFACE
 8
<Black>
10
0.166934769955059
20
0.365404558328914
30
0.0449797437369823
11
0.158963484468837
21
0.360621734957027
31
0.0435304196536541
12
0.159543366709133
22
0.360042107061672
32
0.0435304196536541
13
0.159543366709133
23
0.360042107061672
33
0.0435304196536541
70
0
  0
3DFACE
 8
<Black>
10
0.158963484468837
20
0.360621734957027
30
0.0435304196536541
11
0.152296752348323
21
0.344534393266964
31
0.0399071094453335
12
0.159543366709133
22
0.360042107061672
32
0.0435304196536541
13
0.159543366709133
23
0.360042107061672
33
0.0435304196536541
70
0
  0
3DFACE
 8
<Black>
10
0.159543366709133
20
0.360042107061672
30
0.0435304196536541
11
0.152296752348323
21
0.344534393266964
31
0.0399071094453335
12
0.153021411362072
22
0.344244579319286
32
0.0401969233930111
13
0.153021411362072
23
0.344244579319286
33
0.0401969233930111
70
0
  0
3DFACE
 8
<Black>
10
0.152296752348323
20
0.344534393266964
30
0.0399071094453335
11
0.147658966150661
21
0.33018644092493
31
0.0377331233203411
12
0.153021411362072
22
0.344244579319286
32
0.0401969233930111
13
0.153021411362072
23
0.344244579319286
33
0.0401969233930111
70
0
  0
3DFACE
 8
<Black>
10
0.144325466862102
20
0.215401299146938
30
0.0122252992331982
11
0.154325704327007
21
0.215980927042293
31
0.0309213509976864
12
0.149832949247737
22
0.236271209863949
32
0.0325157092273235
13
0.149832949247737
23
0.236271209863949
33
0.0325157092273235
70
0
  0
3DFACE
 8
<Black>
10
0.144325466862102
20
0.215401299146938
30
0.0122252992331982
11
0.149832949247737
21
0.236271209863949
31
0.0325157092273235
12
0.148093811216732
22
0.255692050842571
32
0.0328055231750011
13
0.148093811216732
23
0.255692050842571
33
0.0328055231750011
70
0
  0
3DFACE
 8
<Black>
10
0.144325466862102
20
0.215401299146938
30
0.0122252992331982
11
0.148093811216732
21
0.255692050842571
31
0.0328055231750011
12
0.148673439112087
22
0.273228590957451
32
0.015123921662569
13
0.148673439112087
23
0.273228590957451
33
0.015123921662569
70
0
  0
3DFACE
 8
sk
10
0.147757264414211
20
0.330080267051983
30
0.0377961160838604
11
0.152974926796337
21
0.344138408474254
31
0.0402599131286144
12
0.153119709625621
22
0.344138408474254
32
0.0405499814212322
13
0.153119709625621
23
0.344138408474254
33
0.0405499814212322
70
0
  0
3DFACE
 8
sk
10
0.147757264414211
20
0.330080267051983
30
0.0377961160838604
11
0.153119709625621
21
0.344138408474254
31
0.0405499814212322
12
0.147902295532604
22
0.329935232905674
32
0.0380861813485622
13
0.147902295532604
23
0.329935232905674
33
0.0380861813485622
70
0
  0
3DFACE
 8
sk
10
0.154279219761272
20
0.322398801569271
30
0.0780868617236614
11
0.170656381454845
21
0.272542766479778
31
0.075912878626585
12
0.144858616247554
22
0.306456540958214
32
0.0663474922835827
13
0.144858616247554
23
0.306456540958214
33
0.0663474922835827
70
0
  0
3DFACE
 8
sk
10
0.154279219761272
20
0.322398801569271
30
0.0780868617236614
11
0.170946189346691
21
0.316021877340603
31
0.086637775105238
12
0.170656381454845
22
0.272542766479778
32
0.075912878626585
13
0.170656381454845
23
0.272542766479778
33
0.075912878626585
70
0
  0
3DFACE
 8
sk
10
0.200512044563671
20
0.334573019103336
30
0.0364918231189251
11
0.202686027660747
21
0.33283388107233
31
0.0547531539618969
12
0.191091689339061
22
0.354428708175945
32
0.0401151333272457
13
0.191091689339061
23
0.354428708175945
33
0.0401151333272457
70
0
  0
3DFACE
 8
sk
10
0.191091689339061
20
0.354428708175945
30
0.0401151333272457
11
0.202686027660747
21
0.33283388107233
31
0.0547531539618969
12
0.171960662308116
22
0.359356308321285
32
0.0625794022738934
13
0.171960662308116
23
0.359356308321285
33
0.0625794022738934
70
0
  0
3DFACE
 8
sk
10
0.171960662308116
20
0.359356308321285
30
0.0625794022738934
11
0.189642371311565
21
0.316601759580898
31
0.0811305470645428
12
0.16978667921104
22
0.343848594526577
32
0.076782574814558
13
0.16978667921104
23
0.343848594526577
33
0.076782574814558
70
0
  0
3DFACE
 8
sk
10
0.171960662308116
20
0.359356308321285
30
0.0625794022738934
11
0.202686027660747
21
0.33283388107233
31
0.0547531539618969
12
0.189642371311565
22
0.316601759580898
32
0.0811305470645428
13
0.189642371311565
23
0.316601759580898
33
0.0811305470645428
70
0
  0
3DFACE
 8
sk
10
0.204280394974132
20
0.314137882296371
30
0.0351875331819057
11
0.207903696098705
21
0.277470416585731
31
0.0393904712855816
12
0.202686027660747
22
0.33283388107233
32
0.0547531539618969
13
0.202686027660747
23
0.33283388107233
33
0.0547531539618969
70
0
  0
3DFACE
 8
sk
10
0.207903696098705
20
0.277470416585731
30
0.0393904712855816
11
0.189642371311565
21
0.316601759580898
31
0.0811305470645428
12
0.202686027660747
22
0.33283388107233
32
0.0547531539618969
13
0.202686027660747
23
0.33283388107233
33
0.0547531539618969
70
0
  0
3DFACE
 8
sk
10
0.189642371311565
20
0.316601759580898
30
0.0811305470645428
11
0.170656381454845
21
0.272542766479778
31
0.075912878626585
12
0.170946189346691
22
0.316021877340603
32
0.086637775105238
13
0.170946189346691
23
0.316021877340603
33
0.086637775105238
70
0
  0
3DFACE
 8
sk
10
0.207468851032634
20
0.296021535260606
30
0.033158329886198
11
0.207903696098705
21
0.277470416585731
31
0.0393904712855816
12
0.204280394974132
22
0.314137882296371
32
0.0351875331819057
13
0.204280394974132
23
0.314137882296371
33
0.0351875331819057
70
0
  0
3DFACE
 8
sk
10
0.189642371311565
20
0.316601759580898
30
0.0811305470645428
11
0.211816574993511
21
0.236889698032665
31
0.027506067699194
12
0.170656381454845
22
0.272542766479778
32
0.075912878626585
13
0.170656381454845
23
0.272542766479778
33
0.075912878626585
70
0
  0
3DFACE
 8
sk
10
0.211816574993511
20
0.236889698032665
30
0.027506067699194
11
0.189642371311565
21
0.316601759580898
31
0.0811305470645428
12
0.212831302299877
22
0.247469814709949
32
0.0277958816468716
13
0.212831302299877
23
0.247469814709949
33
0.0277958816468716
70
0
  0
3DFACE
 8
sk
10
0.148337140598674
20
0.270368804578113
30
0.0333033640325069
11
0.147177630463024
21
0.28674596324377
31
0.0334483951508999
12
0.144858616247554
22
0.306456540958214
32
0.0663474922835827
13
0.144858616247554
23
0.306456540958214
33
0.0663474922835827
70
0
  0
3DFACE
 8
sk
10
0.164569265118023
20
0.357906984237957
30
0.0638836952388287
11
0.16978667921104
21
0.343848594526577
31
0.076782574814558
12
0.154279219761272
22
0.322398801569271
32
0.0780868617236614
13
0.154279219761272
23
0.322398801569271
33
0.0780868617236614
70
0
  0
3DFACE
 8
sk
10
0.147902295532604
20
0.329935232905674
30
0.0380861813485622
11
0.153119709625621
21
0.344138408474254
31
0.0405499814212322
12
0.147902295532604
22
0.328630942968654
32
0.0493907087504864
13
0.147902295532604
23
0.328630942968654
33
0.0493907087504864
70
0
  0
3DFACE
 8
sk
10
0.153119709625621
20
0.344138408474254
30
0.0405499814212322
11
0.159641664972683
21
0.359791153387356
31
0.043883226364851
12
0.147902295532604
22
0.328630942968654
32
0.0493907087504864
13
0.147902295532604
23
0.328630942968654
33
0.0493907087504864
70
0
  0
3DFACE
 8
sk
10
0.159641664972683
20
0.359791153387356
30
0.043883226364851
11
0.164569265118023
21
0.357906984237957
31
0.0638836952388287
12
0.147902295532604
22
0.328630942968654
32
0.0493907087504864
13
0.147902295532604
23
0.328630942968654
33
0.0493907087504864
70
0
  0
3DFACE
 8
sk
10
0.147902295532604
20
0.328630942968654
30
0.0493907087504864
11
0.164569265118023
21
0.357906984237957
31
0.0638836952388287
12
0.146452971449276
22
0.324717818812656
32
0.063593881291151
13
0.146452971449276
23
0.324717818812656
33
0.063593881291151
70
0
  0
3DFACE
 8
sk
10
0.146452971449276
20
0.324717818812656
30
0.063593881291151
11
0.164569265118023
21
0.357906984237957
31
0.0638836952388287
12
0.154279219761272
22
0.322398801569271
32
0.0780868617236614
13
0.154279219761272
23
0.322398801569271
33
0.0780868617236614
70
0
  0
3DFACE
 8
sk
10
0.145438492432018
20
0.317471201423931
30
0.0360569780528545
11
0.147902295532604
21
0.329935232905674
31
0.0380861813485622
12
0.147902295532604
22
0.328630942968654
32
0.0493907087504864
13
0.147902295532604
23
0.328630942968654
33
0.0493907087504864
70
0
  0
3DFACE
 8
sk
10
0.145438492432018
20
0.317471201423931
30
0.0360569780528545
11
0.147902295532604
21
0.328630942968654
31
0.0493907087504864
12
0.144858616247554
22
0.306456540958214
32
0.0663474922835827
13
0.144858616247554
23
0.306456540958214
33
0.0663474922835827
70
0
  0
3DFACE
 8
sk
10
0.146452971449276
20
0.324717818812656
30
0.063593881291151
11
0.154279219761272
21
0.322398801569271
31
0.0780868617236614
12
0.144858616247554
22
0.306456540958214
32
0.0663474922835827
13
0.144858616247554
23
0.306456540958214
33
0.0663474922835827
70
0
  0
3DFACE
 8
sk
10
0.154858847656627
20
0.216019787315655
30
0.0311293779075146
11
0.150221061458965
21
0.236165039018917
31
0.0328685159385205
12
0.170656381454845
22
0.272542766479778
32
0.075912878626585
13
0.170656381454845
23
0.272542766479778
33
0.075912878626585
70
0
  0
3DFACE
 8
sk
10
0.147902295532604
20
0.328630942968654
30
0.0493907087504864
11
0.146452971449276
21
0.324717818812656
31
0.063593881291151
12
0.144858616247554
22
0.306456540958214
32
0.0663474922835827
13
0.144858616247554
23
0.306456540958214
33
0.0663474922835827
70
0
  0
3DFACE
 8
sk
10
0.150221061458965
20
0.236165039018917
30
0.0328685159385205
11
0.144858616247554
21
0.306456540958214
31
0.0663474922835827
12
0.170656381454845
22
0.272542766479778
32
0.075912878626585
13
0.170656381454845
23
0.272542766479778
33
0.075912878626585
70
0
  0
3DFACE
 8
sk
10
0.212541227951427
20
0.258774339083957
30
0.0293902398765087
11
0.189642371311565
21
0.316601759580898
31
0.0811305470645428
12
0.207903696098705
22
0.277470416585731
32
0.0393904712855816
13
0.207903696098705
23
0.277470416585731
33
0.0393904712855816
70
0
  0
3DFACE
 8
sk
10
0.212541227951427
20
0.258774339083957
30
0.0293902398765087
11
0.207903696098705
21
0.277470416585731
31
0.0393904712855816
12
0.2106573192028
22
0.274136996022987
32
0.0309843437612057
13
0.2106573192028
23
0.274136996022987
33
0.0309843437612057
70
0
  0
3DFACE
 8
sk
10
0.2106573192028
20
0.274136996022987
30
0.0309843437612057
11
0.207903696098705
21
0.277470416585731
31
0.0393904712855816
12
0.208918181171794
22
0.284572002477574
32
0.0321438538968563
13
0.208918181171794
23
0.284572002477574
33
0.0321438538968563
70
0
  0
3DFACE
 8
sk
10
0.171960662308116
20
0.359356308321285
30
0.0625794022738934
11
0.16978667921104
21
0.343848594526577
31
0.076782574814558
12
0.164569265118023
22
0.357906984237957
32
0.0638836952388287
13
0.164569265118023
23
0.357906984237957
33
0.0638836952388287
70
0
  0
3DFACE
 8
sk
10
0.212831302299877
20
0.247469814709949
30
0.0277958816468716
11
0.189642371311565
21
0.316601759580898
31
0.0811305470645428
12
0.212541227951427
22
0.258774339083957
32
0.0293902398765087
13
0.212541227951427
23
0.258774339083957
33
0.0293902398765087
70
0
  0
3DFACE
 8
sk
10
0.208918181171794
20
0.284572002477574
30
0.0321438538968563
11
0.207903696098705
21
0.277470416585731
31
0.0393904712855816
12
0.207468851032634
22
0.296021535260606
32
0.033158329886198
13
0.207468851032634
23
0.296021535260606
33
0.033158329886198
70
0
  0
3DFACE
 8
sk
10
0.204280394974132
20
0.314137882296371
30
0.0351875331819057
11
0.202686027660747
21
0.33283388107233
31
0.0547531539618969
12
0.200512044563671
22
0.334573019103336
32
0.0364918231189251
13
0.200512044563671
23
0.334573019103336
33
0.0364918231189251
70
0
  0
3DFACE
 8
sk
10
0.170656381454845
20
0.272542766479778
30
0.075912878626585
11
0.211816574993511
21
0.236889698032665
31
0.027506067699194
12
0.208193516102214
22
0.222686525492
32
0.0272162537515164
13
0.208193516102214
23
0.222686525492
33
0.0272162537515164
70
0
  0
3DFACE
 8
sk
10
0.147177630463024
20
0.28674596324377
30
0.0334483951508999
11
0.146452971449276
21
0.303702851239967
31
0.0343178400218487
12
0.144858616247554
22
0.306456540958214
32
0.0663474922835827
13
0.144858616247554
23
0.306456540958214
33
0.0663474922835827
70
0
  0
3DFACE
 8
sk
10
0.146452971449276
20
0.303702851239967
30
0.0343178400218487
11
0.145438492432018
21
0.317471201423931
31
0.0360569780528545
12
0.144858616247554
22
0.306456540958214
32
0.0663474922835827
13
0.144858616247554
23
0.306456540958214
33
0.0663474922835827
70
0
  0
3DFACE
 8
sk
10
0.191091689339061
20
0.354428708175945
30
0.0401151333272457
11
0.171960662308116
21
0.359356308321285
31
0.0625794022738934
12
0.180946426811596
22
0.364428939585018
32
0.0434483752429485
13
0.180946426811596
23
0.364428939585018
33
0.0434483752429485
70
0
  0
3DFACE
 8
sk
10
0.180946426811596
20
0.364428939585018
30
0.0434483752429485
11
0.171960662308116
21
0.359356308321285
31
0.0625794022738934
12
0.174279682579418
22
0.366602674392986
32
0.0446078853785992
13
0.174279682579418
23
0.366602674392986
33
0.0446078853785992
70
0
  0
3DFACE
 8
sk
10
0.171960662308116
20
0.359356308321285
30
0.0625794022738934
11
0.164569265118023
21
0.357906984237957
31
0.0638836952388287
12
0.166888285389324
22
0.365443418602276
32
0.0451877676188946
13
0.166888285389324
23
0.365443418602276
33
0.0451877676188946
70
0
  0
3DFACE
 8
sk
10
0.174279682579418
20
0.366602674392986
30
0.0446078853785992
11
0.171960662308116
21
0.359356308321285
31
0.0625794022738934
12
0.166888285389324
22
0.365443418602276
32
0.0451877676188946
13
0.166888285389324
23
0.365443418602276
33
0.0451877676188946
70
0
  0
3DFACE
 8
sk
10
0.166888285389324
20
0.365443418602276
30
0.0451877676188946
11
0.164569265118023
21
0.357906984237957
31
0.0638836952388287
12
0.159641664972683
22
0.359791153387356
32
0.043883226364851
13
0.159641664972683
23
0.359791153387356
33
0.043883226364851
70
0
  0
3DFACE
 8
sk
10
0.150221061458965
20
0.236165039018917
30
0.0328685159385205
11
0.148337140598674
21
0.255585876969623
31
0.033158329886198
12
0.144858616247554
22
0.306456540958214
32
0.0663474922835827
13
0.144858616247554
23
0.306456540958214
33
0.0663474922835827
70
0
  0
3DFACE
 8
sk
10
0.148337140598674
20
0.255585876969623
30
0.033158329886198
11
0.148337140598674
21
0.270368804578113
31
0.0333033640325069
12
0.144858616247554
22
0.306456540958214
32
0.0663474922835827
13
0.144858616247554
23
0.306456540958214
33
0.0663474922835827
70
0
  0
3DFACE
 8
sk
10
0.170656381454845
20
0.272542766479778
30
0.075912878626585
11
0.184279920044323
21
0.199642631677913
31
0.0272162537515164
12
0.166018589201351
22
0.200222259573269
32
0.0296800538241864
13
0.166018589201351
23
0.200222259573269
33
0.0296800538241864
70
0
  0
3DFACE
 8
sk
10
0.170656381454845
20
0.272542766479778
30
0.075912878626585
11
0.202831064834972
21
0.211527038292217
31
0.0267814056575299
12
0.184279920044323
22
0.199642631677913
32
0.0272162537515164
13
0.184279920044323
23
0.199642631677913
33
0.0272162537515164
70
0
  0
3DFACE
 8
sk
10
0.170656381454845
20
0.272542766479778
30
0.075912878626585
11
0.208193516102214
21
0.222686525492
31
0.0272162537515164
12
0.202831064834972
22
0.211527038292217
32
0.0267814056575299
13
0.202831064834972
23
0.211527038292217
33
0.0267814056575299
70
0
  0
3DFACE
 8
sk
10
0.170656381454845
20
0.272542766479778
30
0.075912878626585
11
0.166018589201351
21
0.200222259573269
31
0.0296800538241864
12
0.154858847656627
22
0.216019787315655
32
0.0311293779075146
13
0.154858847656627
23
0.216019787315655
33
0.0311293779075146
70
0
  0
3DFACE
 8
sk
10
0.16978667921104
20
0.343848594526577
30
0.076782574814558
11
0.189642371311565
21
0.316601759580898
31
0.0811305470645428
12
0.170946189346691
22
0.316021877340603
32
0.086637775105238
13
0.170946189346691
23
0.316021877340603
33
0.086637775105238
70
0
  0
3DFACE
 8
sk
10
0.16978667921104
20
0.343848594526577
30
0.076782574814558
11
0.170946189346691
21
0.316021877340603
31
0.086637775105238
12
0.154279219761272
22
0.322398801569271
32
0.0780868617236614
13
0.154279219761272
23
0.322398801569271
33
0.0780868617236614
70
0
 0
ENDSEC
 0
EOF
