 0
SECTION
 2
ENTITIES
  0
3DFACE
 8
jean blue
10
0.00216395286597784
20
0.356702261261272
30
0.475401781576872
11
-0.0376919477077526
21
0.357571703104305
31
0.46395146304965
12
-0.0314598063083691
22
0.360325574497509
32
0.493953943747282
13
-0.0314598063083691
23
0.360325574497509
33
0.493953943747282
70
0
  0
3DFACE
 8
jean blue
10
-0.0314598063083691
20
0.360325574497509
30
0.493953943747282
11
-0.0376919477077526
21
0.357571703104305
31
0.46395146304965
12
-0.0597213685604138
22
0.34902079577856
32
0.458589532583952
13
-0.0597213685604138
23
0.34902079577856
33
0.458589532583952
70
0
  0
3DFACE
 8
jean blue
10
-0.079286986312489
20
0.318150650624561
30
0.43858959056735
11
-0.105374565467457
21
0.298150182507562
31
0.7887412797153
12
-0.0597213685604138
22
0.34902079577856
32
0.458589532583952
13
-0.0597213685604138
23
0.34902079577856
33
0.458589532583952
70
0
  0
3DFACE
 8
jean blue
10
-0.0795768063159985
20
0.282642592857408
30
0.437284001654387
11
-0.105374565467457
21
0.298150182507562
31
0.7887412797153
12
-0.079286986312489
22
0.318150650624561
32
0.43858959056735
13
-0.079286986312489
23
0.318150650624561
33
0.43858959056735
70
0
  0
3DFACE
 8
jean blue
10
-0.0145030167194409
20
0.237714181379604
30
0.457431269949675
11
0.022599269833942
21
0.295106652725863
31
0.462214117544889
12
0.0182512975839573
22
0.238148778156566
32
0.552358712118864
13
0.0182512975839573
23
0.238148778156566
33
0.552358712118864
70
0
  0
3DFACE
 8
jean blue
10
0.00897572821654851
20
0.340180071477222
30
0.459895073050261
11
0.025932766094585
21
0.341774429706859
31
0.564388161963224
12
0.022599269833942
22
0.295106652725863
32
0.462214117544889
13
0.022599269833942
23
0.295106652725863
33
0.462214117544889
70
0
  0
3DFACE
 8
jean blue
10
0.00897572821654851
20
0.340180071477222
30
0.459895073050261
11
0.00216395286597784
21
0.356702261261272
31
0.475401781576872
12
0.025932766094585
22
0.341774429706859
32
0.564388161963224
13
0.025932766094585
23
0.341774429706859
33
0.564388161963224
70
0
  0
3DFACE
 8
jean blue
10
0.00897572821654851
20
0.340180071477222
30
0.459895073050261
11
-0.0169668198200268
21
0.351484592823314
31
0.45366192638278
12
0.00216395286597784
22
0.356702261261272
32
0.475401781576872
13
0.00216395286597784
23
0.356702261261272
33
0.475401781576872
70
0
  0
3DFACE
 8
jean blue
10
0.00216395286597784
20
0.356702261261272
30
0.475401781576872
11
-0.0169668198200268
21
0.351484592823314
31
0.45366192638278
12
-0.0376919477077526
22
0.357571703104305
32
0.46395146304965
13
-0.0376919477077526
23
0.357571703104305
33
0.46395146304965
70
0
  0
3DFACE
 8
jean blue
10
-0.0169668198200268
20
0.351484592823314
30
0.45366192638278
11
-0.0559532846065563
21
0.34220902042799
31
0.443517196768522
12
-0.0376919477077526
22
0.357571703104305
32
0.46395146304965
13
-0.0376919477077526
23
0.357571703104305
33
0.46395146304965
70
0
  0
3DFACE
 8
jean blue
10
-0.0376919477077526
20
0.357571703104305
30
0.46395146304965
11
-0.0559532846065563
21
0.34220902042799
31
0.443517196768522
12
-0.0597213685604138
22
0.34902079577856
32
0.458589532583952
13
-0.0597213685604138
23
0.34902079577856
33
0.458589532583952
70
0
  0
3DFACE
 8
jean blue
10
-0.0559532846065563
20
0.34220902042799
30
0.443517196768522
11
-0.079286986312489
21
0.318150650624561
31
0.43858959056735
12
-0.0597213685604138
22
0.34902079577856
32
0.458589532583952
13
-0.0597213685604138
23
0.34902079577856
33
0.458589532583952
70
0
  0
3DFACE
 8
jean blue
10
-0.0608808786960644
20
0.309019985203075
30
0.429313509482145
11
-0.0246482853027386
21
0.251772322801876
31
0.440474262350798
12
-0.0795768063159985
22
0.282642592857408
32
0.437284001654387
13
-0.0795768063159985
23
0.282642592857408
33
0.437284001654387
70
0
  0
3DFACE
 8
jean blue
10
-0.0795768063159985
20
0.282642592857408
30
0.437284001654387
11
-0.0246482853027386
21
0.251772322801876
31
0.440474262350798
12
-0.0514602691265148
22
0.234670502094555
32
0.449458210104704
13
-0.0514602691265148
23
0.234670502094555
33
0.449458210104704
70
0
  0
3DFACE
 8
jean blue
10
-0.0246482853027386
20
0.251772322801876
30
0.440474262350798
11
-0.0145030167194409
21
0.237714181379604
31
0.457431269949675
12
-0.0514602691265148
22
0.234670502094555
32
0.449458210104704
13
-0.0514602691265148
23
0.234670502094555
33
0.449458210104704
70
0
  0
3DFACE
 8
jean blue
10
-0.0246482853027386
20
0.251772322801876
30
0.440474262350798
11
0.00332346300162847
21
0.314672297350693
31
0.444820169562101
12
-0.0145030167194409
22
0.237714181379604
32
0.457431269949675
13
-0.0145030167194409
23
0.237714181379604
33
0.457431269949675
70
0
  0
3DFACE
 8
jean blue
10
0.00332346300162847
20
0.314672297350693
30
0.444820169562101
11
0.022599269833942
21
0.295106652725863
31
0.462214117544889
12
-0.0145030167194409
22
0.237714181379604
32
0.457431269949675
13
-0.0145030167194409
23
0.237714181379604
33
0.457431269949675
70
0
  0
3DFACE
 8
jean blue
10
0.00332346300162847
20
0.314672297350693
30
0.444820169562101
11
0.00897572821654851
21
0.340180071477222
31
0.459895073050261
12
0.022599269833942
22
0.295106652725863
32
0.462214117544889
13
0.022599269833942
23
0.295106652725863
33
0.462214117544889
70
0
  0
3DFACE
 8
jean blue
10
-0.0169668198200268
20
0.351484592823314
30
0.45366192638278
11
0.00897572821654851
21
0.340180071477222
31
0.459895073050261
12
0.00332346300162847
22
0.314672297350693
32
0.444820169562101
13
0.00332346300162847
23
0.314672297350693
33
0.444820169562101
70
0
  0
3DFACE
 8
jean blue
10
-0.0169668198200268
20
0.351484592823314
30
0.45366192638278
11
0.00332346300162847
21
0.314672297350693
31
0.444820169562101
12
-0.0547937744709057
22
0.317860836676883
32
0.430619049948454
13
-0.0547937744709057
23
0.317860836676883
33
0.430619049948454
70
0
  0
3DFACE
 8
jean blue
10
-0.0169668198200268
20
0.351484592823314
30
0.45366192638278
11
-0.0547937744709057
21
0.317860836676883
31
0.430619049948454
12
-0.0559532846065563
22
0.34220902042799
32
0.443517196768522
13
-0.0559532846065563
23
0.34220902042799
33
0.443517196768522
70
0
  0
3DFACE
 8
jean blue
10
-0.0559532846065563
20
0.34220902042799
30
0.443517196768522
11
-0.0547937744709057
21
0.317860836676883
31
0.430619049948454
12
-0.0608808786960644
22
0.309019985203075
32
0.429313509482145
13
-0.0608808786960644
23
0.309019985203075
33
0.429313509482145
70
0
  0
3DFACE
 8
jean blue
10
-0.0559532846065563
20
0.34220902042799
30
0.443517196768522
11
-0.0608808786960644
21
0.309019985203075
31
0.429313509482145
12
-0.079286986312489
22
0.318150650624561
32
0.43858959056735
13
-0.079286986312489
23
0.318150650624561
33
0.43858959056735
70
0
  0
3DFACE
 8
jean blue
10
-0.079286986312489
20
0.318150650624561
30
0.43858959056735
11
-0.0608808786960644
21
0.309019985203075
31
0.429313509482145
12
-0.0795768063159985
22
0.282642592857408
32
0.437284001654387
13
-0.0795768063159985
23
0.282642592857408
33
0.437284001654387
70
0
  0
3DFACE
 8
jean blue
10
-0.0547937744709057
20
0.317860836676883
30
0.430619049948454
11
0.00332346300162847
21
0.314672297350693
31
0.444820169562101
12
-0.0246482853027386
22
0.251772322801876
32
0.440474262350798
13
-0.0246482853027386
23
0.251772322801876
33
0.440474262350798
70
0
  0
3DFACE
 8
jean blue
10
-0.0547937744709057
20
0.317860836676883
30
0.430619049948454
11
-0.0246482853027386
21
0.251772322801876
31
0.440474262350798
12
-0.0608808786960644
22
0.309019985203075
32
0.429313509482145
13
-0.0608808786960644
23
0.309019985203075
33
0.429313509482145
70
0
  0
3DFACE
 8
jean blue
10
0.0363675942806202
20
0.336411981467533
30
0.68729112522006
11
0.025932766094585
21
0.341774429706859
31
0.564388161963224
12
-0.00261861010513728
22
0.359021027187633
32
0.573953808706999
13
-0.00261861010513728
23
0.359021027187633
33
0.573953808706999
70
0
  0
3DFACE
 8
jean blue
10
-0.00261861010513728
20
0.359021027187633
30
0.573953808706999
11
-0.0314598063083691
21
0.360325574497509
31
0.493953943747282
12
-0.0416050688358349
22
0.367137089447307
32
0.514098692816496
13
-0.0416050688358349
23
0.367137089447307
33
0.514098692816496
70
0
  0
3DFACE
 8
jean blue
10
0.025932766094585
20
0.341774429706859
30
0.564388161963224
11
-0.0314598063083691
21
0.360325574497509
31
0.493953943747282
12
-0.00261861010513728
22
0.359021027187633
32
0.573953808706999
13
-0.00261861010513728
23
0.359021027187633
33
0.573953808706999
70
0
  0
3DFACE
 8
jean blue
10
-0.0314598063083691
20
0.360325574497509
30
0.493953943747282
11
-0.0597213685604138
21
0.34902079577856
31
0.458589532583952
12
-0.0416050688358349
22
0.367137089447307
32
0.514098692816496
13
-0.0416050688358349
23
0.367137089447307
33
0.514098692816496
70
0
  0
3DFACE
 8
jean blue
10
-0.0597213685604138
20
0.34902079577856
30
0.458589532583952
11
-0.105374565467457
21
0.298150182507562
31
0.7887412797153
12
-0.0416050688358349
22
0.367137089447307
32
0.514098692816496
13
-0.0416050688358349
23
0.367137089447307
33
0.514098692816496
70
0
  0
3DFACE
 8
jean blue
10
0.025932766094585
20
0.341774429706859
30
0.564388161963224
11
0.00216395286597784
21
0.356702261261272
31
0.475401781576872
12
-0.0314598063083691
22
0.360325574497509
32
0.493953943747282
13
-0.0314598063083691
23
0.360325574497509
33
0.493953943747282
70
0
  0
3DFACE
 8
jean blue
10
0.022599269833942
20
0.295106652725863
30
0.462214117544889
11
0.025932766094585
21
0.341774429706859
31
0.564388161963224
12
0.0182512975839573
22
0.238148778156566
32
0.552358712118864
13
0.0182512975839573
23
0.238148778156566
33
0.552358712118864
70
0
  0
3DFACE
 8
jean blue
10
-0.0145030167194409
20
0.237714181379604
30
0.457431269949675
11
-0.0417501060100598
21
0.189452150253582
31
0.808306849020719
12
-0.0514602691265148
22
0.234670502094555
32
0.449458210104704
13
-0.0514602691265148
23
0.234670502094555
33
0.449458210104704
70
0
  0
3DFACE
 8
jean blue
10
0.0182512975839573
20
0.238148778156566
30
0.552358712118864
11
-0.0417501060100598
21
0.189452150253582
31
0.808306849020719
12
-0.0145030167194409
22
0.237714181379604
32
0.457431269949675
13
-0.0145030167194409
23
0.237714181379604
33
0.457431269949675
70
0
  0
3DFACE
 8
jean blue
10
0.0182512975839573
20
0.238148778156566
30
0.552358712118864
11
0.025932766094585
21
0.341774429706859
31
0.564388161963224
12
0.0379619525102573
22
0.232496518997478
32
0.866135102194548
13
0.0379619525102573
23
0.232496518997478
33
0.866135102194548
70
0
  0
3DFACE
 8
jean blue
10
-0.0795768063159985
20
0.282642592857408
30
0.437284001654387
11
-0.0514602691265148
21
0.234670502094555
31
0.449458210104704
12
-0.105374565467457
22
0.298150182507562
32
0.7887412797153
13
-0.105374565467457
23
0.298150182507562
33
0.7887412797153
70
0
  0
3DFACE
 8
jean blue
10
-0.0514602691265148
20
0.234670502094555
30
0.449458210104704
11
-0.0821856344791455
21
0.211771385053921
31
0.795553557699919
12
-0.105374565467457
22
0.298150182507562
32
0.7887412797153
13
-0.105374565467457
23
0.298150182507562
33
0.7887412797153
70
0
  0
3DFACE
 8
jean blue
10
-0.0417501060100598
20
0.189452150253582
30
0.808306849020719
11
-0.0821856344791455
21
0.211771385053921
31
0.795553557699919
12
-0.0514602691265148
22
0.234670502094555
32
0.449458210104704
13
-0.0514602691265148
23
0.234670502094555
33
0.449458210104704
70
0
  0
3DFACE
 8
jean blue
10
0.0182512975839573
20
0.238148778156566
30
0.552358712118864
11
0.0379619525102573
21
0.232496518997478
31
0.866135102194548
12
0.0156424663928943
22
0.202640849832821
32
0.827582998007536
13
0.0156424663928943
23
0.202640849832821
33
0.827582998007536
70
0
  0
3DFACE
 8
jean blue
10
0.0182512975839573
20
0.238148778156566
30
0.552358712118864
11
0.0156424663928943
21
0.202640849832821
31
0.827582998007536
12
-0.0417501060100598
22
0.189452150253582
32
0.808306849020719
13
-0.0417501060100598
23
0.189452150253582
33
0.808306849020719
70
0
  0
3DFACE
 8
jean blue
10
-0.0417501060100598
20
0.189452150253582
30
0.808306849020719
11
-0.0765333753200573
21
0.213510777429867
31
0.857872428244352
12
-0.0821856344791455
22
0.211771385053921
32
0.795553557699919
13
-0.0821856344791455
23
0.211771385053921
33
0.795553557699919
70
0
  0
3DFACE
 8
jean blue
10
-0.0416050688358349
20
0.367137089447307
30
0.514098692816496
11
-0.105374565467457
21
0.298150182507562
31
0.7887412797153
12
-0.0595765857311291
22
0.360325574497509
32
0.653232254523039
13
-0.0595765857311291
23
0.360325574497509
33
0.653232254523039
70
0
  0
3DFACE
 8
jean blue
10
0.0363675942806202
20
0.336411981467533
30
0.68729112522006
11
0.0575275460390049
21
0.324672608999538
31
0.80555352870822
12
0.0379619525102573
22
0.232496518997478
32
0.866135102194548
13
0.0379619525102573
23
0.232496518997478
33
0.866135102194548
70
0
  0
3DFACE
 8
jean blue
10
0.0382517664579349
20
0.35771674027853
30
0.773813702505827
11
0.0456432166365581
21
0.372644571832943
31
0.826569493979216
12
0.0575275460390049
22
0.324672608999538
32
0.80555352870822
13
0.0575275460390049
23
0.324672608999538
33
0.80555352870822
70
0
  0
3DFACE
 8
jean blue
10
-0.00261861010513728
20
0.359021027187633
30
0.573953808706999
11
0.0128888493446308
21
0.37670273013525
31
0.776856588476896
12
0.0363675942806202
22
0.336411981467533
32
0.68729112522006
13
0.0363675942806202
23
0.336411981467533
33
0.68729112522006
70
0
  0
3DFACE
 8
jean blue
10
0.025932766094585
20
0.341774429706859
30
0.564388161963224
11
0.0363675942806202
21
0.336411981467533
31
0.68729112522006
12
0.0379619525102573
22
0.232496518997478
32
0.866135102194548
13
0.0379619525102573
23
0.232496518997478
33
0.866135102194548
70
0
  0
3DFACE
 8
jean blue
10
0.0128888493446308
20
0.37670273013525
30
0.776856588476896
11
-0.00261861010513728
21
0.359021027187633
31
0.573953808706999
12
-0.0595765857311291
22
0.360325574497509
32
0.653232254523039
13
-0.0595765857311291
23
0.360325574497509
33
0.653232254523039
70
0
  0
3DFACE
 8
jean blue
10
-0.00261861010513728
20
0.359021027187633
30
0.573953808706999
11
-0.0416050688358349
21
0.367137089447307
31
0.514098692816496
12
-0.0595765857311291
22
0.360325574497509
32
0.653232254523039
13
-0.0595765857311291
23
0.360325574497509
33
0.653232254523039
70
0
  0
3DFACE
 8
jean blue
10
0.0363675942806202
20
0.336411981467533
30
0.68729112522006
11
0.0382517664579349
21
0.35771674027853
31
0.773813702505827
12
0.0575275460390049
22
0.324672608999538
32
0.80555352870822
13
0.0575275460390049
23
0.324672608999538
33
0.80555352870822
70
0
  0
3DFACE
 8
jean blue
10
0.0382517664579349
20
0.35771674027853
30
0.773813702505827
11
0.0363675942806202
21
0.336411981467533
31
0.68729112522006
12
0.0128888493446308
22
0.37670273013525
32
0.776856588476896
13
0.0128888493446308
23
0.37670273013525
33
0.776856588476896
70
0
  0
3DFACE
 8
jean blue
10
0.0456432166365581
20
0.372644571832943
30
0.826569493979216
11
0.0382517664579349
21
0.35771674027853
31
0.773813702505827
12
0.0128888493446308
22
0.37670273013525
32
0.776856588476896
13
0.0128888493446308
23
0.37670273013525
33
0.776856588476896
70
0
  0
3DFACE
 8
jean blue
10
-0.0595765857311291
20
0.360325574497509
30
0.653232254523039
11
-0.105374565467457
21
0.298150182507562
31
0.7887412797153
12
-0.0937802271457714
22
0.332788671259212
32
0.858598934286833
13
-0.0937802271457714
23
0.332788671259212
33
0.858598934286833
70
0
  0
3DFACE
 8
jean blue
10
-0.105374565467457
20
0.298150182507562
30
0.7887412797153
11
-0.0821856344791455
21
0.211771385053921
31
0.795553557699919
12
-0.0765333753200573
22
0.213510777429867
32
0.857872428244352
13
-0.0765333753200573
23
0.213510777429867
33
0.857872428244352
70
0
  0
3DFACE
 8
jean blue
10
0.0156424663928943
20
0.202640849832821
30
0.827582998007536
11
-0.0165319686981243
21
0.201336556867885
31
0.872513007467985
12
-0.0417501060100598
22
0.189452150253582
32
0.808306849020719
13
-0.0417501060100598
23
0.189452150253582
33
0.808306849020719
70
0
  0
3DFACE
 8
jean blue
10
0.0575275460390049
20
0.324672608999538
30
0.80555352870822
11
0.0408606006769138
21
0.358006554226207
31
0.866135102194548
12
0.0379619525102573
22
0.232496518997478
32
0.866135102194548
13
0.0379619525102573
23
0.232496518997478
33
0.866135102194548
70
0
  0
3DFACE
 8
jean blue
10
0.0575275460390049
20
0.324672608999538
30
0.80555352870822
11
0.0456432166365581
21
0.372644571832943
31
0.826569493979216
12
0.0408606006769138
22
0.358006554226207
32
0.866135102194548
13
0.0408606006769138
23
0.358006554226207
33
0.866135102194548
70
0
  0
3DFACE
 8
jean blue
10
0.0456432166365581
20
0.372644571832943
30
0.826569493979216
11
0.0128888493446308
21
0.37670273013525
31
0.776856588476896
12
-0.0552286195369763
22
0.375978071121502
32
0.846135160177946
13
-0.0552286195369763
23
0.375978071121502
33
0.846135160177946
70
0
  0
3DFACE
 8
jean blue
10
0.0128888493446308
20
0.37670273013525
30
0.776856588476896
11
-0.0595765857311291
21
0.360325574497509
31
0.653232254523039
12
-0.0552286195369763
22
0.375978071121502
32
0.846135160177946
13
-0.0552286195369763
23
0.375978071121502
33
0.846135160177946
70
0
  0
3DFACE
 8
jean blue
10
-0.0595765857311291
20
0.360325574497509
30
0.653232254523039
11
-0.0937802271457714
21
0.332788671259212
31
0.858598934286833
12
-0.0552286195369763
22
0.375978071121502
32
0.846135160177946
13
-0.0552286195369763
23
0.375978071121502
33
0.846135160177946
70
0
  0
3DFACE
 8
jean blue
10
-0.105374565467457
20
0.298150182507562
30
0.7887412797153
11
-0.072620254191975
21
0.22046732955389
31
0.875121569174528
12
-0.0937802271457714
22
0.332788671259212
32
0.858598934286833
13
-0.0937802271457714
23
0.332788671259212
33
0.858598934286833
70
0
  0
3DFACE
 8
jean blue
10
-0.105374565467457
20
0.298150182507562
30
0.7887412797153
11
-0.0765333753200573
21
0.213510777429867
31
0.857872428244352
12
-0.072620254191975
22
0.22046732955389
32
0.875121569174528
13
-0.072620254191975
23
0.22046732955389
33
0.875121569174528
70
0
  0
3DFACE
 8
jean blue
10
-0.0417501060100598
20
0.189452150253582
30
0.808306849020719
11
-0.072620254191975
21
0.22046732955389
31
0.875121569174528
12
-0.0765333753200573
22
0.213510777429867
32
0.857872428244352
13
-0.0765333753200573
23
0.213510777429867
33
0.857872428244352
70
0
  0
3DFACE
 8
jean blue
10
-0.0165319686981243
20
0.201336556867885
30
0.872513007467985
11
-0.072620254191975
21
0.22046732955389
31
0.875121569174528
12
-0.0417501060100598
22
0.189452150253582
32
0.808306849020719
13
-0.0417501060100598
23
0.189452150253582
33
0.808306849020719
70
0
  0
3DFACE
 8
jean blue
10
0.0379619525102573
20
0.232496518997478
30
0.866135102194548
11
-0.0165319686981243
21
0.201336556867885
31
0.872513007467985
12
0.0156424663928943
22
0.202640849832821
32
0.827582998007536
13
0.0156424663928943
23
0.202640849832821
33
0.827582998007536
70
0
  0
3DFACE
 8
jean blue
10
0.0456432166365581
20
0.372644571832943
30
0.826569493979216
11
-0.0552286195369763
21
0.375978071121502
31
0.846135160177946
12
0.0408606006769138
22
0.358006554226207
32
0.866135102194548
13
0.0408606006769138
23
0.358006554226207
33
0.866135102194548
70
0
  0
3DFACE
 8
jean blue
10
0.0408606006769138
20
0.358006554226207
30
0.866135102194548
11
0.0215847938446003
21
0.259163723019886
31
0.895266366690397
12
0.0379619525102573
22
0.232496518997478
32
0.866135102194548
13
0.0379619525102573
23
0.232496518997478
33
0.866135102194548
70
0
  0
3DFACE
 8
jean blue
10
-0.0552286195369763
20
0.375978071121502
30
0.846135160177946
11
-0.0658084727855724
21
0.32438254070692
31
0.889904387778044
12
0.0408606006769138
22
0.358006554226207
32
0.866135102194548
13
0.0408606006769138
23
0.358006554226207
33
0.866135102194548
70
0
  0
3DFACE
 8
jean blue
10
-0.0552286195369763
20
0.375978071121502
30
0.846135160177946
11
-0.0937802271457714
21
0.332788671259212
31
0.858598934286833
12
-0.0658084727855724
22
0.32438254070692
32
0.889904387778044
13
-0.0658084727855724
23
0.32438254070692
33
0.889904387778044
70
0
  0
3DFACE
 8
jean blue
10
-0.0937802271457714
20
0.332788671259212
30
0.858598934286833
11
-0.072620254191975
21
0.22046732955389
31
0.875121569174528
12
-0.0658084727855724
22
0.32438254070692
32
0.889904387778044
13
-0.0658084727855724
23
0.32438254070692
33
0.889904387778044
70
0
  0
3DFACE
 8
jean blue
10
0.0215847938446003
20
0.259163723019886
30
0.895266366690397
11
-0.072620254191975
21
0.22046732955389
31
0.875121569174528
12
-0.0165319686981243
22
0.201336556867885
32
0.872513007467985
13
-0.0165319686981243
23
0.201336556867885
33
0.872513007467985
70
0
  0
3DFACE
 8
jean blue
10
0.0215847938446003
20
0.259163723019886
30
0.895266366690397
11
-0.0165319686981243
21
0.201336556867885
31
0.872513007467985
12
0.0379619525102573
22
0.232496518997478
32
0.866135102194548
13
0.0379619525102573
23
0.232496518997478
33
0.866135102194548
70
0
  0
3DFACE
 8
jean blue
10
0.0408606006769138
20
0.358006554226207
30
0.866135102194548
11
-0.0658084727855724
21
0.32438254070692
31
0.889904387778044
12
0.0215847938446003
22
0.259163723019886
32
0.895266366690397
13
0.0215847938446003
23
0.259163723019886
33
0.895266366690397
70
0
  0
3DFACE
 8
jean blue
10
-0.0658084727855724
20
0.32438254070692
30
0.889904387778044
11
-0.072620254191975
21
0.22046732955389
31
0.875121569174528
12
0.0215847938446003
22
0.259163723019886
32
0.895266366690397
13
0.0215847938446003
23
0.259163723019886
33
0.895266366690397
70
0
 0
ENDSEC
 0
EOF
